<?xml version="1.0" standalone="no"?>
<!DOCTYPE svg PUBLIC "-//W3C//DTD SVG 1.1//EN" "http://www.w3.org/Graphics/SVG/1.1/DTD/svg11.dtd" >
<svg>
<metadata>
Created by FontForge 20110222 at Fri Apr 18 03:17:14 2014
 By Orthosie Webhosting
Copyright (c) 2001, Modular Infotech, Pune, INDIA. - Licenced to Microsoft
</metadata>
<defs>
<font id="VijayaRegular" horiz-adv-x="824" >
  <font-face 
    font-family="VijayaRegular"
    font-weight="400"
    font-style="italic"
    font-stretch="normal"
    units-per-em="2048"
    panose-1="2 11 6 4 2 2 2 2 2 4"
    ascent="1638"
    descent="-410"
    x-height="709"
    cap-height="1092"
    bbox="-950 -590 3144 2168"
    underline-thickness="102"
    underline-position="-169"
    slope="-11"
    unicode-range="U+0020-25CC"
  />
<missing-glyph horiz-adv-x="748" 
d="M68 0v1365h544v-1365h-544zM136 68h408v1229h-408v-1229z" />
    <glyph glyph-name=".notdef" horiz-adv-x="748" 
d="M68 0v1365h544v-1365h-544zM136 68h408v1229h-408v-1229z" />
    <glyph glyph-name=".null" horiz-adv-x="0" 
 />
    <glyph glyph-name="nonmarkingreturn" horiz-adv-x="0" 
 />
    <glyph glyph-name="space" unicode=" " horiz-adv-x="412" 
 />
    <glyph glyph-name="space" unicode="&#xa0;" horiz-adv-x="412" 
 />
    <glyph glyph-name="exclam" unicode="!" horiz-adv-x="549" 
d="M260 266h-31q40 145 56 222t36 201q40 256 49 299q16 72 53 110q17 19 46 19q23 0 38.5 -18t15.5 -48q0 -33 -15 -83q-33 -111 -130 -365q-47 -120 -52 -134q-15 -45 -66 -203zM206 138q35 0 59 -24t24 -58t-24 -58.5t-59 -24.5q-34 0 -58 24.5t-24 58.5t24 58t58 24z
" />
    <glyph glyph-name="quotedbl" unicode="&#x22;" horiz-adv-x="692" 
d="M532 646l23 235q10 92 13 108q12 52 28 79q13 20 37.5 34.5t52.5 14.5t43.5 -15.5t15.5 -40.5q0 -21 -11 -53q-30 -85 -51 -126l-113 -236h-38zM237 646l25 239q10 102 21 137q15 50 43.5 72.5t62.5 22.5q28 0 44.5 -16.5t16.5 -40.5q0 -19 -8 -42q-11 -34 -59 -134
l-112 -238h-34z" />
    <glyph glyph-name="numbersign" unicode="#" 
d="M181 -23l75 367h-138v66h151l55 276h-206v64h222l73 367h67l-73 -367h271l78 367h67l-77 -367h137v-64h-149l-56 -276h205v-66h-219l-75 -367h-65l73 367h-273l-76 -367h-67zM336 410h273l58 276h-274z" />
    <glyph glyph-name="dollar" unicode="$" 
d="M628 1034l-112 -387q126 -99 176 -185q36 -61 36 -138q0 -90 -52 -174.5t-137.5 -125t-217.5 -38.5l-26 -95h-53l28 95q-64 12 -107 31.5t-94 58.5l66 228h33q-9 -51 -9 -86q0 -62 34.5 -111t95.5 -70l140 493q-108 84 -150.5 153t-42.5 147q0 121 89.5 193.5t194.5 72.5
q27 0 72 -4l18 62h52l-21 -70q55 -16 88 -35t77 -57l-53 -194h-33q3 37 3 59q0 68 -32 120q-18 31 -63 57zM580 1048q-37 6 -57 6q-69 0 -119 -52t-50 -130q0 -45 25 -88t95 -105zM334 30q24 -3 36 -3q55 0 116.5 31t95 87t33.5 119q0 53 -31 106t-113 123z" />
    <glyph glyph-name="percent" unicode="%" horiz-adv-x="1373" 
d="M1347 1117l-1155 -1160h-76l1154 1160h77zM436 1117q75 0 130.5 -60.5t55.5 -158.5q0 -150 -98 -258t-208 -108q-82 0 -138 61.5t-56 158.5q0 146 101 255.5t213 109.5zM441 1082q-39 0 -72 -31q-58 -54 -101 -173t-43 -220q0 -43 24.5 -69t58.5 -26t60 24
q57 53 105 171.5t48 225.5q0 45 -24 71.5t-56 26.5zM1153 539q78 0 134.5 -61t56.5 -162q0 -91 -46.5 -177.5t-120 -134.5t-141.5 -48q-80 0 -136 59.5t-56 152.5q0 149 100 260t209 111zM1162 506q-41 0 -71 -29q-55 -51 -100.5 -172.5t-45.5 -219.5q0 -44 24 -70.5
t56 -26.5q38 0 66 26q57 54 103 174t46 215q0 49 -23 76t-55 27z" />
    <glyph glyph-name="ampersand" unicode="&#x26;" horiz-adv-x="1282" 
d="M867 572h326v-30q-71 -10 -115 -39t-105 -116q-79 -116 -132 -184q96 -162 207 -162q69 0 124 59h36q-48 -66 -102 -95.5t-128 -29.5q-77 0 -133.5 28.5t-111.5 96.5q-90 -67 -171 -96t-179 -29q-146 0 -225 75.5t-79 197.5q0 144 121 254q80 70 325 153q-4 31 -6 58
t-2 49q0 165 86 260t208 95q82 0 130 -45.5t48 -114.5q0 -86 -69.5 -165t-248.5 -137q58 -240 143 -401q125 150 125 240q0 20 -15.5 32.5t-56.5 15.5v30zM661 707q122 52 165 100q59 66 59 144q0 51 -28.5 81t-73.5 30q-58 0 -98 -51t-40 -167q0 -28 4 -62t12 -75zM533 605
q-155 -58 -223.5 -142.5t-68.5 -174.5q0 -101 64.5 -167.5t168.5 -66.5q57 0 102.5 17.5t125.5 73.5q-52 80 -99.5 210t-69.5 250z" />
    <glyph glyph-name="quotesingle" unicode="'" horiz-adv-x="353" 
d="M217 646l25 239q10 101 20 137q16 50 43.5 72.5t62.5 22.5q29 0 46 -16.5t17 -41.5q0 -18 -8 -41q-11 -30 -60 -134l-111 -238h-35z" />
    <glyph glyph-name="parenleft" unicode="(" horiz-adv-x="549" 
d="M310 -340l-27 -13q-96 183 -138 323q-32 110 -32 221q0 259 120 464q147 251 477 490l19 -28q-149 -111 -243 -248q-117 -170 -192 -411.5t-75 -439.5q0 -152 91 -358z" />
    <glyph glyph-name="parenright" unicode=")" horiz-adv-x="549" 
d="M240 1129l27 16q96 -182 137 -322q33 -110 33 -221q0 -260 -120 -464q-148 -252 -477 -491l-20 25q149 111 244 247q117 171 192 413t75 440q0 151 -91 357z" />
    <glyph glyph-name="asterisk" unicode="*" 
d="M514 840q-3 56 -22 111q-28 79 -28 108q0 42 20 64t49 22q25 0 43.5 -22t18.5 -62q0 -36 -21.5 -101t-26.5 -120q45 29 80 69q55 63 81.5 78.5t53.5 15.5t45 -18t18 -43q0 -30 -26.5 -53.5t-132.5 -46.5q-62 -14 -103 -31q42 -22 102 -33q97 -18 127.5 -44.5t30.5 -58.5
q0 -24 -18.5 -41.5t-42.5 -17.5t-53.5 17t-78.5 75q-33 40 -83 74q2 -45 19 -99q29 -95 29 -130q0 -32 -19.5 -54t-40.5 -22q-30 0 -54 23q-17 17 -17 54q0 38 18.5 92.5t23 75t8.5 60.5q-47 -31 -83 -70q-58 -66 -88 -83q-21 -13 -44 -13q-27 0 -46.5 18.5t-19.5 40.5
q0 21 16.5 43t49.5 36q22 10 99 26q50 11 98 31q-44 21 -104 33q-99 21 -122 38q-37 27 -37 65q0 21 18.5 39.5t42.5 18.5q26 0 56 -17t74.5 -68t89.5 -80z" />
    <glyph glyph-name="plus" unicode="+" horiz-adv-x="1113" 
d="M553 114v401h-400v66h400v400h66v-400h402v-66h-402v-401h-66z" />
    <glyph glyph-name="comma" unicode="," horiz-adv-x="412" 
d="M-17 -181q60 27 98 69q29 32 29 62q0 15 -5 27q-3 6 -22 25.5t-22 26.5q-5 14 -5 31q0 35 23.5 60t55.5 25q33 0 58.5 -26.5t25.5 -66.5q0 -72 -56.5 -145.5t-163.5 -113.5z" />
    <glyph glyph-name="hyphen" unicode="-" horiz-adv-x="549" 
d="M493 411l-33 -107h-417l33 107h417z" />
    <glyph glyph-name="period" unicode="." horiz-adv-x="412" 
d="M137 144q34 0 58 -23.5t24 -57.5t-24 -58t-58 -24t-57.5 24t-23.5 58t23.5 57.5t57.5 23.5z" />
    <glyph glyph-name="slash" unicode="/" horiz-adv-x="458" 
d="M629 1145l-614 -1170h-71l618 1170h67z" />
    <glyph glyph-name="zero" unicode="0" 
d="M570 1114q103 0 173.5 -86t70.5 -272q0 -159 -52.5 -325t-147.5 -288q-75 -96 -158 -138q-49 -24 -112 -24q-105 0 -175.5 86t-70.5 273q0 184 71 370q83 217 212 330q84 74 189 74zM571 1072q-47 0 -95 -36.5t-99 -152.5t-98 -299q-60 -239 -60 -407q0 -84 36 -125.5
t88 -41.5q49 0 84 33q92 87 158 297q107 343 107 558q0 90 -36 132t-85 42z" />
    <glyph glyph-name="one" unicode="1" 
d="M688 1114l-259 -902q-22 -80 -22 -115q0 -30 20.5 -46t95.5 -21l-8 -30h-414l11 30q66 1 87 10q34 15 51 39q26 37 53 133l187 648q17 59 19 67q2 16 2 32q0 28 -15 44t-42 16q-21 0 -65 -10l-11 29l272 76h38z" />
    <glyph glyph-name="two" unicode="2" 
d="M569 0h-543v30q415 364 549 571q62 95 62 201q0 84 -51.5 136.5t-133.5 52.5q-114 0 -187 -109l-28 13q41 104 120 161.5t170 57.5q104 0 175 -71t71 -173q0 -71 -25 -131q-39 -94 -143 -211q-157 -179 -421 -411h274q66 0 108.5 27t61.5 73h32z" />
    <glyph glyph-name="three" unicode="3" 
d="M252 597v23q195 30 291 116q69 61 69 145q0 64 -40.5 105.5t-97.5 41.5q-90 0 -160 -112l-30 9q42 93 107.5 141t143.5 48q95 0 154 -56.5t59 -143.5q0 -74 -55 -142.5t-190 -122.5q84 -35 126.5 -99.5t42.5 -155.5q0 -101 -58 -202t-159 -156t-212 -55q-101 0 -154 35
q-34 24 -34 56q0 29 20.5 49t50.5 20q21 0 41 -7q13 -4 63.5 -32t78.5 -37t58 -9q73 0 120 84t47 179q0 77 -32 137.5t-100.5 98t-149.5 42.5z" />
    <glyph glyph-name="four" unicode="4" 
d="M803 1092l-209 -718h131l-29 -100h-132l-85 -293h-118l85 293h-394l33 112l656 706h62zM624 884l-469 -510h322z" />
    <glyph glyph-name="five" unicode="5" 
d="M425 1092h365l-37 -133h-328l-60 -135q130 -21 203 -81q111 -94 111 -263q0 -112 -41 -202.5t-101 -152t-129 -96.5q-93 -48 -188 -48q-82 0 -129 35q-32 24 -32 61q0 29 21 49.5t51 20.5q43 0 95 -42q32 -27 53 -36q17 -7 41 -7q91 0 167.5 90.5t76.5 235.5
q0 101 -41 171.5t-103.5 99.5t-167.5 41z" />
    <glyph glyph-name="six" unicode="6" 
d="M866 1114v-31q-137 -32 -267 -135.5t-227 -265.5q87 37 142 37q102 0 174 -74t72 -200q0 -192 -124 -328t-267 -136q-131 0 -198 96t-67 222q0 165 76.5 326t207 276t271.5 170q84 32 207 43zM333 614q-115 -245 -115 -412q0 -86 43.5 -135.5t99.5 -49.5q93 0 173 135
t80 312q0 95 -46.5 147t-112.5 52q-28 0 -53.5 -9.5t-68.5 -39.5z" />
    <glyph glyph-name="seven" unicode="7" 
d="M320 1092h543v-28l-612 -1083l-64 29l535 954h-259q-107 0 -146 -19t-91 -93h-33z" />
    <glyph glyph-name="eight" unicode="8" 
d="M556 611q78 -84 113.5 -157t35.5 -146q0 -132 -99.5 -229.5t-246.5 -97.5q-131 0 -213.5 79.5t-82.5 185.5q0 91 67 179t254 169q-72 88 -97 145t-25 113q0 108 80 185t201 77q116 0 189.5 -67t73.5 -156q0 -88 -59.5 -160.5t-190.5 -119.5zM525 645q87 30 135 97.5
t48 155.5q0 82 -46.5 129t-121.5 47q-71 0 -115.5 -45t-44.5 -117q0 -54 23 -100q34 -67 122 -167zM414 561q-120 -50 -181.5 -144.5t-61.5 -203.5q0 -87 54 -140.5t143 -53.5q92 0 154.5 64t62.5 154q0 67 -36.5 141.5t-134.5 182.5z" />
    <glyph glyph-name="nine" unicode="9" 
d="M47 -19v25q83 18 145 52q108 60 194.5 147.5t154.5 203.5q-49 -24 -76.5 -31.5t-61.5 -7.5q-121 0 -185.5 83t-64.5 193q0 193 125 330.5t266 137.5q128 0 196.5 -96t68.5 -225q0 -163 -75.5 -322.5t-205.5 -274.5t-272 -171q-85 -33 -209 -44zM581 476q114 230 114 411
q0 88 -43 136t-101 48q-95 0 -173.5 -132.5t-78.5 -315.5q0 -97 45 -146.5t112 -49.5q31 0 57 9.5t68 39.5z" />
    <glyph glyph-name="colon" unicode=":" horiz-adv-x="549" 
d="M350 729q34 0 58 -23.5t24 -57.5t-24 -58t-58 -24t-58 24t-24 58t24 57.5t58 23.5zM180 147q33 0 56.5 -24t23.5 -58q0 -33 -23.5 -56.5t-56.5 -23.5q-34 0 -58 23.5t-24 56.5q0 34 24 58t58 24z" />
    <glyph glyph-name="semicolon" unicode=";" horiz-adv-x="549" 
d="M353 728q33 0 57.5 -24t24.5 -58t-24.5 -58t-57.5 -24q-34 0 -58.5 24t-24.5 58t24 58t59 24zM29 -179q85 49 105 76t20 52q0 16 -6 28q-2 8 -20.5 28.5t-21.5 29.5q-6 13 -6 29q0 34 24 59t56 25q33 0 58 -26.5t25 -69.5q0 -54 -30 -105.5t-83 -93.5q-20 -15 -107 -60z
" />
    <glyph glyph-name="less" unicode="&#x3c;" horiz-adv-x="1113" 
d="M121 568l866 375v-70l-745 -323l745 -327v-72l-866 378v39z" />
    <glyph glyph-name="equal" unicode="=" horiz-adv-x="1113" 
d="M161 711h869v-66h-869v66zM161 448h869v-66h-869v66z" />
    <glyph glyph-name="greater" unicode="&#x3e;" horiz-adv-x="1113" 
d="M987 526l-866 -375v69l746 323l-746 327v73l866 -378v-39z" />
    <glyph glyph-name="question" unicode="?" 
d="M290 268h-31q11 102 49 176t148.5 191.5t145.5 188.5q25 51 25 105q0 64 -45 107.5t-116 43.5q-68 0 -111 -29q-24 -16 -24 -39q0 -16 13 -44.5t13 -46.5q0 -27 -19 -45.5t-47 -18.5q-29 0 -48.5 20t-19.5 53q0 71 69 129t188 58q124 0 200 -70t76 -159q0 -72 -36 -125
q-46 -69 -176.5 -159t-179.5 -158t-74 -178zM242 138q33 0 57.5 -23.5t24.5 -58.5q0 -33 -24.5 -57t-57.5 -24q-34 0 -58.5 24t-24.5 57q0 35 24 58.5t59 23.5z" />
    <glyph glyph-name="at" unicode="@" horiz-adv-x="1517" 
d="M1133 771l-94 -321q-52 -180 -63.5 -228.5t-11.5 -77.5q0 -26 17.5 -43.5t43.5 -17.5q59 0 141.5 58.5t141 190.5t58.5 276q0 137 -66.5 254t-187.5 179.5t-268 62.5q-186 0 -345 -99t-252 -284t-93 -385q0 -185 81.5 -336t229.5 -229t319 -78q212 0 383 113.5t264 331.5
h47q-72 -220 -263 -357t-435 -137q-192 0 -356 90.5t-255 257t-91 365.5q0 213 100 397t280 287.5t382 103.5q166 0 300 -69t204 -201.5t70 -281.5q0 -147 -65.5 -291.5t-167 -210.5t-211.5 -66q-61 0 -92 29t-31 81q0 45 14 119q-119 -145 -190.5 -187.5t-126.5 -42.5
q-57 0 -101.5 51t-44.5 137q0 116 76.5 261t201.5 236q93 67 166 67q54 0 90 -28t48 -83l27 88zM851 738q-60 0 -122 -63q-91 -94 -156 -252q-47 -116 -47 -187q0 -51 28.5 -82.5t63.5 -31.5q47 0 98.5 35t108 109t81.5 148q46 128 46 208q0 53 -29.5 84.5t-71.5 31.5z" />
    <glyph glyph-name="A" unicode="A" horiz-adv-x="1007" 
d="M849 1117l-83 -909q-6 -63 -6 -83q0 -32 12 -49q15 -24 41.5 -35t88.5 -11l-9 -30h-430l9 30h18q53 0 86 22q23 16 36 51q9 25 17 118l13 138h-313l-111 -151q-38 -50 -47.5 -72t-9.5 -42q0 -26 21 -44.5t69 -19.5l-9 -30h-323l9 30q60 2 105.5 39.5t135.5 159.5l652 888
h28zM690 848l-316 -430h274z" />
    <glyph glyph-name="B" unicode="B" horiz-adv-x="1007" 
d="M244 1062l11 30h390q98 0 175 -31t115 -85.5t38 -115.5q0 -94 -68 -170.5t-222 -112.5q99 -37 146 -98t47 -134q0 -82 -42 -156t-107.5 -115t-158.5 -60q-66 -14 -206 -14h-400l11 30q62 1 85 12q32 14 46 36q19 31 51 140l196 661q25 84 25 118q0 29 -22 46.5t-84 17.5
q-14 0 -26 1zM407 609q53 -2 76 -2q167 0 249 73t82 182q0 83 -50 129.5t-159 46.5q-29 0 -75 -10zM249 71q87 -11 136 -11q125 0 222 75.5t97 205.5q0 99 -60 154.5t-193 55.5q-26 0 -63 -3z" />
    <glyph glyph-name="C" unicode="C" horiz-adv-x="1100" 
d="M1160 1117l-81 -354h-29l-3 89q-5 48 -19.5 86t-43 65.5t-73 43.5t-98.5 16q-144 0 -252 -79q-138 -101 -216 -284q-64 -152 -64 -307q0 -159 92.5 -253.5t240.5 -94.5q112 0 199.5 50t162.5 154h37q-88 -141 -196 -207.5t-258 -66.5q-134 0 -237 56t-157 157.5
t-54 218.5q0 178 96 347t263 266t337 97q79 0 178 -38q44 -16 63 -16t33.5 8t48.5 46h30z" />
    <glyph glyph-name="D" unicode="D" horiz-adv-x="1191" 
d="M242 1062l9 30h349q221 0 327.5 -51t170.5 -160t64 -234q0 -107 -37 -208t-83 -161.5t-142 -134t-208 -108.5t-279 -35h-462l10 30q64 1 86 11q32 14 47 37q24 34 53 136l193 660q22 78 22 123q0 31 -21 48t-82 17h-17zM527 1031l-236 -817q-27 -92 -27 -113
q0 -13 8.5 -25t22.5 -16q21 -8 68 -8q126 0 234.5 26.5t177.5 77.5q98 75 157 206t59 299q0 189 -90 281t-263 92q-43 0 -111 -3z" />
    <glyph glyph-name="E" unicode="E" horiz-adv-x="1007" 
d="M534 1033l-125 -432h102q110 0 159 33.5t84 123.5h30l-112 -396h-32q14 50 14 86q0 34 -14 55t-38.5 31t-103.5 10h-104l-105 -361q-15 -53 -15 -80q0 -21 20 -37q14 -11 68 -11h97q157 0 251.5 55.5t169.5 192.5h30l-103 -303h-844l10 30q63 1 85 11q32 15 47 37
q21 33 51 139l192 658q22 80 22 122q0 30 -21 47.5t-83 17.5h-17l9 30h784l-67 -264h-30q6 37 6 62q0 43 -21 72q-28 37 -80 56q-39 15 -178 15h-138z" />
    <glyph glyph-name="F" unicode="F" horiz-adv-x="1007" 
d="M536 1034l-129 -433h144q96 0 144 30t99 127h30l-113 -397h-32q12 48 12 79q0 49 -33 76t-122 27h-145l-95 -329q-26 -88 -26 -117t22.5 -45.5t108.5 -21.5l-10 -30h-431l10 30q63 1 84 11q32 14 47 37q22 33 52 136l192 658q24 80 24 125q0 21 -10.5 35.5t-31 22
t-81.5 7.5l9 30h847l-80 -277h-31q9 50 9 83q0 53 -29.5 84t-75.5 44q-32 8 -144 8h-215z" />
    <glyph glyph-name="G" unicode="G" horiz-adv-x="1191" 
d="M1187 1117l-82 -344h-30q7 60 7 89q0 79 -69.5 140t-192.5 61q-250 0 -409 -235q-126 -186 -126 -417q0 -153 78 -264t241 -111q40 0 76 7.5t108 32.5l80 281q17 58 17 92q0 29 -21 44q-34 24 -110 24h-22l9 31h454l-8 -31q-62 -1 -90.5 -14.5t-48.5 -46.5
q-14 -22 -44 -127l-81 -276q-110 -47 -177.5 -63t-142.5 -16q-172 0 -279 65t-158.5 171.5t-51.5 212.5q0 141 59.5 268.5t148.5 216t194 139.5q144 70 303 70q116 0 211 -39q37 -15 55 -15q20 0 34 9t37 45h31z" />
    <glyph glyph-name="H" unicode="H" horiz-adv-x="1191" 
d="M407 605h503l80 269q23 79 23 123q0 21 -10 35.5t-31 22t-82 7.5l8 30h439l-10 -30q-55 1 -82 -11q-39 -17 -58 -44q-26 -38 -54 -133l-192 -659q-24 -82 -24 -118q0 -30 21.5 -46t101.5 -21l-9 -30h-425l11 30q63 1 84 11q32 15 47 37q21 31 51 137l99 334h-507
l-99 -334q-23 -81 -23 -118q0 -30 21 -46t101 -21l-6 -30h-428l10 30q64 1 85 11q32 15 47 37q21 33 52 137l193 659q23 81 23 123q0 21 -10 35.5t-31.5 22t-83.5 7.5l10 30h431l-9 -30q-54 1 -80 -11q-38 -17 -55 -43q-25 -36 -54 -134z" />
    <glyph glyph-name="I" unicode="I" horiz-adv-x="549" 
d="M407 30l-9 -30h-450l12 30q67 1 89 11q36 14 52 38q27 38 55 135l190 659q24 82 24 124q0 21 -10.5 35.5t-31.5 22t-83 7.5l9 30h422l-9 -30q-51 1 -76 -11q-36 -17 -55 -46.5t-49 -131.5l-189 -659q-26 -91 -26 -116q0 -20 10 -34t32 -21.5t93 -12.5z" />
    <glyph glyph-name="J" unicode="J" horiz-adv-x="732" 
d="M472 1092h430l-9 -30q-83 -1 -117 -30.5t-71 -157.5l-138 -480q-40 -136 -80 -208q-54 -97 -145.5 -154t-204.5 -57q-94 0 -143.5 43t-49.5 104q0 49 30 81t72 32q36 0 59 -21.5t23 -53.5q0 -26 -21 -50q-26 -30 -26 -42q0 -16 15 -30t41 -14q37 0 77 18t75 54t61 86.5
t53 138.5l40 139l120 414q26 91 26 114q0 30 -24 49.5t-102 24.5z" />
    <glyph glyph-name="K" unicode="K" horiz-adv-x="1100" 
d="M526 621l271 -418q72 -111 119.5 -142t125.5 -31l-9 -30h-465l7 30q55 5 78 26t23 48q0 24 -8 47q-6 16 -47 78l-221 347l-107 -361q-27 -87 -27 -117t23 -46.5t111 -21.5l-13 -30h-431l10 30q63 1 85 11q32 15 47 37q21 33 52 137l192 659q22 76 22 122q0 32 -20.5 49
t-80.5 17h-16l10 30h410l-9 -30q-50 1 -75 -11q-35 -17 -51 -44t-47 -133l-85 -280l388 292q77 58 102 92q14 21 14 38q0 14 -15 28t-45 18l8 30h349l-7 -30q-57 -10 -96 -25.5t-80 -43.5q-13 -8 -157 -119z" />
    <glyph glyph-name="L" unicode="L" horiz-adv-x="917" 
d="M756 0h-809l11 30q65 1 86 10q34 15 50 38q25 37 53 134l193 664q24 82 24 121q0 30 -22 47t-84 17q-13 0 -21 1l9 30h445l-6 -30q-75 0 -106.5 -14.5t-52.5 -47.5q-14 -22 -47 -135l-189 -653q-22 -74 -22 -103q0 -20 22 -37q13 -12 62 -12h105q115 0 183 29
q50 21 92 65q22 24 79 120l21 36h30z" />
    <glyph glyph-name="M" unicode="M" horiz-adv-x="1373" 
d="M522 1092l101 -879l634 879h266v-30q-87 -6 -102 -11q-27 -11 -49 -42.5t-48 -120.5l-202 -692q-18 -61 -18 -95q0 -32 22 -48q31 -23 97 -23h19l-7 -30h-460l8 30h22q61 0 93 17q25 13 45 49t55 159l181 633l-637 -888h-32l-103 888l-194 -675q-25 -87 -25 -116
q0 -30 21.5 -46t105.5 -21l-9 -30h-360l9 30h22q79 0 115 40q26 29 54 126l237 813q-26 28 -50.5 37.5t-89.5 15.5l8 30h271z" />
    <glyph glyph-name="N" unicode="N" horiz-adv-x="1100" 
d="M473 1092l337 -856l183 639q22 79 22 122q0 30 -21 47t-78 17q-10 0 -20 1l9 30h351l-10 -30q-55 1 -81 -11q-38 -17 -57 -44q-25 -38 -52 -132l-257 -900h-29l-363 921l-194 -680q-21 -78 -21 -119q0 -30 19.5 -46t93.5 -21l-8 -30h-343l11 30q65 1 87 11q33 15 49 38
q23 35 52 137l216 759q-31 48 -67 66t-111 21l9 30h273z" />
    <glyph glyph-name="O" unicode="O" horiz-adv-x="1191" 
d="M812 1117q109 0 192.5 -47.5t131 -139.5t47.5 -191q0 -175 -101.5 -368t-266 -294.5t-339.5 -101.5q-127 0 -211.5 56t-125.5 147.5t-41 178.5q0 153 74 302t176 249.5t218 154.5t246 54zM785 1065q-81 0 -157.5 -40t-152.5 -130.5t-136 -236.5q-74 -181 -74 -341
q0 -114 58.5 -202t180.5 -88q73 0 143.5 36t147.5 124q95 110 160.5 281t65.5 319q0 110 -59 194t-177 84z" />
    <glyph glyph-name="P" unicode="P" horiz-adv-x="1007" 
d="M258 1092h429q170 0 253.5 -73t83.5 -178q0 -83 -53 -161t-158 -126.5t-226 -48.5q-76 0 -193 27l-86 -298q-31 -106 -31 -140q0 -26 21.5 -42.5t104.5 -21.5l-9 -30h-433l8 30q86 0 119.5 29.5t71.5 161.5l181 622q32 112 32 150q0 28 -23 46.5t-101 22.5zM408 583
q91 -24 147 -24q87 0 159 36.5t113 109t41 150.5q0 81 -50 128.5t-151 47.5q-55 0 -133 -13z" />
    <glyph glyph-name="Q" unicode="Q" horiz-adv-x="1191" 
d="M482 -25l-207 -168q49 9 90 9t75 -5t146.5 -30.5t195.5 -25.5q90 0 152.5 31t120.5 104l27 -13q-83 -119 -195.5 -172t-239.5 -53q-70 0 -191 28q-186 41 -260 41q-29 0 -46.5 -4t-52.5 -20l-19 22l330 261q-153 21 -232 134.5t-79 242.5q0 176 107 364.5t273 292
t326 103.5q120 0 204 -48.5t130 -140.5t46 -189q0 -185 -105.5 -375t-262.5 -288t-333 -101zM784 1065q-80 0 -157 -40t-153 -130.5t-136 -236.5q-73 -181 -73 -341q0 -114 58.5 -202t180.5 -88q72 0 143 36t147 123q96 111 161.5 282.5t65.5 318.5q0 109 -59 193.5
t-178 84.5z" />
    <glyph glyph-name="R" unicode="R" horiz-adv-x="1007" 
d="M685 0l-175 530q-61 0 -125 13l-94 -330q-19 -65 -19 -109q0 -34 23 -53q18 -15 97 -21l-7 -30h-423l9 30q60 2 81 12q33 14 48 37q26 38 54 134l191 659q19 66 19 102q0 37 -30.5 63t-86.5 25l10 30h356q178 0 257 -68t79 -178q0 -105 -81 -192.5t-222 -110.5l107 -320
q38 -118 77 -153t125 -40l-9 -30h-261zM398 588q52 -7 92 -7q139 0 219.5 77t80.5 191q0 90 -50.5 137.5t-151.5 47.5q-25 0 -61 -7z" />
    <glyph glyph-name="S" unicode="S" 
d="M11 -25l90 405h28q-6 -59 -6 -97q0 -111 70.5 -180t184.5 -69q105 0 159.5 64.5t54.5 149.5q0 55 -24 100q-38 67 -203 235q-79 80 -102 120q-37 65 -37 137q0 114 85.5 195.5t218.5 81.5q46 0 86 -9q25 -5 91 -33q46 -18 51 -20q12 -2 25 -2q24 0 40.5 12t39.5 52h31
l-84 -363h-28q4 49 4 78q0 98 -64.5 160t-170.5 62q-83 0 -135.5 -49t-52.5 -114q0 -56 33.5 -107t154 -166.5t155.5 -180.5t35 -138q0 -83 -43.5 -161t-126 -120.5t-179.5 -42.5q-48 0 -90 9t-134 43q-31 12 -52 12q-48 0 -74 -64h-31z" />
    <glyph glyph-name="T" unicode="T" horiz-adv-x="917" 
d="M242 1092h829l-90 -290h-30q15 63 15 113q0 59 -36 89q-28 22 -141 22h-86l-216 -751q-41 -142 -41 -175q0 -31 25.5 -50.5t91.5 -19.5h37l-10 -30h-475l9 30h21q63 0 97 20q23 14 42 49.5t52 151.5l227 775h-66q-94 0 -151.5 -24t-93 -70t-57.5 -130h-30z" />
    <glyph glyph-name="U" unicode="U" horiz-adv-x="1191" 
d="M216 1092h461l-9 -30q-71 -2 -101 -13.5t-51.5 -41.5t-44.5 -110l-112 -387q-30 -103 -35 -135q-10 -51 -10 -96q0 -97 72.5 -164.5t193.5 -67.5q80 0 143 30.5t107.5 85t81.5 147.5t65 187l97 334q36 125 36 162q0 27 -24.5 46t-99.5 23l9 30h347l-9 -30q-61 0 -88 -12
t-47 -42t-45 -117l-119 -405q-57 -197 -107.5 -291t-147 -157t-238.5 -63q-164 0 -265 93t-101 213q0 47 9 101q7 36 32 123l108 371q22 80 22 118q0 30 -23 46.5t-115 21.5z" />
    <glyph glyph-name="V" unicode="V" horiz-adv-x="1007" 
d="M250 -25l91 909q6 69 6 93q0 36 -27 60.5t-85 24.5h-29l8 30h431l-9 -30q-70 -1 -96 -14.5t-42 -46.5q-8 -18 -17 -101l-64 -651l426 581q69 94 87 131q12 25 12 44q0 21 -18.5 37.5t-69.5 19.5l10 30h328l-8 -30q-39 -3 -63 -15q-44 -21 -88 -64t-139 -172l-615 -836
h-29z" />
    <glyph glyph-name="W" unicode="W" horiz-adv-x="1373" 
d="M223 -25l94 910q6 52 6 80q0 47 -26.5 71t-96.5 26l9 30h409l-9 -30q-82 1 -112 -29.5t-41 -147.5l-61 -590l415 640q1 17 1 28q0 45 -26.5 69t-114.5 30l6 30h442l-9 -30q-76 -1 -103 -13q-19 -9 -32.5 -28.5t-21.5 -67.5q-2 -14 -19.5 -187t-51.5 -471l345 525
q56 86 70.5 121t14.5 59q0 22 -19 39.5t-66 22.5l6 30h324l-8 -30q-43 -3 -76 -21t-78 -68q-25 -29 -106 -153l-548 -845h-30l89 845l-549 -845h-27z" />
    <glyph glyph-name="X" unicode="X" horiz-adv-x="1007" 
d="M852 1092h369l-9 -30q-78 -11 -136 -47t-159 -143l-283 -290l79 -292q12 -42 42 -130q19 -56 38.5 -79.5t49 -36t88.5 -14.5l-8 -30h-429l9 30q66 2 95 25q22 16 22 42q0 22 -21 99l-77 274l-256 -258q-74 -77 -89 -101q-9 -14 -9 -28q0 -24 24 -40q12 -6 69 -13l-8 -30
h-363l9 30q68 6 111 31q64 38 176 151l317 318l-87 315q-39 145 -68.5 178.5t-102.5 38.5l8 30h390l-9 -30q-54 0 -73 -7t-29 -21t-10 -32q0 -19 19 -90l74 -269l171 171q102 101 140 163q13 22 13 39q0 18 -15 29q-22 14 -81 17z" />
    <glyph glyph-name="Y" unicode="Y" horiz-adv-x="917" 
d="M576 580l208 291q81 114 81 145q0 18 -17.5 29.5t-98.5 16.5l8 30h343l-7 -30q-50 -7 -68 -14q-29 -12 -57 -38q-38 -34 -110 -133l-267 -368l-81 -270q-29 -101 -29 -140q0 -25 9 -38t32 -21q31 -9 94 -10l-8 -30h-460l10 30q68 1 91 11q36 15 54 39q27 37 56 133
l96 318l-117 377q-31 100 -57.5 124t-91.5 30l8 30h404l-10 -30q-76 -6 -86 -10q-18 -5 -29.5 -22t-11.5 -40q0 -33 24 -113z" />
    <glyph glyph-name="Z" unicode="Z" horiz-adv-x="917" 
d="M250 1092h757v-30l-811 -1010h127q204 0 288.5 20.5t140 70t93.5 141.5h31l-94 -284h-785v23l810 1010h-226q-148 0 -208.5 -13.5t-103.5 -54t-73 -122.5h-28z" />
    <glyph glyph-name="bracketleft" unicode="[" horiz-adv-x="642" 
d="M10 -328l424 1445h343l-18 -56h-224l-390 -1331h224l-16 -58h-343z" />
    <glyph glyph-name="backslash" unicode="\" horiz-adv-x="458" 
d="M233 1145l149 -1170h-60l-147 1170h58z" />
    <glyph glyph-name="bracketright" unicode="]" horiz-adv-x="642" 
d="M601 1117l-423 -1445h-343l17 55h225l389 1332h-223l16 58h342z" />
    <glyph glyph-name="asciicircum" unicode="^" horiz-adv-x="696" 
d="M416 1117l342 -577h-74l-281 472l-282 -472h-76l347 577h24z" />
    <glyph glyph-name="underscore" unicode="_" 
d="M839 -356h-853v68h853v-68z" />
    <glyph glyph-name="grave" unicode="`" horiz-adv-x="549" 
d="M468 1129l87 -277h-25l-240 277h178z" />
    <glyph glyph-name="a" unicode="a" 
d="M774 729l-157 -546l-18 -74q-2 -10 -2 -17q0 -13 8 -23q6 -7 16 -7t27 13q31 23 84 96l27 -19q-55 -84 -114 -127.5t-109 -43.5q-34 0 -51.5 17t-17.5 50q0 40 18 104l17 61q-106 -138 -194 -193q-64 -39 -125 -39q-59 0 -101.5 48.5t-42.5 133.5q0 128 76.5 270.5
t195.5 227.5q92 68 174 68q50 0 82.5 -26t49.5 -86l29 92zM487 687q-51 0 -109 -49q-83 -68 -147 -202.5t-64 -243.5q0 -54 27.5 -86t63.5 -32q87 0 190 130q138 172 138 353q0 68 -26.5 99t-72.5 31z" />
    <glyph glyph-name="b" unicode="b" 
d="M476 1145l-159 -557q77 81 135 111t120 30q89 0 145.5 -59t56.5 -160q0 -129 -74.5 -257.5t-186 -200t-220.5 -71.5q-122 0 -250 91l245 842q28 98 28 115q0 21 -13 31q-18 15 -54 15q-17 0 -52 -6v31zM164 63q81 -44 142 -44q71 0 147 51.5t132 175t56 248.5
q0 74 -36.5 116t-86.5 42q-75 0 -147 -60t-102 -167z" />
    <glyph glyph-name="c" unicode="c" horiz-adv-x="732" 
d="M637 175q-84 -100 -169.5 -147t-180.5 -47q-114 0 -178 64t-64 173q0 123 69 242.5t185 194t228 74.5q88 0 131.5 -37t43.5 -90q0 -50 -31 -85q-22 -28 -55 -28q-25 0 -41.5 16.5t-16.5 40.5q0 15 6 28t25 31t23 26t4 17q0 17 -15 28q-24 16 -66 16q-79 0 -156.5 -55.5
t-132.5 -157.5q-66 -124 -66 -248q0 -82 47 -130t127 -48q62 0 123 31t136 112z" />
    <glyph glyph-name="d" unicode="d" 
d="M892 1145l-277 -950q-23 -77 -23 -102q0 -8 7 -15t14 -7q11 0 25 10q28 20 92 97l28 -17q-58 -80 -117.5 -130t-110.5 -50q-28 0 -45.5 19t-17.5 55q0 46 24 123l31 100q-116 -181 -212 -250q-66 -47 -126 -47q-62 0 -107.5 54t-45.5 148q0 120 76.5 256t202.5 221
q99 69 182 69q43 0 74.5 -18t62.5 -59l79 280q8 30 14 48q10 32 10 53q0 17 -12 28q-17 14 -44 14q-18 0 -61 -6v30zM593 573q0 52 -29.5 83t-75.5 31q-102 0 -211.5 -167t-109.5 -320q0 -61 26.5 -92.5t63.5 -31.5q84 0 210 181t126 316z" />
    <glyph glyph-name="e" unicode="e" horiz-adv-x="732" 
d="M196 303q-5 -40 -5 -66q0 -72 50.5 -122.5t123.5 -50.5q58 0 111.5 24t158.5 105l17 -23q-191 -189 -364 -189q-117 0 -176.5 74t-59.5 163q0 120 74 245.5t185.5 195.5t230.5 70q85 0 126 -35t41 -82q0 -67 -53 -128q-70 -80 -206 -129q-90 -33 -254 -52zM202 343
q119 14 194 47q99 44 148.5 105.5t49.5 117.5q0 33 -21.5 54t-60.5 21q-82 0 -174 -87t-136 -258z" />
    <glyph glyph-name="f" unicode="f" horiz-adv-x="458" 
d="M489 709l-15 -53h-117l-89 -352q-59 -232 -118 -360q-85 -179 -182 -247q-74 -53 -148 -53q-49 0 -82 29q-25 20 -25 52q0 26 20.5 45t49.5 19q22 0 37 -13.5t15 -31.5t-17 -33q-13 -11 -13 -17q0 -7 6 -11q7 -6 22 -6q35 0 73 22t68 65t57 124q11 34 60 223l140 545
h-140l11 53q67 0 93.5 9.5t48.5 35.5t58 98q47 96 91 149q59 72 125 108t124 36q61 0 98 -31t37 -67q0 -29 -18.5 -48t-47.5 -19q-25 0 -41 14.5t-16 34.5q0 13 10.5 32t10.5 25q0 11 -7 17q-10 8 -30 8q-51 0 -91 -32q-54 -43 -97 -134q-22 -47 -80 -236h119z" />
    <glyph glyph-name="g" unicode="g" 
d="M859 679l-23 -84h-135q15 -44 15 -81q0 -107 -90 -190q-91 -82 -249 -91q-86 -26 -128 -62q-16 -12 -16 -26q0 -16 14.5 -29.5t72.5 -26.5l157 -37q129 -30 171 -72q41 -43 41 -98q0 -66 -48.5 -121t-142.5 -86t-207 -31q-100 0 -182 24t-117.5 64t-35.5 83q0 34 23 71.5
t57 61.5q22 16 123 73q-37 29 -37 64q0 32 33 68t138 80q-89 17 -140.5 74t-51.5 127q0 114 100 204.5t267 90.5q60 0 98.5 -12.5t75.5 -37.5h217zM580 552q0 65 -36 102t-94 37q-91 0 -150 -91.5t-59 -190.5q0 -62 37.5 -101.5t91.5 -39.5q43 0 83 23.5t67 64.5t43.5 104.5
t16.5 91.5zM194 0q-65 -30 -98.5 -76.5t-33.5 -91.5q0 -53 48 -88q70 -50 203 -50q115 0 197 39t82 101q0 32 -30.5 60t-117.5 46q-47 9 -250 60z" />
    <glyph glyph-name="h" unicode="h" 
d="M484 1145l-226 -782q146 221 228 293.5t157 72.5q39 0 64.5 -27t25.5 -71q0 -53 -22 -129l-98 -337q-19 -61 -19 -68q0 -11 7 -18t16 -7q10 0 24 10q46 36 91 98l25 -15q-28 -43 -76.5 -94t-83.5 -70.5t-62 -19.5q-30 0 -49 19t-19 48q0 36 28 132l93 322q17 61 17 95
q0 16 -10 26t-26 10q-23 0 -53 -18q-55 -34 -126 -126q-20 -25 -129 -201q-34 -56 -56 -123l-51 -165h-121l265 921l28 100q0 21 -17.5 37t-42.5 16q-14 0 -44 -5l-17 -2v31z" />
    <glyph glyph-name="i" unicode="i" horiz-adv-x="458" 
d="M369 1048q34 0 57 -23.5t23 -56.5t-23.5 -57t-56.5 -24t-57 24t-24 57t23.5 56.5t57.5 23.5zM379 729l-159 -565q-16 -57 -16 -68q0 -13 7.5 -21t17.5 -8q13 0 29 13q46 36 93 103l28 -19q-55 -83 -129 -141q-54 -42 -104 -42q-33 0 -54 19.5t-21 49.5t20 99l105 361
q25 88 25 111q0 17 -12.5 28.5t-33.5 11.5q-18 0 -74 -9v31z" />
    <glyph glyph-name="j" unicode="j" horiz-adv-x="458" 
d="M378 1047q33 0 57 -23.5t24 -57.5t-24 -57.5t-57 -23.5q-34 0 -58 23.5t-24 57.5t24 57.5t58 23.5zM390 729l-208 -721q-56 -193 -153 -278.5t-209 -85.5q-51 0 -77 23.5t-26 55.5q0 25 19.5 44t45.5 19q23 0 41 -15q14 -13 14 -28q0 -21 -20 -36q-11 -9 -11 -15l2 -4
q2 -3 7 -4.5t14 -1.5q66 0 112 41.5t82 165.5l181 618q26 91 26 101q0 19 -17 34.5t-44 15.5q-10 0 -24 -3q-11 -1 -31 -5v29z" />
    <glyph glyph-name="k" unicode="k" horiz-adv-x="732" 
d="M472 1145l-229 -792l92 78q150 128 195 189q15 20 15 30q0 8 -5 14.5t-19 10.5t-49 4h-28l8 30h352l-8 -30q-60 -4 -104 -19.5t-85 -46.5q-81 -60 -107 -83l-69 -61q17 -58 43 -162q44 -173 59 -205t31 -32q14 0 33 14q41 30 89 97l28 -20q-88 -110 -134.5 -145
t-85.5 -35q-34 0 -52 26q-32 48 -107 375l-110 -96l-83 -286h-126l267 919l23 78q4 20 4 35q0 19 -15 32t-43 13q-19 0 -59 -8v28z" />
    <glyph glyph-name="l" unicode="l" horiz-adv-x="458" 
d="M490 1145l-275 -958q-20 -72 -20 -88q0 -12 7.5 -20t18.5 -8q16 0 33 14q42 33 88 102l24 -25q-76 -108 -141 -151q-47 -30 -90 -30q-30 0 -50.5 21t-20.5 48q0 29 25 119l219 755q26 93 26 106q0 20 -15.5 32.5t-47.5 12.5q-18 0 -56 -6v30z" />
    <glyph glyph-name="m" unicode="m" horiz-adv-x="1191" 
d="M357 729l-104 -364q70 128 119 193q76 100 149 145q43 26 89 26q40 0 67 -26t27 -66t-19 -103l-57 -205q131 246 249 345q65 55 128 55q37 0 61 -25.5t24 -78.5q0 -47 -15 -99l-88 -313q-29 -103 -29 -114t7 -19q5 -6 13 -6t28 15q46 36 86 94l27 -17q-20 -32 -71 -88.5
t-87.5 -76.5t-66.5 -20q-29 0 -47.5 19t-18.5 47q0 39 33 156l73 258q25 90 26 99q3 16 3 30q0 20 -9 31q-10 12 -22 12q-34 0 -71 -35q-112 -102 -208 -286q-64 -122 -119 -312h-122l138 487q22 79 22 105q0 22 -8.5 32.5t-21.5 10.5q-27 0 -57 -19q-48 -32 -124 -135
t-118 -197q-20 -44 -96 -284h-119l149 522l19 67q6 16 6 23q0 18 -16 32t-41 14q-11 0 -58 -10l-7 30z" />
    <glyph glyph-name="n" unicode="n" 
d="M364 729l-107 -367q150 225 230.5 296t154.5 71q40 0 66 -27t26 -69q0 -49 -23 -129l-98 -339q-17 -59 -17 -72q0 -11 6.5 -18.5t13.5 -7.5q9 0 23 10q43 34 94 103l25 -15q-75 -107 -142 -153q-47 -31 -84 -31q-30 0 -47.5 18t-17.5 48q0 39 27 133l94 324q17 60 17 94
q0 16 -10.5 26t-25.5 10q-22 0 -54 -19q-59 -36 -123.5 -119.5t-136.5 -212.5q-38 -69 -63 -150l-40 -133h-121l147 504q26 91 26 109t-14.5 31.5t-34.5 13.5q-10 0 -34 -4l-31 -4l-5 29z" />
    <glyph glyph-name="o" unicode="o" 
d="M762 477q0 -121 -64 -239.5t-178 -187.5t-222 -69q-110 0 -180 70.5t-70 181.5q0 119 68 238t182 188.5t220 69.5q107 0 175.5 -70.5t68.5 -181.5zM629 532q0 75 -37 115t-95 40q-118 0 -217.5 -169.5t-99.5 -337.5q0 -76 39 -117.5t97 -41.5q114 0 213.5 168.5
t99.5 342.5z" />
    <glyph glyph-name="p" unicode="p" 
d="M365 729l-56 -186q88 103 157 144.5t140 41.5q72 0 122.5 -57t50.5 -148q0 -177 -144 -360t-336 -183q-40 0 -71 8.5t-69 31.5l-59 -208q-18 -61 -18 -79t9.5 -30.5t30 -19.5t82.5 -7l-7 -30h-379l8 30q75 3 101 25.5t55 125.5l204 705q18 67 18 83q0 22 -12 34t-38 12
q-24 0 -65 -6v31zM177 85q50 -60 135 -60q41 0 84.5 23.5t85 69t74.5 105.5t59.5 141.5t26.5 161.5q0 64 -29.5 98t-69.5 34q-87 0 -171.5 -99.5t-124.5 -233.5z" />
    <glyph glyph-name="q" unicode="q" 
d="M782 729l-264 -910q-17 -63 -17 -81t9 -31.5t25 -19.5q25 -10 66 -10l-9 -30h-385l8 30q79 7 98 14q31 12 50.5 39.5t43.5 114.5l111 397q-106 -155 -198 -218q-65 -44 -121 -44q-81 0 -122 65.5t-41 142.5q0 121 75 254.5t197 219.5q95 67 173 67q57 0 94 -28t55 -89
l25 90zM598 572q0 51 -31.5 84t-77.5 33q-98 0 -206.5 -169t-108.5 -319q0 -60 27 -91.5t65 -31.5q50 0 112 55q94 83 157 213t63 226z" />
    <glyph glyph-name="r" unicode="r" horiz-adv-x="642" 
d="M86 683l278 46l-116 -392q141 241 256 337q65 55 106 55q27 0 42 -16t15 -46q0 -53 -27 -101q-19 -36 -56 -36q-18 0 -31.5 12t-16.5 37q-1 15 -7 20q-7 6 -15 6q-14 0 -26 -6q-21 -11 -64 -63q-67 -79 -145 -204q-33 -53 -58 -120q-33 -92 -38 -111l-26 -101h-123
l149 500q25 87 25 124q0 14 -12 24q-16 13 -42 13q-17 0 -62 -7z" />
    <glyph glyph-name="s" unicode="s" horiz-adv-x="642" 
d="M598 729l-49 -248h-30q-4 108 -46 157t-104 49q-49 0 -78.5 -27t-29.5 -66q0 -26 11.5 -50.5t51.5 -67.5q104 -115 134.5 -172.5t30.5 -109.5q0 -84 -69.5 -148.5t-175.5 -64.5q-58 0 -134 27q-26 10 -41 10q-36 0 -55 -37h-29l49 261h30q4 -123 50 -173.5t126 -50.5
q61 0 97 34t36 84q0 32 -13 60q-23 48 -95 133.5t-92.5 128t-20.5 85.5q0 78 57 132t146 54q26 0 47 -4q11 -3 52.5 -18.5t55.5 -15.5q34 0 58 38h30z" />
    <glyph glyph-name="t" unicode="t" horiz-adv-x="458" 
d="M428 928l-63 -219h127l-14 -51h-125l-139 -474q-22 -77 -22 -99q0 -14 6 -21.5t15 -7.5q20 0 53 29q20 16 87 99l26 -21q-74 -107 -140 -152q-45 -30 -91 -30q-35 0 -57.5 22t-22.5 57q0 43 25 132l135 466h-122l8 32q89 24 147.5 72t131.5 166h35z" />
    <glyph glyph-name="u" unicode="u" 
d="M776 709l-140 -480q-31 -107 -31 -135q0 -14 5 -21t14 -7q14 0 30.5 12.5t82.5 99.5l25 -19q-64 -100 -131 -148q-44 -30 -85 -30q-32 0 -49.5 17.5t-17.5 45.5t10 73q13 59 74 259q-137 -225 -229 -310t-171 -85q-37 0 -63 25.5t-26 65.5q0 60 35 185l71 249
q25 89 25 111q0 9 -6.5 16t-14.5 7q-17 0 -34 -12t-77 -89l-25 17q61 94 128 138q52 35 95 35q30 0 49 -19t19 -49q0 -44 -32 -155l-76 -260q-31 -107 -31 -135q0 -15 10 -24.5t27 -9.5q26 0 69 26.5t114 118t117.5 171.5t98.5 255l18 61h122z" />
    <glyph glyph-name="v" unicode="v" horiz-adv-x="732" 
d="M35 679l233 50q25 -60 40 -122q22 -91 36 -216q6 -63 17 -265q101 111 120 137q107 144 123 169q26 43 37 75q9 24 9 46q0 21 -37.5 48.5t-37.5 61.5q0 25 20.5 45.5t48.5 20.5q34 0 59.5 -28t25.5 -69t-13 -79q-20 -61 -77.5 -149t-184.5 -237q-16 -18 -179 -186h-29
q-20 509 -81 636q-20 41 -67 41q-20 0 -57 -8z" />
    <glyph glyph-name="w" unicode="w" horiz-adv-x="1100" 
d="M691 729l55 -604q140 164 224 308q49 85 49 122q0 18 -8 32q-3 7 -25 21t-31 29t-9 32q0 25 18.5 42.5t47.5 17.5q33 0 56 -25t23 -66t-12 -78q-24 -69 -94 -178q-86 -132 -176.5 -244t-134.5 -157h-30l-52 557l-333 -557h-35q-6 343 -35 542q-12 83 -40 109
q-20 18 -61 18q-24 0 -60 -4v29l231 54q49 -135 63 -413q5 -106 8 -133l331 546h30z" />
    <glyph glyph-name="x" unicode="x" horiz-adv-x="732" 
d="M286 729q39 -42 59 -84q15 -29 48 -152l71 106q28 39 68 74t71 47q19 9 43 9q34 0 54.5 -19t20.5 -45q0 -31 -12 -42q-22 -20 -51 -20q-17 0 -37 7q-37 13 -50 13q-20 0 -46 -22q-50 -42 -119 -162l66 -277q15 -64 25.5 -76.5t20.5 -12.5q17 0 40 19q44 37 76 96l28 -14
q-51 -95 -129 -158q-44 -35 -75 -35q-45 0 -72 50q-17 32 -70 271q-125 -218 -201 -281q-49 -40 -95 -40q-32 0 -59 23q-19 18 -19 48q0 26 17.5 44t43.5 18t55 -26q21 -19 32 -19q10 0 25 13q38 31 103 132.5t85 146.5q-49 195 -53 207q-19 52 -49 73.5t-87 21.5
q-19 0 -43 -1v29z" />
    <glyph glyph-name="y" unicode="y" horiz-adv-x="732" 
d="M263 729q28 -47 38.5 -87.5t20.5 -160.5l35 -396q49 58 140 184q45 61 110 167q39 64 48 90q5 13 5 26q0 9 -5.5 14.5t-29.5 13.5t-39.5 28.5t-15.5 46.5q0 33 19.5 53.5t48.5 20.5q35 0 60 -29.5t25 -81.5q0 -63 -43.5 -145t-167.5 -251t-300 -369
q-122 -137 -180.5 -173t-100.5 -36q-25 0 -44 19t-19 44q0 31 26 57t57 26q16 0 26 -7q7 -4 14.5 -23t14.5 -26q4 -4 9 -4t17 8q44 28 103 87q78 79 115 129l-46 510q-11 127 -33.5 154.5t-75.5 27.5q-17 0 -60 -5l-8 30z" />
    <glyph glyph-name="z" unicode="z" horiz-adv-x="642" 
d="M138 709h512v-20l-557 -580h235q84 0 106.5 6.5t41.5 27.5t42 76h30l-70 -219h-524v23l557 580h-232q-73 0 -88 -4q-23 -5 -45 -25.5t-45 -67.5h-31z" />
    <glyph glyph-name="braceleft" unicode="{" horiz-adv-x="659" 
d="M361 -328l-9 -28q-106 15 -165 80.5t-59 155.5q0 82 62.5 199.5t62.5 163.5q0 52 -35 89t-104 46l9 33q83 11 142.5 54.5t83.5 98.5q16 38 22.5 149.5t51 195.5t144 152t215.5 84l-8 -28q-91 -21 -147 -64.5t-82 -104.5q-18 -42 -24 -146t-34.5 -169t-105.5 -131.5
t-196 -104.5q82 -35 124 -93t42 -127q0 -70 -63 -188t-63 -172q0 -52 31 -88.5t105 -56.5z" />
    <glyph glyph-name="bar" unicode="|" horiz-adv-x="453" 
d="M258 1145v-1501h-67v1501h67z" />
    <glyph glyph-name="braceright" unicode="}" horiz-adv-x="659" 
d="M299 1117l8 28q105 -15 164.5 -80t59.5 -155q0 -83 -62.5 -200.5t-62.5 -162.5q0 -52 35.5 -89t104.5 -47l-10 -33q-82 -10 -141.5 -53.5t-84.5 -99.5q-16 -37 -22.5 -149t-51 -196t-143.5 -152.5t-216 -83.5l8 28q91 22 147.5 65t81.5 104q18 42 24 146.5t31 160.5
q31 73 108.5 139.5t196.5 105.5q-82 34 -124 92t-42 128t63 188t63 171t-30.5 89t-104.5 56z" />
    <glyph glyph-name="asciitilde" unicode="~" horiz-adv-x="892" 
d="M839 543h36q-3 -104 -59.5 -163.5t-137.5 -59.5q-37 0 -80 12.5t-220 85.5q-124 51 -177 51q-56 0 -94.5 -34.5t-54.5 -112.5h-36q5 109 59.5 166.5t128.5 57.5q36 0 73 -11q84 -25 220.5 -83t191.5 -58q60 0 101.5 38.5t48.5 110.5z" />
    <glyph glyph-name="exclamdown" unicode="&#xa1;" horiz-adv-x="642" 
d="M433 788q34 0 58 -24t24 -59q0 -34 -24 -58t-58 -24q-35 0 -59 24t-24 58q0 35 24 59t59 24zM379 495h31q-40 -146 -56 -222.5t-36 -200.5q-40 -256 -49 -298q-16 -73 -52 -111q-18 -19 -48 -19q-22 0 -37.5 18t-15.5 47q0 35 15 86q34 113 131 364q46 119 50 132
q16 43 67 204z" />
    <glyph glyph-name="cent" unicode="&#xa2;" 
d="M684 178q-70 -97 -149.5 -142.5t-186.5 -54.5l-87 -284h-47l86 284q-97 10 -152.5 73t-55.5 161q0 179 127.5 331t302.5 183l96 320h45l-93 -320q94 0 135.5 -36t41.5 -95q0 -48 -25 -78t-58 -30q-26 0 -42 15t-16 39q0 17 6.5 30t29 37t22.5 40q0 9 -7 17
q-11 13 -29 18.5t-69 5.5l-190 -636l34 -3q135 0 260 145zM326 66l184 617q-72 -32 -118 -74q-79 -75 -121 -174t-42 -201q0 -67 27 -111q21 -31 70 -57z" />
    <glyph glyph-name="sterling" unicode="&#xa3;" 
d="M464 597h217l-20 -68h-213q-45 -197 -110 -348q31 -12 77 -32q74 -33 115 -44.5t75 -11.5t64.5 16.5t56.5 48.5h36q-46 -91 -109 -137t-143 -46q-50 0 -95.5 20t-129.5 86q-35 -53 -72 -79.5t-75 -26.5q-42 0 -70.5 27t-28.5 70q0 54 45.5 95t113.5 41q12 0 28 -1t34 -3
q16 85 41 325h-186l20 68h177q67 306 180 423q91 94 217 94q70 0 113 -38.5t43 -89.5q0 -33 -20.5 -53.5t-49.5 -20.5q-32 0 -54 25q-12 14 -23 57.5t-19 53.5q-18 20 -41 20q-31 0 -56 -26q-38 -38 -72 -148q-14 -50 -66 -297zM234 117q-23 13 -42 19t-33 6
q-32 0 -54.5 -21t-22.5 -50q0 -24 15.5 -41t36.5 -17q26 0 52.5 23t47.5 81z" />
    <glyph glyph-name="currency" unicode="&#xa4;" 
d="M690 820l115 115l47 -46l-116 -114q83 -106 83 -226q0 -124 -83 -229l116 -116l-47 -45l-115 116q-108 -83 -217 -83q-71 0 -138.5 24.5t-99.5 58.5l-117 -116l-46 45l116 116q-82 95 -82 227q0 127 82 228l-116 114l46 46l117 -115q42 37 106.5 59.5t122.5 22.5
q56 0 117.5 -20.5t108.5 -61.5zM463 837q-122 0 -207 -85.5t-85 -206.5q0 -118 85.5 -203.5t205.5 -85.5t206 86t86 205q0 73 -39.5 144t-108.5 108.5t-143 37.5z" />
    <glyph glyph-name="yen" unicode="&#xa5;" 
d="M489 357h363l-16 -54h-363l-25 -80q-25 -87 -25 -129q0 -28 19 -42q25 -19 104 -22l-11 -30h-415l8 30q68 4 86 13q31 15 50 45q14 20 44 120l28 95h-347l16 54h348l51 168h-365l16 54h335l-99 324q-29 94 -53.5 122t-68.5 36l7 31h359l-9 -31q-70 0 -94.5 -19t-24.5 -49
q0 -34 20 -103l92 -311l222 305q72 101 72 135q0 14 -16 25q-23 15 -89 17l8 31h310l-8 -31q-47 -5 -86.5 -33t-105.5 -119l-242 -330h318l-16 -54h-341l-10 -15z" />
    <glyph glyph-name="brokenbar" unicode="&#xa6;" horiz-adv-x="453" 
d="M258 1145v-598h-67v598h67zM258 242v-598h-67v598h67z" />
    <glyph glyph-name="section" unicode="&#xa7;" 
d="M438 617q-52 69 -70.5 119t-18.5 107q0 121 79.5 202t192.5 81q92 0 155.5 -55.5t63.5 -113.5q0 -25 -20 -47q-13 -16 -37 -16t-38.5 16.5t-23.5 72.5t-36 77q-40 32 -91 32q-69 0 -121.5 -52.5t-52.5 -125.5q0 -63 23.5 -112t111 -146t120.5 -173q22 -52 22 -113
q0 -91 -58 -150t-141 -59q-34 0 -78 18q57 -80 77 -130.5t20 -104.5q0 -116 -81 -197.5t-199 -81.5q-107 0 -173.5 59t-66.5 130q0 29 17 48t37 19q22 0 41 -19.5t28 -71.5q11 -70 48 -101q36 -32 93 -32q75 0 129.5 51.5t54.5 125.5q0 54 -21.5 105t-82.5 122
q-116 135 -144 192.5t-28 126.5q0 93 56.5 149.5t146.5 56.5q28 0 66 -9zM365 598q-51 0 -87 -35t-36 -82q0 -105 86.5 -198t172.5 -93q45 0 79.5 35t34.5 84q0 70 -40 141.5t-99 109.5t-111 38z" />
    <glyph glyph-name="dieresis" unicode="&#xa8;" horiz-adv-x="549" 
d="M588 1079q37 0 62 -25.5t25 -61.5t-25 -61t-62 -25q-35 0 -60.5 25t-25.5 61t25 61.5t61 25.5zM302 1079q36 0 61.5 -25.5t25.5 -61.5t-25.5 -61t-61.5 -25t-61 25t-25 61t25 61.5t61 25.5z" />
    <glyph glyph-name="copyright" unicode="&#xa9;" horiz-adv-x="1253" 
d="M683 1117q144 0 280.5 -74t213.5 -211t77 -286q0 -148 -75.5 -284t-211.5 -211.5t-284 -75.5t-284 75.5t-211.5 211.5t-75.5 284q0 149 77 286t213.5 211t280.5 74zM683 1067q-132 0 -256.5 -67.5t-194.5 -192.5t-70 -261q0 -135 68.5 -259t192.5 -193.5t260 -69.5
q135 0 259.5 69.5t193 193.5t68.5 259q0 136 -70 261t-194.5 192.5t-256.5 67.5zM965 913l16 -226h-31q-29 96 -92 143t-152 47q-66 0 -117.5 -27t-84.5 -73q-24 -35 -40 -92t-16 -121q0 -170 73 -251t193 -81q157 0 251 130l30 -15q-112 -163 -308 -163q-161 0 -267 104
t-106 253q0 155 112.5 264t288.5 109q37 0 61.5 -5t87.5 -26q20 -6 30 -6q12 0 21 6.5t18 29.5h32z" />
    <glyph glyph-name="ordfeminine" unicode="&#xaa;" horiz-adv-x="455" 
d="M621 1117l-102 -328q-13 -41 -13 -57q0 -6 4 -11t10 -5q8 0 20 9q19 14 53 57l19 -11q-74 -103 -145 -103q-23 0 -34 11t-11 29q0 25 11 63l11 36q-69 -82 -124 -115q-43 -24 -82 -24q-40 0 -67.5 30t-27.5 80q0 74 48 158.5t117.5 132.5t122.5 48q34 0 54.5 -14.5
t33.5 -51.5l19 54zM438 1095q-60 0 -121 -77q-90 -114 -90 -222q0 -33 17.5 -52.5t42.5 -19.5q58 0 136.5 94.5t78.5 199.5q0 38 -17.5 57.5t-46.5 19.5z" />
    <glyph glyph-name="guillemotleft" unicode="&#xab;" 
d="M488 741l-274 -385l88 -381h-36l-198 381l377 385h43zM795 741l-273 -385l89 -381h-35l-200 381l376 385h43z" />
    <glyph glyph-name="logicalnot" unicode="&#xac;" horiz-adv-x="1113" 
d="M121 707h869v-327h-63v262h-806v65z" />
    <glyph glyph-name="uni00AD" unicode="&#xad;" horiz-adv-x="549" 
d="M493 411l-33 -107h-417l33 107h417z" />
    <glyph glyph-name="registered" unicode="&#xae;" horiz-adv-x="1253" 
d="M683 1117q144 0 280.5 -74t213.5 -211t77 -286q0 -148 -75.5 -284t-211.5 -211.5t-284 -75.5t-284 75.5t-211.5 211.5t-75.5 284q0 149 77 286t213.5 211t280.5 74zM683 1067q-132 0 -256.5 -67.5t-194.5 -192.5t-70 -261q0 -135 68.5 -259t192.5 -193.5t260 -69.5
q135 0 259.5 69.5t193 193.5t68.5 259q0 136 -70 261t-194.5 192.5t-256.5 67.5zM367 897h311q117 0 178 -53t61 -128q0 -61 -41.5 -107t-137.5 -71l168 -240q31 -43 55 -59q15 -10 43 -12v-27h-148l-237 326h-61v-248q5 -27 23 -39t72 -12v-27h-296v27q39 0 55 9.5t24 26.5
q5 13 5 75v421q0 60 -2 70q-6 19 -21 29t-51 10v29zM558 561q95 0 139 18.5t67 52t23 76.5q0 65 -45.5 109t-116.5 44q-30 0 -67 -13v-287z" />
    <glyph glyph-name="macron" unicode="&#xaf;" 
d="M1011 1177h-852v68h852v-68z" />
    <glyph glyph-name="degree" unicode="&#xb0;" horiz-adv-x="659" 
d="M418 1116q104 0 176 -72.5t72 -175.5q0 -102 -72.5 -174.5t-175.5 -72.5q-102 0 -174.5 72.5t-72.5 174.5q0 103 72 175.5t175 72.5zM418 1048q-75 0 -127.5 -52.5t-52.5 -126.5t52.5 -127t127.5 -53q74 0 126.5 53t52.5 127t-52 126.5t-127 52.5z" />
    <glyph glyph-name="plusminus" unicode="&#xb1;" horiz-adv-x="905" 
d="M43 114v65h401v336h-401v66h401v400h64v-400h402v-66h-402v-336h403l-1 -65h-867z" />
    <glyph glyph-name="twosuperior" unicode="&#xb2;" horiz-adv-x="494" 
d="M427 533h-338v22q250 188 326 293q35 47 35 98q0 41 -26.5 67t-70.5 26q-65 0 -109 -59l-31 13q24 57 73.5 89t108.5 32q69 0 112 -40t43 -94q0 -28 -13 -59t-59 -84t-121 -116l-145 -118h142q71 0 93 51h38z" />
    <glyph glyph-name="threesuperior" unicode="&#xb3;" horiz-adv-x="494" 
d="M223 838v21q121 15 176 60q36 28 36 68q0 31 -20.5 51t-51.5 20q-47 0 -89 -59l-34 9q54 106 159 106q63 0 99.5 -32t36.5 -77q0 -36 -27 -66q-35 -41 -108 -68q90 -43 90 -131q0 -83 -74.5 -150.5t-189.5 -67.5q-65 0 -99 22q-21 14 -21 31q0 16 14 28t39 12
q23 0 60 -18q53 -25 84 -25q29 0 53 31q33 42 33 98q0 58 -41 96t-125 41z" />
    <glyph glyph-name="acute" unicode="&#xb4;" horiz-adv-x="549" 
d="M593 1129l-236 -277h-28l83 277h181z" />
    <glyph glyph-name="mu1" unicode="&#xb5;" horiz-adv-x="950" 
d="M294 709h122l-118 -410q-27 -93 -30.5 -110.5t-3.5 -36.5q0 -48 22 -72t57 -24t93.5 43.5t139.5 174.5q18 40 44 129l89 306h122l-135 -465l-22 -77q-4 -23 -4 -45q0 -32 13 -47.5t33 -15.5q23 0 45 17q29 25 65 97h29q-23 -70 -95 -131t-109 -61q-43 0 -74 31.5
t-31 86.5q0 24 4 64q-63 -92 -133.5 -137t-125.5 -45q-49 0 -85 24q-22 16 -46 63q-22 -75 -30.5 -120.5t-19.5 -167.5q-7 -78 -30.5 -106.5t-56.5 -28.5q-27 0 -41 15q-19 21 -19 48q0 19 7.5 40t54.5 111q27 52 50 115t63 199z" />
    <glyph glyph-name="paragraph" unicode="&#xb6;" horiz-adv-x="862" 
d="M741 1047v-1403h-58v1403h-151v-1403h-59v840q-153 6 -229.5 40.5t-116.5 105.5t-40 160q0 88 35 145q46 77 124 117t203 40h399v-45h-107z" />
    <glyph glyph-name="uni00B7" unicode="&#xb7;" horiz-adv-x="412" 
d="M206 635q38 0 63.5 -26t25.5 -63t-26 -63.5t-63 -26.5t-63 26.5t-26 63.5t26 63t63 26z" />
    <glyph glyph-name="cedilla" unicode="&#xb8;" horiz-adv-x="549" 
d="M209 24l-36 -61q48 -10 73.5 -41.5t25.5 -76.5q0 -53 -45 -92q-61 -51 -143 -51q-45 0 -114 18l10 26q40 -9 69 -9q52 0 80.5 24.5t28.5 58.5q0 30 -17 45q-23 18 -68 19l89 140h47z" />
    <glyph glyph-name="onesuperior" unicode="&#xb9;" horiz-adv-x="494" 
d="M502 1114l-156 -472q-13 -37 -13 -54q0 -15 8 -20q11 -9 41 -9q8 0 22 -1l-8 -25h-265l11 25q57 1 71 12q20 16 41 80l111 330q12 36 12 50q0 12 -6.5 17.5t-18.5 5.5q-11 0 -45 -6l-11 24z" />
    <glyph glyph-name="ordmasculine" unicode="&#xba;" horiz-adv-x="511" 
d="M648 968q0 -118 -92.5 -209t-210.5 -91q-73 0 -117 43t-44 108q0 112 94.5 205t209.5 93q71 0 115.5 -42.5t44.5 -106.5zM561 999q0 44 -23.5 68.5t-62.5 24.5q-77 0 -141 -103t-64 -201q0 -45 24.5 -70.5t64.5 -25.5q72 0 137 101t65 206z" />
    <glyph glyph-name="guillemotright" unicode="&#xbb;" 
d="M336 -25l275 384l-89 382h36l200 -382l-378 -384h-44zM30 -25l273 384l-89 382h36l199 -382l-377 -384h-42z" />
    <glyph glyph-name="onequarter" unicode="&#xbc;" horiz-adv-x="1236" 
d="M1069 1114l-752 -1158h-72l753 1158h71zM500 1114l-155 -472q-13 -37 -13 -54q0 -15 8 -20q10 -9 40 -9q8 0 23 -1l-9 -25h-264l11 25q56 1 70 12q21 16 42 80l110 330q12 36 12 50q0 12 -6.5 17.5t-18.5 5.5q-11 0 -45 -6l-10 24zM1154 534l-130 -370h84l-21 -59h-78
l-50 -149h-84l50 149h-238l23 64l390 365h54zM1024 403l-251 -239h171z" />
    <glyph glyph-name="onehalf" unicode="&#xbd;" horiz-adv-x="1236" 
d="M1030 1114l-752 -1158h-72l753 1158h71zM500 1114l-155 -472q-13 -37 -13 -54q0 -15 8 -20q10 -9 40 -9q8 0 23 -1l-9 -25h-264l11 25q56 1 70 12q21 16 42 80l110 330q12 36 12 50q0 12 -6.5 17.5t-18.5 5.5q-11 0 -45 -6l-10 24zM1012 -35h-338v22q249 188 327 294
q33 47 33 97q0 41 -26 67.5t-71 26.5q-35 0 -60 -14t-49 -45l-30 13q25 56 73.5 88.5t108.5 32.5q68 0 111 -40t43 -95q0 -27 -13 -58.5t-58.5 -84t-119.5 -115.5l-147 -119h143q71 0 93 52h38z" />
    <glyph glyph-name="threequarters" unicode="&#xbe;" horiz-adv-x="1236" 
d="M221 838v21q121 15 177 60q35 28 35 68q0 31 -20 51t-52 20q-47 0 -89 -59l-34 9q54 106 160 106q62 0 98.5 -32t36.5 -77q0 -36 -27 -66q-34 -41 -108 -68q91 -43 91 -131q0 -83 -74.5 -150.5t-189.5 -67.5q-66 0 -99 22q-21 14 -21 31q0 16 14 28t38 12q23 0 60 -18
q53 -25 84 -25q29 0 53 31q33 42 33 98q0 58 -41 96t-125 41zM1059 1114l-751 -1158h-73l754 1158h70zM1154 534l-130 -370h84l-21 -59h-78l-50 -149h-84l50 149h-238l23 64l390 365h54zM1024 403l-251 -239h171z" />
    <glyph glyph-name="questiondown" unicode="&#xbf;" 
d="M573 786q35 0 58.5 -23.5t23.5 -58.5q0 -33 -24 -57t-58 -24t-58 24t-24 57q0 35 24 58.5t58 23.5zM525 493h30q-11 -102 -48.5 -176t-157.5 -202q-101 -107 -136 -178q-25 -51 -25 -104q0 -64 45 -108t116 -44q68 0 111 29q24 16 24 39q0 16 -13.5 44.5t-13.5 47.5
q0 27 19.5 45t47.5 18t48 -20t20 -52q0 -44 -29.5 -87.5t-89.5 -72t-138 -28.5q-124 0 -200 70t-76 160q0 71 35 124q47 70 177.5 159.5t179.5 157.5t74 178z" />
    <glyph glyph-name="Agrave" unicode="&#xc0;" horiz-adv-x="1007" 
d="M849 1117l-83 -909q-6 -63 -6 -83q0 -32 12 -49q15 -24 41.5 -35t88.5 -11l-9 -30h-430l9 30h18q53 0 86 22q23 16 36 51q9 25 17 118l13 138h-313l-111 -151q-38 -50 -47.5 -72t-9.5 -42q0 -26 21 -44.5t69 -19.5l-9 -30h-323l9 30q60 2 105.5 39.5t135.5 159.5l652 888
h28zM690 848l-316 -430h274zM875 1451l87 -277h-25l-240 277h178z" />
    <glyph glyph-name="Aacute" unicode="&#xc1;" horiz-adv-x="1007" 
d="M849 1117l-83 -909q-6 -63 -6 -83q0 -32 12 -49q15 -24 41.5 -35t88.5 -11l-9 -30h-430l9 30h18q53 0 86 22q23 16 36 51q9 25 17 118l13 138h-313l-111 -151q-38 -50 -47.5 -72t-9.5 -42q0 -26 21 -44.5t69 -19.5l-9 -30h-323l9 30q60 2 105.5 39.5t135.5 159.5l652 888
h28zM690 848l-316 -430h274zM1019 1451l-236 -277h-28l83 277h181z" />
    <glyph glyph-name="Acircumflex" unicode="&#xc2;" horiz-adv-x="1007" 
d="M849 1117l-83 -909q-6 -63 -6 -83q0 -32 12 -49q15 -24 41.5 -35t88.5 -11l-9 -30h-430l9 30h18q53 0 86 22q23 16 36 51q9 25 17 118l13 138h-313l-111 -151q-38 -50 -47.5 -72t-9.5 -42q0 -26 21 -44.5t69 -19.5l-9 -30h-323l9 30q60 2 105.5 39.5t135.5 159.5l652 888
h28zM690 848l-316 -430h274zM963 1424l60 -255h-17l-136 163l-257 -163h-22l251 255h121z" />
    <glyph glyph-name="Atilde" unicode="&#xc3;" horiz-adv-x="1007" 
d="M849 1117l-83 -909q-6 -63 -6 -83q0 -32 12 -49q15 -24 41.5 -35t88.5 -11l-9 -30h-430l9 30h18q53 0 86 22q23 16 36 51q9 25 17 118l13 138h-313l-111 -151q-38 -50 -47.5 -72t-9.5 -42q0 -26 21 -44.5t69 -19.5l-9 -30h-323l9 30q60 2 105.5 39.5t135.5 159.5l652 888
h28zM690 848l-316 -430h274zM1075 1395h24q0 -103 -44 -157t-104 -54q-59 0 -135.5 49t-94.5 57q-14 7 -32 7q-29 0 -47.5 -21t-29.5 -89h-26q6 113 48.5 161.5t103.5 48.5q58 0 143 -56.5t117 -56.5q28 0 46 21q23 26 31 90z" />
    <glyph glyph-name="Adieresis" unicode="&#xc4;" horiz-adv-x="1007" 
d="M849 1117l-83 -909q-6 -63 -6 -83q0 -32 12 -49q15 -24 41.5 -35t88.5 -11l-9 -30h-430l9 30h18q53 0 86 22q23 16 36 51q9 25 17 118l13 138h-313l-111 -151q-38 -50 -47.5 -72t-9.5 -42q0 -26 21 -44.5t69 -19.5l-9 -30h-323l9 30q60 2 105.5 39.5t135.5 159.5l652 888
h28zM690 848l-316 -430h274zM1016 1378q37 0 62 -25.5t25 -61.5t-25 -61t-62 -25q-35 0 -60.5 25t-25.5 61t25 61.5t61 25.5zM730 1378q36 0 61.5 -25.5t25.5 -61.5t-25.5 -61t-61.5 -25t-61 25t-25 61t25 61.5t61 25.5z" />
    <glyph glyph-name="Aring" unicode="&#xc5;" horiz-adv-x="1007" 
d="M849 1117l-83 -909q-6 -63 -6 -83q0 -32 12 -49q15 -24 41.5 -35t88.5 -11l-9 -30h-430l9 30h18q53 0 86 22q23 16 36 51q9 25 17 118l13 138h-313l-111 -151q-38 -50 -47.5 -72t-9.5 -42q0 -26 21 -44.5t69 -19.5l-9 -30h-323l9 30q60 2 105.5 39.5t135.5 159.5l652 888
h28zM690 848l-316 -430h274zM847 1386q63 0 107.5 -44.5t44.5 -107.5t-44.5 -107.5t-107.5 -44.5t-107.5 44.5t-44.5 107.5t44 107.5t108 44.5zM848 1334q-42 0 -71.5 -29t-29.5 -71q0 -41 29.5 -70.5t71.5 -29.5q41 0 70 29.5t29 70.5q0 42 -28.5 71t-70.5 29z" />
    <glyph glyph-name="AE" unicode="&#xc6;" horiz-adv-x="1466" 
d="M885 547l-109 -372q-14 -52 -14 -70q0 -17 17 -32.5t53 -15.5h97q278 0 400 247h31l-105 -304h-804l8 30q71 0 104 23q46 32 74 127l61 209h-336l-116 -144q-63 -78 -81 -112q-11 -22 -11 -44q0 -25 20 -41.5t72 -17.5l-9 -30h-324l8 30q50 4 91 30t133 140l572 713
q42 51 51.5 70.5t9.5 35.5q0 12 -7 22t-22.5 15.5t-55.5 5.5l11 30h795l-67 -260h-34q8 39 8 66q0 39 -21 66q-27 37 -80 58q-40 16 -166 16h-113l-126 -434h80q100 0 145 29q64 39 95 127h35l-116 -397h-33q15 56 15 89q0 52 -41 78q-27 17 -120 17h-75zM717 450l168 588
l-475 -588h307z" />
    <glyph glyph-name="Ccedilla" unicode="&#xc7;" horiz-adv-x="1100" 
d="M1160 1117l-81 -354h-29l-3 89q-5 48 -19.5 86t-43 65.5t-73 43.5t-98.5 16q-144 0 -252 -79q-138 -101 -216 -284q-64 -152 -64 -307q0 -159 92.5 -253.5t240.5 -94.5q112 0 199.5 50t162.5 154h37q-88 -141 -196 -207.5t-258 -66.5q-134 0 -237 56t-157 157.5
t-54 218.5q0 178 96 347t263 266t337 97q79 0 178 -38q44 -16 63 -16t33.5 8t48.5 46h30zM594 24l-36 -61q48 -10 73.5 -41.5t25.5 -76.5q0 -53 -45 -92q-61 -51 -143 -51q-45 0 -114 18l10 26q40 -9 69 -9q52 0 80.5 24.5t28.5 58.5q0 30 -17 45q-23 18 -68 19l89 140h47z
" />
    <glyph glyph-name="Egrave" unicode="&#xc8;" horiz-adv-x="1007" 
d="M534 1033l-125 -432h102q110 0 159 33.5t84 123.5h30l-112 -396h-32q14 50 14 86q0 34 -14 55t-38.5 31t-103.5 10h-104l-105 -361q-15 -53 -15 -80q0 -21 20 -37q14 -11 68 -11h97q157 0 251.5 55.5t169.5 192.5h30l-103 -303h-844l10 30q63 1 85 11q32 15 47 37
q21 33 51 139l192 658q22 80 22 122q0 30 -21 47.5t-83 17.5h-17l9 30h784l-67 -264h-30q6 37 6 62q0 43 -21 72q-28 37 -80 56q-39 15 -178 15h-138zM719 1451l87 -277h-25l-240 277h178z" />
    <glyph glyph-name="Eacute" unicode="&#xc9;" horiz-adv-x="1007" 
d="M534 1033l-125 -432h102q110 0 159 33.5t84 123.5h30l-112 -396h-32q14 50 14 86q0 34 -14 55t-38.5 31t-103.5 10h-104l-105 -361q-15 -53 -15 -80q0 -21 20 -37q14 -11 68 -11h97q157 0 251.5 55.5t169.5 192.5h30l-103 -303h-844l10 30q63 1 85 11q32 15 47 37
q21 33 51 139l192 658q22 80 22 122q0 30 -21 47.5t-83 17.5h-17l9 30h784l-67 -264h-30q6 37 6 62q0 43 -21 72q-28 37 -80 56q-39 15 -178 15h-138zM825 1451l-236 -277h-28l83 277h181z" />
    <glyph glyph-name="Ecircumflex" unicode="&#xca;" horiz-adv-x="1007" 
d="M534 1033l-125 -432h102q110 0 159 33.5t84 123.5h30l-112 -396h-32q14 50 14 86q0 34 -14 55t-38.5 31t-103.5 10h-104l-105 -361q-15 -53 -15 -80q0 -21 20 -37q14 -11 68 -11h97q157 0 251.5 55.5t169.5 192.5h30l-103 -303h-844l10 30q63 1 85 11q32 15 47 37
q21 33 51 139l192 658q22 80 22 122q0 30 -21 47.5t-83 17.5h-17l9 30h784l-67 -264h-30q6 37 6 62q0 43 -21 72q-28 37 -80 56q-39 15 -178 15h-138zM846 1424l60 -255h-17l-136 163l-257 -163h-22l251 255h121z" />
    <glyph glyph-name="Edieresis" unicode="&#xcb;" horiz-adv-x="1007" 
d="M534 1033l-125 -432h102q110 0 159 33.5t84 123.5h30l-112 -396h-32q14 50 14 86q0 34 -14 55t-38.5 31t-103.5 10h-104l-105 -361q-15 -53 -15 -80q0 -21 20 -37q14 -11 68 -11h97q157 0 251.5 55.5t169.5 192.5h30l-103 -303h-844l10 30q63 1 85 11q32 15 47 37
q21 33 51 139l192 658q22 80 22 122q0 30 -21 47.5t-83 17.5h-17l9 30h784l-67 -264h-30q6 37 6 62q0 43 -21 72q-28 37 -80 56q-39 15 -178 15h-138zM858 1378q37 0 62 -25.5t25 -61.5t-25 -61t-62 -25q-35 0 -60.5 25t-25.5 61t25 61.5t61 25.5zM572 1378q36 0 61.5 -25.5
t25.5 -61.5t-25.5 -61t-61.5 -25t-61 25t-25 61t25 61.5t61 25.5z" />
    <glyph glyph-name="Igrave" unicode="&#xcc;" horiz-adv-x="549" 
d="M407 30l-9 -30h-450l12 30q67 1 89 11q36 14 52 38q27 38 55 135l190 659q24 82 24 124q0 21 -10.5 35.5t-31.5 22t-83 7.5l9 30h422l-9 -30q-51 1 -76 -11q-36 -17 -55 -46.5t-49 -131.5l-189 -659q-26 -91 -26 -116q0 -20 10 -34t32 -21.5t93 -12.5zM536 1451l87 -277
h-25l-240 277h178z" />
    <glyph glyph-name="Iacute" unicode="&#xcd;" horiz-adv-x="549" 
d="M407 30l-9 -30h-450l12 30q67 1 89 11q36 14 52 38q27 38 55 135l190 659q24 82 24 124q0 21 -10.5 35.5t-31.5 22t-83 7.5l9 30h422l-9 -30q-51 1 -76 -11q-36 -17 -55 -46.5t-49 -131.5l-189 -659q-26 -91 -26 -116q0 -20 10 -34t32 -21.5t93 -12.5zM670 1451
l-236 -277h-28l83 277h181z" />
    <glyph glyph-name="Icircumflex" unicode="&#xce;" horiz-adv-x="549" 
d="M407 30l-9 -30h-450l12 30q67 1 89 11q36 14 52 38q27 38 55 135l190 659q24 82 24 124q0 21 -10.5 35.5t-31.5 22t-83 7.5l9 30h422l-9 -30q-51 1 -76 -11q-36 -17 -55 -46.5t-49 -131.5l-189 -659q-26 -91 -26 -116q0 -20 10 -34t32 -21.5t93 -12.5zM634 1424l60 -255
h-17l-136 163l-257 -163h-22l251 255h121z" />
    <glyph glyph-name="Idieresis" unicode="&#xcf;" horiz-adv-x="549" 
d="M407 30l-9 -30h-450l12 30q67 1 89 11q36 14 52 38q27 38 55 135l190 659q24 82 24 124q0 21 -10.5 35.5t-31.5 22t-83 7.5l9 30h422l-9 -30q-51 1 -76 -11q-36 -17 -55 -46.5t-49 -131.5l-189 -659q-26 -91 -26 -116q0 -20 10 -34t32 -21.5t93 -12.5zM649 1378
q37 0 62 -25.5t25 -61.5t-25 -61t-62 -25q-35 0 -60.5 25t-25.5 61t25 61.5t61 25.5zM363 1378q36 0 61.5 -25.5t25.5 -61.5t-25.5 -61t-61.5 -25t-61 25t-25 61t25 61.5t61 25.5z" />
    <glyph glyph-name="Eth" unicode="&#xd0;" horiz-adv-x="1191" 
d="M-39 0l8 27q58 4 66 6q23 6 46 23q16 12 28 34q17 32 44 123l97 332h-144l19 60h142l80 271q23 80 23 112t-24.5 51.5t-99.5 20.5l8 32h354q224 0 329.5 -51t170.5 -161.5t65 -232.5q0 -105 -37.5 -207t-83 -162t-125.5 -122q-108 -84 -222 -120t-285 -36h-459zM535 1033
l-124 -428h297l-16 -60h-298l-96 -332q-28 -95 -28 -114q0 -11 8.5 -23t22.5 -16q21 -7 68 -7q127 0 236 26t179 78q98 75 157.5 204t59.5 292q0 191 -93 286.5t-269 95.5q-42 0 -104 -2z" />
    <glyph glyph-name="Ntilde" unicode="&#xd1;" horiz-adv-x="1100" 
d="M473 1092l337 -856l183 639q22 79 22 122q0 30 -21 47t-78 17q-10 0 -20 1l9 30h351l-10 -30q-55 1 -81 -11q-38 -17 -57 -44q-25 -38 -52 -132l-257 -900h-29l-363 921l-194 -680q-21 -78 -21 -119q0 -30 19.5 -46t93.5 -21l-8 -30h-343l11 30q65 1 87 11q33 15 49 38
q23 35 52 137l216 759q-31 48 -67 66t-111 21l9 30h273zM1010 1395h24q0 -103 -44 -157t-104 -54q-59 0 -135.5 49t-94.5 57q-14 7 -32 7q-29 0 -47.5 -21t-29.5 -89h-26q6 113 48.5 161.5t103.5 48.5q58 0 143 -56.5t117 -56.5q28 0 46 21q23 26 31 90z" />
    <glyph glyph-name="Ograve" unicode="&#xd2;" horiz-adv-x="1191" 
d="M812 1117q109 0 192.5 -47.5t131 -139.5t47.5 -191q0 -175 -101.5 -368t-266 -294.5t-339.5 -101.5q-127 0 -211.5 56t-125.5 147.5t-41 178.5q0 153 74 302t176 249.5t218 154.5t246 54zM785 1065q-81 0 -157.5 -40t-152.5 -130.5t-136 -236.5q-74 -181 -74 -341
q0 -114 58.5 -202t180.5 -88q73 0 143.5 36t147.5 124q95 110 160.5 281t65.5 319q0 110 -59 194t-177 84zM892 1451l87 -277h-25l-240 277h178z" />
    <glyph glyph-name="Oacute" unicode="&#xd3;" horiz-adv-x="1191" 
d="M812 1117q109 0 192.5 -47.5t131 -139.5t47.5 -191q0 -175 -101.5 -368t-266 -294.5t-339.5 -101.5q-127 0 -211.5 56t-125.5 147.5t-41 178.5q0 153 74 302t176 249.5t218 154.5t246 54zM785 1065q-81 0 -157.5 -40t-152.5 -130.5t-136 -236.5q-74 -181 -74 -341
q0 -114 58.5 -202t180.5 -88q73 0 143.5 36t147.5 124q95 110 160.5 281t65.5 319q0 110 -59 194t-177 84zM1046 1451l-236 -277h-28l83 277h181z" />
    <glyph glyph-name="Ocircumflex" unicode="&#xd4;" horiz-adv-x="1191" 
d="M812 1117q109 0 192.5 -47.5t131 -139.5t47.5 -191q0 -175 -101.5 -368t-266 -294.5t-339.5 -101.5q-127 0 -211.5 56t-125.5 147.5t-41 178.5q0 153 74 302t176 249.5t218 154.5t246 54zM785 1065q-81 0 -157.5 -40t-152.5 -130.5t-136 -236.5q-74 -181 -74 -341
q0 -114 58.5 -202t180.5 -88q73 0 143.5 36t147.5 124q95 110 160.5 281t65.5 319q0 110 -59 194t-177 84zM981 1424l60 -255h-17l-136 163l-257 -163h-22l251 255h121z" />
    <glyph glyph-name="Otilde" unicode="&#xd5;" horiz-adv-x="1191" 
d="M812 1117q109 0 192.5 -47.5t131 -139.5t47.5 -191q0 -175 -101.5 -368t-266 -294.5t-339.5 -101.5q-127 0 -211.5 56t-125.5 147.5t-41 178.5q0 153 74 302t176 249.5t218 154.5t246 54zM785 1065q-81 0 -157.5 -40t-152.5 -130.5t-136 -236.5q-74 -181 -74 -341
q0 -114 58.5 -202t180.5 -88q73 0 143.5 36t147.5 124q95 110 160.5 281t65.5 319q0 110 -59 194t-177 84zM1078 1395h24q0 -103 -44 -157t-104 -54q-59 0 -135.5 49t-94.5 57q-14 7 -32 7q-29 0 -47.5 -21t-29.5 -89h-26q6 113 48.5 161.5t103.5 48.5q58 0 143 -56.5
t117 -56.5q28 0 46 21q23 26 31 90z" />
    <glyph glyph-name="Odieresis" unicode="&#xd6;" horiz-adv-x="1191" 
d="M812 1117q109 0 192.5 -47.5t131 -139.5t47.5 -191q0 -175 -101.5 -368t-266 -294.5t-339.5 -101.5q-127 0 -211.5 56t-125.5 147.5t-41 178.5q0 153 74 302t176 249.5t218 154.5t246 54zM785 1065q-81 0 -157.5 -40t-152.5 -130.5t-136 -236.5q-74 -181 -74 -341
q0 -114 58.5 -202t180.5 -88q73 0 143.5 36t147.5 124q95 110 160.5 281t65.5 319q0 110 -59 194t-177 84zM1015 1378q37 0 62 -25.5t25 -61.5t-25 -61t-62 -25q-35 0 -60.5 25t-25.5 61t25 61.5t61 25.5zM729 1378q36 0 61.5 -25.5t25.5 -61.5t-25.5 -61t-61.5 -25t-61 25
t-25 61t25 61.5t61 25.5z" />
    <glyph glyph-name="multiply" unicode="&#xd7;" horiz-adv-x="1113" 
d="M304 264l284 284l-283 284l47 46l283 -283l284 283l45 -46l-284 -283l285 -285l-46 -47l-285 285l-284 -284z" />
    <glyph glyph-name="Oslash" unicode="&#xd8;" horiz-adv-x="1191" 
d="M1065 1025l107 111l44 -44l-110 -112q78 -117 78 -241q0 -175 -103.5 -365.5t-271.5 -294.5t-332 -104q-142 0 -252 91l-123 -124l-44 39l126 130q-46 64 -65 120.5t-19 125.5q0 182 106.5 368.5t271 289t328.5 102.5q87 0 159 -29q49 -19 100 -63zM986 942
q-29 59 -70 85q-56 36 -132 36q-79 0 -143 -33q-88 -45 -167.5 -138t-143.5 -254t-64 -322q0 -44 15 -105zM1009 880l-705 -733q65 -117 201 -117q75 0 144 35.5t152.5 131.5t152 265.5t68.5 325.5q0 38 -13 92z" />
    <glyph glyph-name="Ugrave" unicode="&#xd9;" horiz-adv-x="1191" 
d="M216 1092h461l-9 -30q-71 -2 -101 -13.5t-51.5 -41.5t-44.5 -110l-112 -387q-30 -103 -35 -135q-10 -51 -10 -96q0 -97 72.5 -164.5t193.5 -67.5q80 0 143 30.5t107.5 85t81.5 147.5t65 187l97 334q36 125 36 162q0 27 -24.5 46t-99.5 23l9 30h347l-9 -30q-61 0 -88 -12
t-47 -42t-45 -117l-119 -405q-57 -197 -107.5 -291t-147 -157t-238.5 -63q-164 0 -265 93t-101 213q0 47 9 101q7 36 32 123l108 371q22 80 22 118q0 30 -23 46.5t-115 21.5zM891 1451l87 -277h-25l-240 277h178z" />
    <glyph glyph-name="Uacute" unicode="&#xda;" horiz-adv-x="1191" 
d="M216 1092h461l-9 -30q-71 -2 -101 -13.5t-51.5 -41.5t-44.5 -110l-112 -387q-30 -103 -35 -135q-10 -51 -10 -96q0 -97 72.5 -164.5t193.5 -67.5q80 0 143 30.5t107.5 85t81.5 147.5t65 187l97 334q36 125 36 162q0 27 -24.5 46t-99.5 23l9 30h347l-9 -30q-61 0 -88 -12
t-47 -42t-45 -117l-119 -405q-57 -197 -107.5 -291t-147 -157t-238.5 -63q-164 0 -265 93t-101 213q0 47 9 101q7 36 32 123l108 371q22 80 22 118q0 30 -23 46.5t-115 21.5zM993 1451l-236 -277h-28l83 277h181z" />
    <glyph glyph-name="Ucircumflex" unicode="&#xdb;" horiz-adv-x="1191" 
d="M216 1092h461l-9 -30q-71 -2 -101 -13.5t-51.5 -41.5t-44.5 -110l-112 -387q-30 -103 -35 -135q-10 -51 -10 -96q0 -97 72.5 -164.5t193.5 -67.5q80 0 143 30.5t107.5 85t81.5 147.5t65 187l97 334q36 125 36 162q0 27 -24.5 46t-99.5 23l9 30h347l-9 -30q-61 0 -88 -12
t-47 -42t-45 -117l-119 -405q-57 -197 -107.5 -291t-147 -157t-238.5 -63q-164 0 -265 93t-101 213q0 47 9 101q7 36 32 123l108 371q22 80 22 118q0 30 -23 46.5t-115 21.5zM956 1424l60 -255h-17l-136 163l-257 -163h-22l251 255h121z" />
    <glyph glyph-name="Udieresis" unicode="&#xdc;" horiz-adv-x="1191" 
d="M216 1092h461l-9 -30q-71 -2 -101 -13.5t-51.5 -41.5t-44.5 -110l-112 -387q-30 -103 -35 -135q-10 -51 -10 -96q0 -97 72.5 -164.5t193.5 -67.5q80 0 143 30.5t107.5 85t81.5 147.5t65 187l97 334q36 125 36 162q0 27 -24.5 46t-99.5 23l9 30h347l-9 -30q-61 0 -88 -12
t-47 -42t-45 -117l-119 -405q-57 -197 -107.5 -291t-147 -157t-238.5 -63q-164 0 -265 93t-101 213q0 47 9 101q7 36 32 123l108 371q22 80 22 118q0 30 -23 46.5t-115 21.5zM971 1378q37 0 62 -25.5t25 -61.5t-25 -61t-62 -25q-35 0 -60.5 25t-25.5 61t25 61.5t61 25.5z
M685 1378q36 0 61.5 -25.5t25.5 -61.5t-25.5 -61t-61.5 -25t-61 25t-25 61t25 61.5t61 25.5z" />
    <glyph glyph-name="Yacute" unicode="&#xdd;" horiz-adv-x="917" 
d="M576 580l208 291q81 114 81 145q0 18 -17.5 29.5t-98.5 16.5l8 30h343l-7 -30q-50 -7 -68 -14q-29 -12 -57 -38q-38 -34 -110 -133l-267 -368l-81 -270q-29 -101 -29 -140q0 -25 9 -38t32 -21q31 -9 94 -10l-8 -30h-460l10 30q68 1 91 11q36 15 54 39q27 37 56 133
l96 318l-117 377q-31 100 -57.5 124t-91.5 30l8 30h404l-10 -30q-76 -6 -86 -10q-18 -5 -29.5 -22t-11.5 -40q0 -33 24 -113zM889 1451l-236 -277h-28l83 277h181z" />
    <glyph glyph-name="Thorn" unicode="&#xde;" horiz-adv-x="1007" 
d="M309 246l-9 -32q-25 -92 -25 -116q0 -20 10.5 -35t35 -24t78.5 -9l-8 -30h-430l7 30q63 1 86 10q34 16 50 39q22 32 51 132l192 664q25 85 25 114q0 20 -11.5 36t-36.5 25t-74 9l8 33h427l-7 -33q-65 0 -95.5 -16t-51.5 -52q-16 -27 -49 -147h177q102 0 148 -13
q86 -25 138.5 -89t52.5 -154q0 -112 -80.5 -202t-174 -115t-322.5 -25h-112zM324 299h116q213 0 300.5 78.5t87.5 219.5q0 111 -66 160q-44 32 -141 32h-157z" />
    <glyph glyph-name="germandbls" unicode="&#xdf;" 
d="M423 667q132 0 207 95t75 208q0 57 -35.5 95t-85.5 38q-47 0 -85 -27t-74 -97q-23 -47 -69 -205l-154 -531l-100 -307q-26 -79 -46 -117q-29 -51 -71 -94t-82.5 -62t-77.5 -19q-38 0 -69 28q-21 18 -21 51q0 26 17 43t41 17q19 0 31.5 -12.5t12.5 -28.5q0 -11 -10 -29
q-8 -13 -8 -20q0 -6 5 -9q6 -6 19 -6q31 0 61 31q41 42 86 194l116 429l115 397q54 190 96 259.5t113 113t158 43.5q106 0 169.5 -61.5t63.5 -155.5q0 -80 -42.5 -141t-118.5 -100q-53 -26 -150 -43q83 -22 126 -52.5t70 -85t27 -116.5q0 -102 -51 -197.5t-133 -153.5
t-149 -58q-56 0 -93 38.5t-37 102.5q0 45 19 67t47 22q24 0 39.5 -15.5t15.5 -39.5q0 -25 -18 -63q-14 -27 -14 -39q0 -16 11.5 -27t28.5 -11q30 0 53 21q59 52 95 149q48 125 48 237q0 92 -60 153q-42 45 -121 58z" />
    <glyph glyph-name="agrave" unicode="&#xe0;" 
d="M774 729l-157 -546l-18 -74q-2 -10 -2 -17q0 -13 8 -23q6 -7 16 -7t27 13q31 23 84 96l27 -19q-55 -84 -114 -127.5t-109 -43.5q-34 0 -51.5 17t-17.5 50q0 40 18 104l17 61q-106 -138 -194 -193q-64 -39 -125 -39q-59 0 -101.5 48.5t-42.5 133.5q0 128 76.5 270.5
t195.5 227.5q92 68 174 68q50 0 82.5 -26t49.5 -86l29 92zM487 687q-51 0 -109 -49q-83 -68 -147 -202.5t-64 -243.5q0 -54 27.5 -86t63.5 -32q87 0 190 130q138 172 138 353q0 68 -26.5 99t-72.5 31zM586 1129l87 -277h-25l-240 277h178z" />
    <glyph glyph-name="aacute" unicode="&#xe1;" 
d="M774 729l-157 -546l-18 -74q-2 -10 -2 -17q0 -13 8 -23q6 -7 16 -7t27 13q31 23 84 96l27 -19q-55 -84 -114 -127.5t-109 -43.5q-34 0 -51.5 17t-17.5 50q0 40 18 104l17 61q-106 -138 -194 -193q-64 -39 -125 -39q-59 0 -101.5 48.5t-42.5 133.5q0 128 76.5 270.5
t195.5 227.5q92 68 174 68q50 0 82.5 -26t49.5 -86l29 92zM487 687q-51 0 -109 -49q-83 -68 -147 -202.5t-64 -243.5q0 -54 27.5 -86t63.5 -32q87 0 190 130q138 172 138 353q0 68 -26.5 99t-72.5 31zM731 1129l-236 -277h-28l83 277h181z" />
    <glyph glyph-name="acircumflex" unicode="&#xe2;" 
d="M774 729l-157 -546l-18 -74q-2 -10 -2 -17q0 -13 8 -23q6 -7 16 -7t27 13q31 23 84 96l27 -19q-55 -84 -114 -127.5t-109 -43.5q-34 0 -51.5 17t-17.5 50q0 40 18 104l17 61q-106 -138 -194 -193q-64 -39 -125 -39q-59 0 -101.5 48.5t-42.5 133.5q0 128 76.5 270.5
t195.5 227.5q92 68 174 68q50 0 82.5 -26t49.5 -86l29 92zM487 687q-51 0 -109 -49q-83 -68 -147 -202.5t-64 -243.5q0 -54 27.5 -86t63.5 -32q87 0 190 130q138 172 138 353q0 68 -26.5 99t-72.5 31zM713 1117l60 -255h-17l-136 163l-257 -163h-22l251 255h121z" />
    <glyph glyph-name="atilde" unicode="&#xe3;" 
d="M774 729l-157 -546l-18 -74q-2 -10 -2 -17q0 -13 8 -23q6 -7 16 -7t27 13q31 23 84 96l27 -19q-55 -84 -114 -127.5t-109 -43.5q-34 0 -51.5 17t-17.5 50q0 40 18 104l17 61q-106 -138 -194 -193q-64 -39 -125 -39q-59 0 -101.5 48.5t-42.5 133.5q0 128 76.5 270.5
t195.5 227.5q92 68 174 68q50 0 82.5 -26t49.5 -86l29 92zM487 687q-51 0 -109 -49q-83 -68 -147 -202.5t-64 -243.5q0 -54 27.5 -86t63.5 -32q87 0 190 130q138 172 138 353q0 68 -26.5 99t-72.5 31zM786 1098h24q0 -103 -44 -157t-104 -54q-59 0 -135.5 49t-94.5 57
q-14 7 -32 7q-29 0 -47.5 -21t-29.5 -89h-26q6 113 48.5 161.5t103.5 48.5q58 0 143 -56.5t117 -56.5q28 0 46 21q23 26 31 90z" />
    <glyph glyph-name="adieresis" unicode="&#xe4;" 
d="M774 729l-157 -546l-18 -74q-2 -10 -2 -17q0 -13 8 -23q6 -7 16 -7t27 13q31 23 84 96l27 -19q-55 -84 -114 -127.5t-109 -43.5q-34 0 -51.5 17t-17.5 50q0 40 18 104l17 61q-106 -138 -194 -193q-64 -39 -125 -39q-59 0 -101.5 48.5t-42.5 133.5q0 128 76.5 270.5
t195.5 227.5q92 68 174 68q50 0 82.5 -26t49.5 -86l29 92zM487 687q-51 0 -109 -49q-83 -68 -147 -202.5t-64 -243.5q0 -54 27.5 -86t63.5 -32q87 0 190 130q138 172 138 353q0 68 -26.5 99t-72.5 31zM728 1079q37 0 62 -25.5t25 -61.5t-25 -61t-62 -25q-35 0 -60.5 25
t-25.5 61t25 61.5t61 25.5zM442 1079q36 0 61.5 -25.5t25.5 -61.5t-25.5 -61t-61.5 -25t-61 25t-25 61t25 61.5t61 25.5z" />
    <glyph glyph-name="aring" unicode="&#xe5;" 
d="M774 729l-157 -546l-18 -74q-2 -10 -2 -17q0 -13 8 -23q6 -7 16 -7t27 13q31 23 84 96l27 -19q-55 -84 -114 -127.5t-109 -43.5q-34 0 -51.5 17t-17.5 50q0 40 18 104l17 61q-106 -138 -194 -193q-64 -39 -125 -39q-59 0 -101.5 48.5t-42.5 133.5q0 128 76.5 270.5
t195.5 227.5q92 68 174 68q50 0 82.5 -26t49.5 -86l29 92zM487 687q-51 0 -109 -49q-83 -68 -147 -202.5t-64 -243.5q0 -54 27.5 -86t63.5 -32q87 0 190 130q138 172 138 353q0 68 -26.5 99t-72.5 31zM596 1144q63 0 107.5 -44.5t44.5 -107.5t-44.5 -107.5t-107.5 -44.5
t-107.5 44.5t-44.5 107.5t44 107.5t108 44.5zM597 1092q-42 0 -71.5 -29t-29.5 -71q0 -41 29.5 -70.5t71.5 -29.5q41 0 70 29.5t29 70.5q0 42 -28.5 71t-70.5 29z" />
    <glyph glyph-name="ae" unicode="&#xe6;" horiz-adv-x="1100" 
d="M738 716l-19 -78q104 91 205 91q69 0 110 -35.5t41 -82.5t-30.5 -97t-82.5 -88t-140.5 -72t-187.5 -49q-10 -55 -10 -92q0 -72 37 -111.5t101 -39.5q54 0 109.5 29t127.5 105l21 -24q-71 -91 -156.5 -141t-161.5 -50q-89 0 -146 57t-57 146q0 23 3 58
q-110 -160 -157 -198q-79 -63 -164 -63q-60 0 -102.5 48.5t-42.5 137.5q0 124 80 268.5t197 228.5q90 65 168 65q54 0 85.5 -32.5t39.5 -110.5l28 113zM250 75q44 0 107 51q86 68 149.5 206t63.5 248q0 58 -23 84.5t-64 26.5q-102 0 -210.5 -185t-108.5 -319q0 -47 32 -86
q21 -26 54 -26zM642 345q172 37 251.5 116.5t79.5 149.5q0 30 -22.5 52.5t-51.5 22.5q-38 0 -91 -33.5t-91.5 -100.5t-74.5 -207z" />
    <glyph glyph-name="ccedilla" unicode="&#xe7;" horiz-adv-x="732" 
d="M637 175q-84 -100 -169.5 -147t-180.5 -47q-114 0 -178 64t-64 173q0 123 69 242.5t185 194t228 74.5q88 0 131.5 -37t43.5 -90q0 -50 -31 -85q-22 -28 -55 -28q-25 0 -41.5 16.5t-16.5 40.5q0 15 6 28t25 31t23 26t4 17q0 17 -15 28q-24 16 -66 16q-79 0 -156.5 -55.5
t-132.5 -157.5q-66 -124 -66 -248q0 -82 47 -130t127 -48q62 0 123 31t136 112zM364 24l-36 -61q48 -10 73.5 -41.5t25.5 -76.5q0 -53 -45 -92q-61 -51 -143 -51q-45 0 -114 18l10 26q40 -9 69 -9q52 0 80.5 24.5t28.5 58.5q0 30 -17 45q-23 18 -68 19l89 140h47z" />
    <glyph glyph-name="egrave" unicode="&#xe8;" horiz-adv-x="732" 
d="M196 303q-5 -40 -5 -66q0 -72 50.5 -122.5t123.5 -50.5q58 0 111.5 24t158.5 105l17 -23q-191 -189 -364 -189q-117 0 -176.5 74t-59.5 163q0 120 74 245.5t185.5 195.5t230.5 70q85 0 126 -35t41 -82q0 -67 -53 -128q-70 -80 -206 -129q-90 -33 -254 -52zM202 343
q119 14 194 47q99 44 148.5 105.5t49.5 117.5q0 33 -21.5 54t-60.5 21q-82 0 -174 -87t-136 -258zM545 1129l87 -277h-25l-240 277h178z" />
    <glyph glyph-name="eacute" unicode="&#xe9;" horiz-adv-x="732" 
d="M196 303q-5 -40 -5 -66q0 -72 50.5 -122.5t123.5 -50.5q58 0 111.5 24t158.5 105l17 -23q-191 -189 -364 -189q-117 0 -176.5 74t-59.5 163q0 120 74 245.5t185.5 195.5t230.5 70q85 0 126 -35t41 -82q0 -67 -53 -128q-70 -80 -206 -129q-90 -33 -254 -52zM202 343
q119 14 194 47q99 44 148.5 105.5t49.5 117.5q0 33 -21.5 54t-60.5 21q-82 0 -174 -87t-136 -258zM687 1129l-236 -277h-28l83 277h181z" />
    <glyph glyph-name="ecircumflex" unicode="&#xea;" horiz-adv-x="732" 
d="M196 303q-5 -40 -5 -66q0 -72 50.5 -122.5t123.5 -50.5q58 0 111.5 24t158.5 105l17 -23q-191 -189 -364 -189q-117 0 -176.5 74t-59.5 163q0 120 74 245.5t185.5 195.5t230.5 70q85 0 126 -35t41 -82q0 -67 -53 -128q-70 -80 -206 -129q-90 -33 -254 -52zM202 343
q119 14 194 47q99 44 148.5 105.5t49.5 117.5q0 33 -21.5 54t-60.5 21q-82 0 -174 -87t-136 -258zM670 1117l60 -255h-17l-136 163l-257 -163h-22l251 255h121z" />
    <glyph glyph-name="edieresis" unicode="&#xeb;" horiz-adv-x="732" 
d="M196 303q-5 -40 -5 -66q0 -72 50.5 -122.5t123.5 -50.5q58 0 111.5 24t158.5 105l17 -23q-191 -189 -364 -189q-117 0 -176.5 74t-59.5 163q0 120 74 245.5t185.5 195.5t230.5 70q85 0 126 -35t41 -82q0 -67 -53 -128q-70 -80 -206 -129q-90 -33 -254 -52zM202 343
q119 14 194 47q99 44 148.5 105.5t49.5 117.5q0 33 -21.5 54t-60.5 21q-82 0 -174 -87t-136 -258zM685 1079q37 0 62 -25.5t25 -61.5t-25 -61t-62 -25q-35 0 -60.5 25t-25.5 61t25 61.5t61 25.5zM399 1079q36 0 61.5 -25.5t25.5 -61.5t-25.5 -61t-61.5 -25t-61 25t-25 61
t25 61.5t61 25.5z" />
    <glyph glyph-name="igrave" unicode="&#xec;" horiz-adv-x="458" 
d="M379 729l-159 -565q-16 -57 -16 -68q0 -13 7.5 -21t17.5 -8q13 0 29 13q46 36 93 103l28 -19q-55 -83 -129 -141q-54 -42 -104 -42q-33 0 -54 19.5t-21 49.5t20 99l105 361q25 88 25 111q0 17 -12.5 28.5t-33.5 11.5q-18 0 -74 -9v31zM368 1129l87 -277h-25l-240 277h178
z" />
    <glyph glyph-name="iacute" unicode="&#xed;" horiz-adv-x="458" 
d="M379 729l-159 -565q-16 -57 -16 -68q0 -13 7.5 -21t17.5 -8q13 0 29 13q46 36 93 103l28 -19q-55 -83 -129 -141q-54 -42 -104 -42q-33 0 -54 19.5t-21 49.5t20 99l105 361q25 88 25 111q0 17 -12.5 28.5t-33.5 11.5q-18 0 -74 -9v31zM551 1129l-236 -277h-28l83 277h181
z" />
    <glyph glyph-name="icircumflex" unicode="&#xee;" horiz-adv-x="458" 
d="M379 729l-159 -565q-16 -57 -16 -68q0 -13 7.5 -21t17.5 -8q13 0 29 13q46 36 93 103l28 -19q-55 -83 -129 -141q-54 -42 -104 -42q-33 0 -54 19.5t-21 49.5t20 99l105 361q25 88 25 111q0 17 -12.5 28.5t-33.5 11.5q-18 0 -74 -9v31zM505 1117l60 -255h-17l-136 163
l-257 -163h-22l251 255h121z" />
    <glyph glyph-name="idieresis" unicode="&#xef;" horiz-adv-x="458" 
d="M379 729l-159 -565q-16 -57 -16 -68q0 -13 7.5 -21t17.5 -8q13 0 29 13q46 36 93 103l28 -19q-55 -83 -129 -141q-54 -42 -104 -42q-33 0 -54 19.5t-21 49.5t20 99l105 361q25 88 25 111q0 17 -12.5 28.5t-33.5 11.5q-18 0 -74 -9v31zM520 1079q37 0 62 -25.5t25 -61.5
t-25 -61t-62 -25q-35 0 -60.5 25t-25.5 61t25 61.5t61 25.5zM234 1079q36 0 61.5 -25.5t25.5 -61.5t-25.5 -61t-61.5 -25t-61 25t-25 61t25 61.5t61 25.5z" />
    <glyph glyph-name="eth" unicode="&#xf0;" 
d="M560 950l-177 -96l-22 40l179 96q-36 73 -76 127l23 24q63 -61 108 -122l177 98l22 -42l-171 -91q74 -123 108.5 -230.5t34.5 -221.5q0 -154 -70.5 -286t-181.5 -198.5t-221 -66.5q-105 0 -177 73t-72 188q0 107 68.5 226t182.5 190t202 71q39 0 67 -13.5t59 -48.5
q-3 84 -16 142t-47 141zM493 686q-57 0 -117 -48q-78 -65 -138 -196t-60 -262q0 -76 39 -118t96 -42q61 0 122 53q81 72 136.5 214t55.5 246q0 71 -38.5 112t-95.5 41z" />
    <glyph glyph-name="ntilde" unicode="&#xf1;" 
d="M364 729l-107 -367q150 225 230.5 296t154.5 71q40 0 66 -27t26 -69q0 -49 -23 -129l-98 -339q-17 -59 -17 -72q0 -11 6.5 -18.5t13.5 -7.5q9 0 23 10q43 34 94 103l25 -15q-75 -107 -142 -153q-47 -31 -84 -31q-30 0 -47.5 18t-17.5 48q0 39 27 133l94 324q17 60 17 94
q0 16 -10.5 26t-25.5 10q-22 0 -54 -19q-59 -36 -123.5 -119.5t-136.5 -212.5q-38 -69 -63 -150l-40 -133h-121l147 504q26 91 26 109t-14.5 31.5t-34.5 13.5q-10 0 -34 -4l-31 -4l-5 29zM786 1098h24q0 -103 -44 -157t-104 -54q-59 0 -135.5 49t-94.5 57q-14 7 -32 7
q-29 0 -47.5 -21t-29.5 -89h-26q6 113 48.5 161.5t103.5 48.5q58 0 143 -56.5t117 -56.5q28 0 46 21q23 26 31 90z" />
    <glyph glyph-name="ograve" unicode="&#xf2;" 
d="M762 477q0 -121 -64 -239.5t-178 -187.5t-222 -69q-110 0 -180 70.5t-70 181.5q0 119 68 238t182 188.5t220 69.5q107 0 175.5 -70.5t68.5 -181.5zM629 532q0 75 -37 115t-95 40q-118 0 -217.5 -169.5t-99.5 -337.5q0 -76 39 -117.5t97 -41.5q114 0 213.5 168.5
t99.5 342.5zM624 1129l87 -277h-25l-240 277h178z" />
    <glyph glyph-name="oacute" unicode="&#xf3;" 
d="M762 477q0 -121 -64 -239.5t-178 -187.5t-222 -69q-110 0 -180 70.5t-70 181.5q0 119 68 238t182 188.5t220 69.5q107 0 175.5 -70.5t68.5 -181.5zM629 532q0 75 -37 115t-95 40q-118 0 -217.5 -169.5t-99.5 -337.5q0 -76 39 -117.5t97 -41.5q114 0 213.5 168.5
t99.5 342.5zM731 1129l-236 -277h-28l83 277h181z" />
    <glyph glyph-name="ocircumflex" unicode="&#xf4;" 
d="M762 477q0 -121 -64 -239.5t-178 -187.5t-222 -69q-110 0 -180 70.5t-70 181.5q0 119 68 238t182 188.5t220 69.5q107 0 175.5 -70.5t68.5 -181.5zM629 532q0 75 -37 115t-95 40q-118 0 -217.5 -169.5t-99.5 -337.5q0 -76 39 -117.5t97 -41.5q114 0 213.5 168.5
t99.5 342.5zM713 1117l60 -255h-17l-136 163l-257 -163h-22l251 255h121z" />
    <glyph glyph-name="otilde" unicode="&#xf5;" 
d="M762 477q0 -121 -64 -239.5t-178 -187.5t-222 -69q-110 0 -180 70.5t-70 181.5q0 119 68 238t182 188.5t220 69.5q107 0 175.5 -70.5t68.5 -181.5zM629 532q0 75 -37 115t-95 40q-118 0 -217.5 -169.5t-99.5 -337.5q0 -76 39 -117.5t97 -41.5q114 0 213.5 168.5
t99.5 342.5zM786 1098h24q0 -103 -44 -157t-104 -54q-59 0 -135.5 49t-94.5 57q-14 7 -32 7q-29 0 -47.5 -21t-29.5 -89h-26q6 113 48.5 161.5t103.5 48.5q58 0 143 -56.5t117 -56.5q28 0 46 21q23 26 31 90z" />
    <glyph glyph-name="odieresis" unicode="&#xf6;" 
d="M762 477q0 -121 -64 -239.5t-178 -187.5t-222 -69q-110 0 -180 70.5t-70 181.5q0 119 68 238t182 188.5t220 69.5q107 0 175.5 -70.5t68.5 -181.5zM629 532q0 75 -37 115t-95 40q-118 0 -217.5 -169.5t-99.5 -337.5q0 -76 39 -117.5t97 -41.5q114 0 213.5 168.5
t99.5 342.5zM728 1079q37 0 62 -25.5t25 -61.5t-25 -61t-62 -25q-35 0 -60.5 25t-25.5 61t25 61.5t61 25.5zM442 1079q36 0 61.5 -25.5t25.5 -61.5t-25.5 -61t-61.5 -25t-61 25t-25 61t25 61.5t61 25.5z" />
    <glyph glyph-name="divide" unicode="&#xf7;" horiz-adv-x="905" 
d="M477 865q29 0 49.5 -20.5t20.5 -49.5t-20.5 -49.5t-50.5 -20.5q-29 0 -49.5 20.5t-20.5 49.5t20.5 49.5t50.5 20.5zM910 515h-867v66h867v-66zM477 366q29 0 49.5 -21t20.5 -50t-20.5 -49.5t-49.5 -20.5t-50 20.5t-21 49.5t20.5 50t50.5 21z" />
    <glyph glyph-name="oslash" unicode="&#xf8;" 
d="M774 777l32 -32l-98 -104q55 -80 55 -165q0 -123 -69 -244t-180 -186t-221 -65q-47 0 -82.5 13.5t-76.5 46.5l-99 -100l-31 34l98 100q-56 79 -56 156q0 116 70.5 237.5t186.5 191t223 69.5q42 0 75 -12t75 -42zM617 611q-29 44 -53.5 59.5t-65.5 15.5q-67 0 -128 -55
q-84 -75 -142 -224q-47 -120 -47 -219q0 -10 1 -29zM630 558l-435 -454q30 -50 56 -67t68 -17t82.5 22.5t89 85t94.5 181.5t46 221q0 6 -1 28z" />
    <glyph glyph-name="ugrave" unicode="&#xf9;" 
d="M776 709l-140 -480q-31 -107 -31 -135q0 -14 5 -21t14 -7q14 0 30.5 12.5t82.5 99.5l25 -19q-64 -100 -131 -148q-44 -30 -85 -30q-32 0 -49.5 17.5t-17.5 45.5t10 73q13 59 74 259q-137 -225 -229 -310t-171 -85q-37 0 -63 25.5t-26 65.5q0 60 35 185l71 249
q25 89 25 111q0 9 -6.5 16t-14.5 7q-17 0 -34 -12t-77 -89l-25 17q61 94 128 138q52 35 95 35q30 0 49 -19t19 -49q0 -44 -32 -155l-76 -260q-31 -107 -31 -135q0 -15 10 -24.5t27 -9.5q26 0 69 26.5t114 118t117.5 171.5t98.5 255l18 61h122zM516 1129l87 -277h-25
l-240 277h178z" />
    <glyph glyph-name="uacute" unicode="&#xfa;" 
d="M776 709l-140 -480q-31 -107 -31 -135q0 -14 5 -21t14 -7q14 0 30.5 12.5t82.5 99.5l25 -19q-64 -100 -131 -148q-44 -30 -85 -30q-32 0 -49.5 17.5t-17.5 45.5t10 73q13 59 74 259q-137 -225 -229 -310t-171 -85q-37 0 -63 25.5t-26 65.5q0 60 35 185l71 249
q25 89 25 111q0 9 -6.5 16t-14.5 7q-17 0 -34 -12t-77 -89l-25 17q61 94 128 138q52 35 95 35q30 0 49 -19t19 -49q0 -44 -32 -155l-76 -260q-31 -107 -31 -135q0 -15 10 -24.5t27 -9.5q26 0 69 26.5t114 118t117.5 171.5t98.5 255l18 61h122zM731 1129l-236 -277h-28
l83 277h181z" />
    <glyph glyph-name="ucircumflex" unicode="&#xfb;" 
d="M776 709l-140 -480q-31 -107 -31 -135q0 -14 5 -21t14 -7q14 0 30.5 12.5t82.5 99.5l25 -19q-64 -100 -131 -148q-44 -30 -85 -30q-32 0 -49.5 17.5t-17.5 45.5t10 73q13 59 74 259q-137 -225 -229 -310t-171 -85q-37 0 -63 25.5t-26 65.5q0 60 35 185l71 249
q25 89 25 111q0 9 -6.5 16t-14.5 7q-17 0 -34 -12t-77 -89l-25 17q61 94 128 138q52 35 95 35q30 0 49 -19t19 -49q0 -44 -32 -155l-76 -260q-31 -107 -31 -135q0 -15 10 -24.5t27 -9.5q26 0 69 26.5t114 118t117.5 171.5t98.5 255l18 61h122zM665 1117l60 -255h-17
l-136 163l-257 -163h-22l251 255h121z" />
    <glyph glyph-name="udieresis" unicode="&#xfc;" 
d="M776 709l-140 -480q-31 -107 -31 -135q0 -14 5 -21t14 -7q14 0 30.5 12.5t82.5 99.5l25 -19q-64 -100 -131 -148q-44 -30 -85 -30q-32 0 -49.5 17.5t-17.5 45.5t10 73q13 59 74 259q-137 -225 -229 -310t-171 -85q-37 0 -63 25.5t-26 65.5q0 60 35 185l71 249
q25 89 25 111q0 9 -6.5 16t-14.5 7q-17 0 -34 -12t-77 -89l-25 17q61 94 128 138q52 35 95 35q30 0 49 -19t19 -49q0 -44 -32 -155l-76 -260q-31 -107 -31 -135q0 -15 10 -24.5t27 -9.5q26 0 69 26.5t114 118t117.5 171.5t98.5 255l18 61h122zM709 1079q37 0 62 -25.5
t25 -61.5t-25 -61t-62 -25q-35 0 -60.5 25t-25.5 61t25 61.5t61 25.5zM423 1079q36 0 61.5 -25.5t25.5 -61.5t-25.5 -61t-61.5 -25t-61 25t-25 61t25 61.5t61 25.5z" />
    <glyph glyph-name="yacute" unicode="&#xfd;" horiz-adv-x="732" 
d="M263 729q28 -47 38.5 -87.5t20.5 -160.5l35 -396q49 58 140 184q45 61 110 167q39 64 48 90q5 13 5 26q0 9 -5.5 14.5t-29.5 13.5t-39.5 28.5t-15.5 46.5q0 33 19.5 53.5t48.5 20.5q35 0 60 -29.5t25 -81.5q0 -63 -43.5 -145t-167.5 -251t-300 -369
q-122 -137 -180.5 -173t-100.5 -36q-25 0 -44 19t-19 44q0 31 26 57t57 26q16 0 26 -7q7 -4 14.5 -23t14.5 -26q4 -4 9 -4t17 8q44 28 103 87q78 79 115 129l-46 510q-11 127 -33.5 154.5t-75.5 27.5q-17 0 -60 -5l-8 30zM697 1129l-236 -277h-28l83 277h181z" />
    <glyph glyph-name="thorn" unicode="&#xfe;" 
d="M485 1145l-176 -602q88 103 157 144.5t140 41.5q72 0 122.5 -57t50.5 -148q0 -177 -144 -360t-336 -183q-71 0 -140 40l-59 -208q-18 -61 -18 -80t9.5 -31t30 -19t82.5 -7l-7 -32h-379l8 32q74 3 100.5 26t55.5 126l324 1122q19 66 19 83q0 22 -13 34t-37 12t-66 -7v32z
M177 85q50 -60 135 -60q60 0 132.5 56.5t135 187t62.5 257.5q0 64 -29.5 98t-69.5 34q-70 0 -144 -70q-104 -99 -152 -263z" />
    <glyph glyph-name="ydieresis" unicode="&#xff;" horiz-adv-x="732" 
d="M263 729q28 -47 38.5 -87.5t20.5 -160.5l35 -396q49 58 140 184q45 61 110 167q39 64 48 90q5 13 5 26q0 9 -5.5 14.5t-29.5 13.5t-39.5 28.5t-15.5 46.5q0 33 19.5 53.5t48.5 20.5q35 0 60 -29.5t25 -81.5q0 -63 -43.5 -145t-167.5 -251t-300 -369
q-122 -137 -180.5 -173t-100.5 -36q-25 0 -44 19t-19 44q0 31 26 57t57 26q16 0 26 -7q7 -4 14.5 -23t14.5 -26q4 -4 9 -4t17 8q44 28 103 87q78 79 115 129l-46 510q-11 127 -33.5 154.5t-75.5 27.5q-17 0 -60 -5l-8 30zM656 1079q37 0 62 -25.5t25 -61.5t-25 -61t-62 -25
q-35 0 -60.5 25t-25.5 61t25 61.5t61 25.5zM370 1079q36 0 61.5 -25.5t25.5 -61.5t-25.5 -61t-61.5 -25t-61 25t-25 61t25 61.5t61 25.5z" />
    <glyph glyph-name="dotlessi" unicode="&#x131;" horiz-adv-x="458" 
d="M379 729l-159 -565q-16 -57 -16 -68q0 -13 7.5 -21t17.5 -8q13 0 29 13q46 36 93 103l28 -19q-55 -83 -129 -141q-54 -42 -104 -42q-33 0 -54 19.5t-21 49.5t20 99l105 361q25 88 25 111q0 17 -12.5 28.5t-33.5 11.5q-18 0 -74 -9v31z" />
    <glyph glyph-name="OE" unicode="&#x152;" horiz-adv-x="1556" 
d="M1456 302l-102 -302h-536q-125 0 -213 -3l-190 -8q-112 0 -200 50t-133.5 142t-45.5 185q0 148 70.5 285t171 235.5t225 156.5t219.5 58q9 0 81 -4q114 -5 231 -5h564l-70 -265h-31q6 37 6 61q0 40 -24.5 75.5t-63.5 51t-157 15.5h-163l-125 -431h64q94 0 139 13.5t75 44
t59 98.5h30l-116 -396h-30q16 64 16 89q0 42 -28.5 68.5t-77.5 26.5h-44h-104l-101 -343q-20 -71 -20 -91q0 -16 9 -30t22.5 -18.5t73.5 -4.5h87q95 0 151 19q83 26 145.5 83.5t105.5 143.5h30zM886 796q28 96 28 139q0 41 -38.5 73t-116.5 32q-141 0 -245 -73
q-133 -95 -220.5 -282.5t-87.5 -364.5q0 -128 69.5 -199.5t194.5 -71.5q114 0 170 46t102 207z" />
    <glyph glyph-name="oe" unicode="&#x153;" horiz-adv-x="1100" 
d="M990 193l21 -23q-84 -95 -172 -142t-151 -47q-59 0 -100 35.5t-56 105.5q-118 -142 -266 -142q-96 0 -159.5 68.5t-63.5 178.5q0 100 46.5 194t112 162.5t140.5 107t139 38.5q74 0 125.5 -40t64.5 -105q128 145 267 145q63 0 97 -31.5t34 -81.5q0 -46 -24 -89
q-35 -60 -97 -106t-152 -79.5t-156 -40.5q-6 -47 -6 -72q0 -73 39 -116.5t93 -43.5q42 0 79 20q53 26 145 104zM275 16q106 0 193 180q108 221 108 363q0 58 -32 93t-79 35q-46 0 -91 -37q-61 -51 -124 -188q-80 -171 -80 -322q0 -59 29.5 -91.5t75.5 -32.5zM646 340
q156 32 236.5 114.5t80.5 160.5q0 32 -17.5 51.5t-43.5 19.5q-71 0 -136 -86t-120 -260z" />
    <glyph glyph-name="Scaron" unicode="&#x160;" 
d="M11 -25l90 405h28q-6 -59 -6 -97q0 -111 70.5 -180t184.5 -69q105 0 159.5 64.5t54.5 149.5q0 55 -24 100q-38 67 -203 235q-79 80 -102 120q-37 65 -37 137q0 114 85.5 195.5t218.5 81.5q46 0 86 -9q25 -5 91 -33q46 -18 51 -20q12 -2 25 -2q24 0 40.5 12t39.5 52h31
l-84 -363h-28q4 49 4 78q0 98 -64.5 160t-170.5 62q-83 0 -135.5 -49t-52.5 -114q0 -56 33.5 -107t154 -166.5t155.5 -180.5t35 -138q0 -83 -43.5 -161t-126 -120.5t-179.5 -42.5q-48 0 -90 9t-134 43q-31 12 -52 12q-48 0 -74 -64h-31zM528 1169l-60 255h17l136 -163
l257 163h22l-251 -255h-121z" />
    <glyph glyph-name="scaron" unicode="&#x161;" horiz-adv-x="642" 
d="M598 729l-49 -248h-30q-4 108 -46 157t-104 49q-49 0 -78.5 -27t-29.5 -66q0 -26 11.5 -50.5t51.5 -67.5q104 -115 134.5 -172.5t30.5 -109.5q0 -84 -69.5 -148.5t-175.5 -64.5q-58 0 -134 27q-26 10 -41 10q-36 0 -55 -37h-29l49 261h30q4 -123 50 -173.5t126 -50.5
q61 0 97 34t36 84q0 32 -13 60q-23 48 -95 133.5t-92.5 128t-20.5 85.5q0 78 57 132t146 54q26 0 47 -4q11 -3 52.5 -18.5t55.5 -15.5q34 0 58 38h30zM308 862l-60 255h17l136 -163l257 163h22l-251 -255h-121z" />
    <glyph glyph-name="Ydieresis" unicode="&#x178;" horiz-adv-x="917" 
d="M576 580l208 291q81 114 81 145q0 18 -17.5 29.5t-98.5 16.5l8 30h343l-7 -30q-50 -7 -68 -14q-29 -12 -57 -38q-38 -34 -110 -133l-267 -368l-81 -270q-29 -101 -29 -140q0 -25 9 -38t32 -21q31 -9 94 -10l-8 -30h-460l10 30q68 1 91 11q36 15 54 39q27 37 56 133
l96 318l-117 377q-31 100 -57.5 124t-91.5 30l8 30h404l-10 -30q-76 -6 -86 -10q-18 -5 -29.5 -22t-11.5 -40q0 -33 24 -113zM834 1378q37 0 62 -25.5t25 -61.5t-25 -61t-62 -25q-35 0 -60.5 25t-25.5 61t25 61.5t61 25.5zM548 1378q36 0 61.5 -25.5t25.5 -61.5t-25.5 -61
t-61.5 -25t-61 25t-25 61t25 61.5t61 25.5z" />
    <glyph glyph-name="Zcaron" unicode="&#x17d;" horiz-adv-x="917" 
d="M250 1092h757v-30l-811 -1010h127q204 0 288.5 20.5t140 70t93.5 141.5h31l-94 -284h-785v23l810 1010h-226q-148 0 -208.5 -13.5t-103.5 -54t-73 -122.5h-28zM536 1169l-60 255h17l136 -163l257 163h22l-251 -255h-121z" />
    <glyph glyph-name="zcaron" unicode="&#x17e;" horiz-adv-x="642" 
d="M138 709h512v-20l-557 -580h235q84 0 106.5 6.5t41.5 27.5t42 76h30l-70 -219h-524v23l557 580h-232q-73 0 -88 -4q-23 -5 -45 -25.5t-45 -67.5h-31zM308 862l-60 255h17l136 -163l257 163h22l-251 -255h-121z" />
    <glyph glyph-name="florin" unicode="&#x192;" 
d="M553 704h143l-13 -53h-140q-42 -216 -139 -570q-76 -274 -165 -361q-68 -67 -139 -67q-45 0 -71.5 24.5t-26.5 60.5q0 31 18.5 51t43.5 20q21 0 36.5 -14.5t15.5 -30.5q0 -18 -11 -30q-8 -10 -8 -16t5.5 -11.5t14.5 -5.5q16 0 30 8q24 14 47 52t48 142q5 18 70 334
q5 29 99 414h-143l12 53q80 6 100.5 13t34.5 25q21 28 48 108q59 171 113 219q53 48 118 48q50 0 80 -27t30 -64q0 -28 -16 -45t-39 -17q-20 0 -35 14.5t-15 30.5q0 13 8.5 28t8.5 22q0 8 -7 15q-7 6 -21 6q-25 0 -46 -20q-29 -26 -37 -67q-22 -98 -52 -289z" />
    <glyph glyph-name="circumflex" unicode="&#x2c6;" horiz-adv-x="549" 
d="M576 1117l60 -255h-17l-136 163l-257 -163h-22l251 255h121z" />
    <glyph glyph-name="caron" unicode="&#x2c7;" horiz-adv-x="549" 
d="M332 862l-60 255h17l136 -163l257 163h22l-251 -255h-121z" />
    <glyph glyph-name="ring" unicode="&#x2da;" horiz-adv-x="549" 
d="M459 1144q63 0 107.5 -44.5t44.5 -107.5t-44.5 -107.5t-107.5 -44.5t-107.5 44.5t-44.5 107.5t44 107.5t108 44.5zM460 1092q-42 0 -71.5 -29t-29.5 -71q0 -41 29.5 -70.5t71.5 -29.5q41 0 70 29.5t29 70.5q0 42 -28.5 71t-70.5 29z" />
    <glyph glyph-name="tilde" unicode="&#x2dc;" horiz-adv-x="549" 
d="M648 1098h24q0 -103 -44 -157t-104 -54q-59 0 -135.5 49t-94.5 57q-14 7 -32 7q-29 0 -47.5 -21t-29.5 -89h-26q6 113 48.5 161.5t103.5 48.5q58 0 143 -56.5t117 -56.5q28 0 46 21q23 26 31 90z" />
    <glyph glyph-name="uni0951" unicode="&#x951;" horiz-adv-x="0" 
d="M-203 1480h-95l142 688h96z" />
    <glyph glyph-name="uni0952" unicode="&#x952;" horiz-adv-x="0" 
d="M10 -448h-960v88h960v-88z" />
    <glyph glyph-name="uni0964" unicode="&#x964;" horiz-adv-x="854" 
d="M359 -107h-176l311 1496h176z" />
    <glyph glyph-name="uni0965" unicode="&#x965;" horiz-adv-x="1254" 
d="M759 -107h-176l311 1496h176zM359 -107h-176l311 1496h176z" />
    <glyph glyph-name="tm_anusvar" unicode="&#xb82;" horiz-adv-x="0" 
d="M-30 1140q0 -59 -40.5 -99.5t-99.5 -40.5q-58 0 -99 41t-41 99q0 59 40.5 99.5t99.5 40.5t99.5 -40.5t40.5 -99.5zM-81 1139q0 37 -26 63t-64 26q-37 0 -63 -26t-26 -63t26 -63.5t63 -26.5q38 0 64 26t26 64z" />
    <glyph glyph-name="tm_visarga" unicode="&#xb83;" horiz-adv-x="1578" 
d="M928 700q-86 0 -143 72.5t-57 167.5q0 137 86 238.5t214 101.5q86 0 143 -72.5t57 -167.5q0 -137 -86 -238.5t-214 -101.5zM948 1140q-62 0 -101 -61t-39 -139q0 -62 33.5 -111t86.5 -49q62 0 101 61t39 139q0 62 -33.5 111t-86.5 49zM348 0q-86 0 -143 72.5t-57 167.5
q0 137 86 238.5t214 101.5q86 0 143 -72.5t57 -167.5q0 -137 -86 -238.5t-214 -101.5zM368 440q-62 0 -101 -61t-39 -139q0 -62 33.5 -111t86.5 -49q62 0 101 61t39 139q0 62 -33.5 111t-86.5 49zM1248 0q-86 0 -143 72.5t-57 167.5q0 137 86 238.5t214 101.5
q86 0 143 -72.5t57 -167.5q0 -137 -86 -238.5t-214 -101.5zM1268 440q-62 0 -101 -61t-39 -139q0 -62 33.5 -111t86.5 -49q62 0 101 61t39 139q0 62 -33.5 111t-86.5 49z" />
    <glyph glyph-name="tm_a" unicode="&#xb85;" horiz-adv-x="1816" 
d="M1136 160h-860q-45 0 -67.5 -15t-22.5 -45q0 -50 92.5 -115t297.5 -65q179 0 319 60t241 180zM936 700q-60 -24 -90 -69t-30 -111q0 -38 22.5 -64t57.5 -26q48 0 79 31.5t31 78.5q0 103 -70 160zM1576 -280h-160l88 440h-208q-143 -170 -310.5 -255t-359.5 -85
q-160 0 -292.5 50.5t-195 124.5t-62.5 145q0 43 35.5 71.5t84.5 28.5h1000q80 112 80 226q0 92 -48 163t-122 71q40 -68 40 -140q0 -98 -60 -169t-150 -71q-84 0 -142 64.5t-58 149.5q0 118 101 192t233 74q144 0 245 -92t101 -232q0 -132 -60 -236h164l112 560h160z" />
    <glyph glyph-name="tm_aa" unicode="&#xb86;" horiz-adv-x="1992" 
d="M1076 160h-800q-45 0 -67.5 -15t-22.5 -45q0 -48 88 -114t272 -66q164 0 296.5 60t233.5 180zM876 700q-60 -24 -90 -69t-30 -111q0 -38 22.5 -64t57.5 -26q48 0 79 31.5t31 78.5q0 103 -70 160zM1520 -280h-160l88 440h-212q-143 -170 -303 -255t-337 -85
q-150 0 -272 49t-185 124.5t-63 146.5q0 43 35.5 71.5t84.5 28.5h940q80 112 80 226q0 92 -48 163t-122 71q40 -68 40 -140q0 -98 -60 -169t-150 -71q-84 0 -142 64.5t-58 149.5q0 118 101 192t233 74q144 0 245 -92t101 -232q0 -132 -60 -236h168l112 560h160l-153 -773
q73 83 193 83q89 0 154.5 -54t65.5 -136q0 -199 -211 -319.5t-469 -120.5q-190 0 -325 64t-135 154q0 64 91.5 103t208.5 39v-140q-53 44 -140 44q-80 0 -80 -44q0 -66 122.5 -103t257.5 -37q208 0 354 94t146 232q0 57 -35 100.5t-85 43.5q-70 0 -124 -54z" />
    <glyph glyph-name="tm_i" unicode="&#xb87;" horiz-adv-x="1870" 
d="M1610 -500h-76l168 840q16 80 16 138q0 262 -193.5 482t-504.5 220q-284 0 -482 -198t-198 -482q0 -256 116 -458q188 98 404 98q166 0 286 -62q114 150 114 322q0 131 -58.5 224.5t-161.5 105.5q71 -74 71 -182q0 -112 -63 -180t-168 -68q-83 0 -136.5 60t-53.5 158
q0 126 104.5 219t239.5 93q165 0 265.5 -122t100.5 -308q0 -178 -140 -380q74 -41 127 -112.5t53 -143.5q0 -133 -103 -213.5t-257 -80.5q-144 0 -300 90q-155 -90 -340 -90q-123 0 -211.5 60t-88.5 160q0 86 65 168.5t167 137.5q-142 251 -142 524q0 327 230.5 553.5
t559.5 226.5q335 0 557.5 -234.5t222.5 -539.5q0 -77 -22 -186zM904 710q-59 -21 -96.5 -77t-37.5 -125q0 -49 27 -78.5t67 -29.5q51 0 83.5 40.5t32.5 99.5q0 105 -76 170zM1068 -22q-107 62 -278 62q-177 0 -300 -60q97 -153 284 -262q163 95 294 260zM656 -352
q-150 113 -246 282q-61 -33 -120.5 -102t-59.5 -124q0 -54 50.5 -89t129.5 -35q135 0 246 68zM1186 -84q-146 -175 -276 -262q91 -34 170 -34q83 0 141.5 38.5t58.5 101.5q0 90 -94 156z" />
    <glyph glyph-name="tm_ii" unicode="&#xb88;" horiz-adv-x="1160" 
d="M1260 800l-16 -80h-304l-144 -720h-160l144 720h-380l-144 -720h-76l160 800h920zM1080 300q-42 0 -71 29t-29 71q0 43 29 71.5t71 28.5q43 0 71.5 -28.5t28.5 -71.5q0 -42 -28.5 -71t-71.5 -29zM540 300q-42 0 -71 29t-29 71q0 43 29 71.5t71 28.5q43 0 71.5 -28.5
t28.5 -71.5q0 -42 -28.5 -71t-71.5 -29z" />
    <glyph glyph-name="tm_u" unicode="&#xb89;" horiz-adv-x="1536" 
d="M1534 80l-20 -80h-1220q-180 0 -180 120q0 57 51 88.5t129 31.5h220q101 0 170.5 70t69.5 170q0 97 -49.5 163.5t-130.5 66.5q-53 0 -106 -24q86 -59 86 -168q0 -71 -45.5 -119.5t-114.5 -48.5q-64 0 -107 49t-43 121q0 122 117 201t273 79q117 0 198.5 -81.5
t81.5 -198.5q0 -154 -118 -257t-282 -103h-202q-58 0 -58 -40t56 -40h1224zM392 644q-58 -44 -58 -116q0 -88 48 -88q52 0 52 88q0 66 -42 116z" />
    <glyph glyph-name="tm_uu" unicode="&#xb8a;" horiz-adv-x="2168" 
d="M2056 80l-20 -80h-1742q-180 0 -180 120q0 57 51 88.5t129 31.5h220q101 0 170.5 70t69.5 170q0 97 -49.5 163.5t-130.5 66.5q-62 0 -106 -24q86 -59 86 -168q0 -71 -45.5 -119.5t-114.5 -48.5q-64 0 -107 49t-43 121q0 127 114.5 203.5t275.5 76.5q117 0 198.5 -81.5
t81.5 -198.5q0 -154 -118 -257t-282 -103h-202q-58 0 -58 -40t56 -40h1746zM392 644q-58 -44 -58 -120q0 -84 48 -84q52 0 52 88q0 66 -42 116zM2270 800l-20 -80h-130l-110 -540h-136l106 540h-172l-114 -540h-140l44 224q8 38 8 80q-1 101 -52.5 168.5t-139.5 67.5
q-137 0 -238.5 -86t-101.5 -214q0 -67 25 -114.5t75 -75.5q-40 60 -40 142q0 78 52 133t130 55q69 0 113.5 -50t44.5 -120q0 -100 -69.5 -170t-170.5 -70q-103 0 -171.5 80t-68.5 190q0 163 124 271.5t296 108.5q103 0 178.5 -64.5t89.5 -165.5l48 230h540zM1238 228
q48 9 77 46.5t29 85.5q0 100 -50 100q-34 0 -57 -36.5t-23 -83.5q0 -60 24 -112z" />
    <glyph glyph-name="tm_e" unicode="&#xb8e;" horiz-adv-x="1358" 
d="M444 100q73 0 126.5 46t53.5 114q0 47 -22 83.5t-58 36.5q-52 0 -86 -41.5t-34 -98.5q0 -86 20 -140zM1000 0l144 720h-460q-170 0 -295 -102.5t-125 -257.5q0 -78 25 -138t75 -102q-20 34 -20 140q0 107 68.5 183.5t171.5 76.5q82 0 136 -65.5t54 -154.5
q0 -123 -77.5 -211.5t-192.5 -88.5q-137 0 -228.5 107t-91.5 253q0 189 149 314.5t351 125.5h790l-20 -80h-150l-144 -720h-160z" />
    <glyph glyph-name="tm_ee" unicode="&#xb8f;" horiz-adv-x="1358" 
d="M444 100q73 0 126.5 46t53.5 114q0 47 -22 83.5t-58 36.5q-52 0 -86 -41.5t-34 -98.5q0 -86 20 -140zM1014 80l130 640h-460q-170 0 -295 -102.5t-125 -257.5q0 -78 25 -138t75 -102q-20 34 -20 140q0 107 68.5 183.5t171.5 76.5q82 0 136 -65.5t54 -154.5
q0 -123 -77.5 -211.5t-192.5 -88.5q-137 0 -228.5 107t-91.5 253q0 189 149 314.5t351 125.5h810l-20 -80h-170l-144 -720q-180 0 -335 -86t-241 -234l-40 30q100 172 228 271t242 99z" />
    <glyph glyph-name="tm_ai" unicode="&#xb90;" horiz-adv-x="1480" 
d="M602 440q0 37 -21 68.5t-53 31.5q-33 0 -49.5 -25t-16.5 -75q0 -42 15 -76t45 -60q40 15 60 49t20 87zM1462 460q0 -163 -124 -271.5t-296 -108.5h-540q-120 0 -210 -67.5t-90 -172.5q0 -103 56.5 -181.5t143.5 -78.5q93 0 156.5 64t63.5 156h160q0 -103 56.5 -181.5
t143.5 -78.5q92 0 156 70t64 170q0 72 -40 140l80 20q30 -63 30 -158q0 -146 -91 -234t-219 -88q-92 0 -166.5 42t-113.5 128q-27 -63 -109 -106.5t-191 -43.5q-139 0 -239.5 95.5t-100.5 234.5q0 153 140 251.5t320 98.5h540q112 0 186 89.5t74 210.5q0 130 -30 195t-90 65
q-73 0 -130 -98t-70 -202l-20 -160h-160l20 160q2 16 2 48q0 106 -77 179t-181 73q-121 0 -202.5 -59.5t-81.5 -160.5q0 -80 45 -138t115 -62q-60 52 -60 150q0 70 45 120t111 50q73 0 118.5 -52t45.5 -128q0 -95 -67 -157.5t-165 -62.5q-116 0 -192 82t-76 198
q0 134 106.5 217t257.5 83q131 0 233 -72t123 -188q27 107 101 183.5t165 76.5q137 0 205.5 -85t68.5 -255z" />
    <glyph glyph-name="tm_o" unicode="&#xb92;" horiz-adv-x="1424" 
d="M614 240q0 41 -25 70.5t-65 29.5q-45 0 -67.5 -25t-22.5 -75q0 -73 38 -140q71 12 106.5 47t35.5 93zM1394 360q0 -127 -73.5 -223.5t-186.5 -96.5q-79 0 -129.5 73.5t-50.5 166.5q-60 -34 -60 -120q0 -90 57.5 -155t142.5 -65h200l-20 -80h-180q-57 0 -106 -46t-74 -114
q-33 -92 -121.5 -146t-198.5 -54q-114 0 -207 55t-93 145q0 104 100 160l40 -20q-60 -51 -60 -120q0 -62 61 -101t139 -39q75 0 131.5 45t68.5 115q12 69 50.5 124.5t89.5 55.5q-100 84 -100 220q0 121 74 210.5t186 89.5q-40 -48 -40 -160q0 -55 27.5 -97.5t72.5 -42.5
q46 0 73 56.5t27 123.5q0 165 -138 272.5t-322 107.5q-203 0 -361.5 -105.5t-158.5 -274.5q0 -76 38 -137t102 -83q-40 68 -40 140q0 99 61.5 159.5t158.5 60.5q75 0 127.5 -52.5t52.5 -127.5q0 -117 -81.5 -198.5t-198.5 -81.5q-126 0 -213 94.5t-87 225.5
q0 209 181.5 344.5t418.5 135.5q240 0 430 -122.5t190 -317.5z" />
    <glyph glyph-name="tm_oo" unicode="&#xb93;" horiz-adv-x="1424" 
d="M614 240q0 41 -25 70.5t-65 29.5q-45 0 -67.5 -25t-22.5 -75q0 -73 38 -140q71 12 106.5 47t35.5 93zM1394 360q0 -127 -73.5 -223.5t-186.5 -96.5q-79 0 -129.5 73.5t-50.5 166.5q-60 -34 -60 -120q0 -90 57.5 -155t142.5 -65h200l-20 -80h-180q-57 0 -106 -46t-74 -114
q-33 -92 -121.5 -146t-198.5 -54q-114 0 -207 55t-93 145q0 75 53 127.5t127 52.5q73 0 126.5 -46t53.5 -114q0 -93 -80 -140q75 0 131.5 45t68.5 115q12 69 50.5 124.5t89.5 55.5q-100 84 -100 220q0 121 74 210.5t186 89.5q-40 -48 -40 -160q0 -55 27.5 -97.5t72.5 -42.5
q46 0 73 56.5t27 123.5q0 165 -138 272.5t-322 107.5q-203 0 -361.5 -105.5t-158.5 -274.5q0 -76 38 -137t102 -83q-40 68 -40 140q0 99 61.5 159.5t158.5 60.5q75 0 127.5 -52.5t52.5 -127.5q0 -117 -81.5 -198.5t-198.5 -81.5q-126 0 -213 94.5t-87 225.5
q0 209 181.5 344.5t418.5 135.5q240 0 430 -122.5t190 -317.5zM574 -280q0 43 -28.5 71.5t-71.5 28.5q-42 0 -71 -28.5t-29 -71.5q0 -52 34 -91t86 -49q80 31 80 140z" />
    <glyph glyph-name="tm_au" unicode="&#xb94;" horiz-adv-x="2910" 
d="M614 240q0 41 -25 70.5t-65 29.5q-45 0 -67.5 -25t-22.5 -75q0 -73 38 -140q71 12 106.5 47t35.5 93zM1394 360q0 -127 -73.5 -223.5t-186.5 -96.5q-79 0 -129.5 73.5t-50.5 166.5q-60 -34 -60 -120q0 -90 57.5 -155t142.5 -65h200l-20 -80h-180q-57 0 -106 -46t-74 -114
q-33 -92 -121.5 -146t-198.5 -54q-114 0 -207 55t-93 145q0 104 100 160l40 -20q-60 -51 -60 -120q0 -62 61 -101t139 -39q75 0 131.5 45t68.5 115q12 69 50.5 124.5t89.5 55.5q-100 84 -100 220q0 121 74 210.5t186 89.5q-40 -48 -40 -160q0 -55 27.5 -97.5t72.5 -42.5
q46 0 73 56.5t27 123.5q0 165 -138 272.5t-322 107.5q-203 0 -361.5 -105.5t-158.5 -274.5q0 -76 38 -137t102 -83q-40 68 -40 140q0 99 61.5 159.5t158.5 60.5q75 0 127.5 -52.5t52.5 -127.5q0 -117 -81.5 -198.5t-198.5 -81.5q-126 0 -213 94.5t-87 225.5
q0 209 181.5 344.5t418.5 135.5q240 0 430 -122.5t190 -317.5zM1893 280q0 110 -60 110q-45 0 -72.5 -46t-27.5 -98q0 -93 40 -126q54 3 87 49.5t33 110.5zM2857 720l-144 -720h-160l144 720h-240l-144 -720h-160l74 380q7 36 7 66q0 124 -79 209t-202 85
q-161 0 -270.5 -117.5t-109.5 -282.5q0 -78 30 -128t90 -72q-30 56 -30 130q0 91 61 155.5t149 64.5q76 0 128 -59.5t52 -140.5q0 -118 -74.5 -204t-185.5 -86q-128 0 -214 101.5t-86 238.5q0 197 133.5 338.5t326.5 141.5q164 0 265.5 -91.5t118.5 -228.5l60 300h646
l-20 -80h-166z" />
    <glyph glyph-name="tm_ka" unicode="&#xb95;" horiz-adv-x="1172" 
d="M630 360h-310q-49 0 -84.5 -28.5t-35.5 -71.5q0 -80 80 -130t180 -50q51 0 89 33.5t49 86.5zM702 720h-222l-56 -280h222zM774 280q-28 -138 -115.5 -209t-198.5 -71q-133 0 -236.5 73t-103.5 187q0 76 59.5 128t140.5 52h28l72 360h700l-20 -80h-238l-56 -280h114
q90 0 155 -57.5t65 -142.5q0 -104 -83.5 -172t-196.5 -68q-64 0 -100 20l20 40q18 -10 60 -10q63 0 101.5 65t38.5 145q0 41 -22.5 70.5t-57.5 29.5h-110z" />
    <glyph glyph-name="tm_nga" unicode="&#xb99;" horiz-adv-x="1524" 
d="M1504 800l-160 -800h-864l20 80h140q107 0 183.5 68.5t76.5 171.5q0 43 -28.5 71.5t-71.5 28.5q-36 0 -65 -31t-37 -69l-20 -100h-160l102 500h-216l-144 -720h-80l162 800h658l-20 -80h-200l-52 -260q70 60 152 60q76 0 128 -59.5t52 -140.5q0 -82 -66 -147.5
t-164 -92.5h372l144 720h158z" />
    <glyph glyph-name="tm_ca" unicode="&#xb9a;" horiz-adv-x="1004" 
d="M630 360h-310q-49 0 -84.5 -28.5t-35.5 -71.5q0 -80 80 -130t180 -50q51 0 89 33.5t49 86.5zM702 720h-222l-56 -280h222zM774 280q-28 -138 -115.5 -209t-198.5 -71q-133 0 -236.5 73t-103.5 187q0 76 59.5 128t140.5 52h28l72 360h700l-20 -80h-238l-56 -280h244
l-10 -80h-250z" />
    <glyph glyph-name="tm_ja" unicode="&#xb9c;" horiz-adv-x="1482" 
d="M604 440q0 37 -21 68.5t-53 31.5q-33 0 -49.5 -25t-16.5 -75q0 -42 15 -76t45 -60q40 15 60 49t20 87zM1464 460q0 -163 -124 -271.5t-296 -108.5h-540q-120 0 -210 -67.5t-90 -172.5q0 -93 50.5 -166.5t129.5 -73.5q50 0 120 45t160 135q108 108 158.5 144.5t101.5 56
t100 19.5q121 0 210.5 -74t89.5 -186q0 -92 -64 -156t-166 -64q-140 0 -250 40l20 60q56 -20 140 -20q73 0 126.5 46t53.5 114q0 66 -46.5 113t-113.5 47q-70 0 -150 -45t-170 -135q-110 -110 -204 -165t-172 -55q-121 0 -202.5 95t-81.5 225q0 143 141.5 231.5t318.5 88.5
h540q112 0 186 89.5t74 210.5q0 130 -30 195t-90 65q-73 0 -130 -98t-70 -202l-20 -160h-160l20 160q2 16 2 48q0 106 -77 179t-181 73q-121 0 -202.5 -59.5t-81.5 -160.5q0 -80 45 -138t115 -62q-60 52 -60 150q0 70 45 120t111 50q73 0 118.5 -52t45.5 -128
q0 -95 -67 -157.5t-165 -62.5q-116 0 -192 82t-76 198q0 134 106.5 217t257.5 83q131 0 233 -72t123 -188q27 107 101 183.5t165 76.5q137 0 205.5 -85t68.5 -255z" />
    <glyph glyph-name="tm_nya" unicode="&#xb9e;" horiz-adv-x="1920" 
d="M928 260q0 47 -22 83.5t-58 36.5q-52 0 -86 -41.5t-34 -98.5q0 -86 20 -140q73 0 126.5 46t53.5 114zM1918 800l-20 -80h-296l-56 -280q47 40 104 40q94 0 151 -89.5t57 -210.5q0 -298 -260 -489t-600 -191q-332 0 -566 226t-234 554q0 292 270 520l50 -50
q-240 -202 -240 -470q0 -294 211 -497t509 -203q282 0 491 171t209 429q0 77 -26.5 143.5t-73.5 66.5q-62 0 -76 -70l-64 -320h-160l144 720h-454q-170 0 -295 -102.5t-125 -257.5q0 -78 25 -138t75 -102q-20 34 -20 140q0 107 68.5 183.5t171.5 76.5q82 0 136 -65.5
t54 -154.5q0 -123 -77.5 -211.5t-192.5 -88.5q-137 0 -228.5 107t-91.5 253q0 189 149 314.5t351 125.5h930z" />
    <glyph glyph-name="tm_tta" unicode="&#xb9f;" horiz-adv-x="1582" 
d="M1560 0h-1380l160 800h160l-144 -720h1224z" />
    <glyph glyph-name="tm_nna" unicode="&#xba3;" horiz-adv-x="2298" 
d="M614 240q0 41 -25 70.5t-65 29.5q-45 0 -67.5 -25t-22.5 -75q0 -73 38 -140q71 12 106.5 47t35.5 93zM1148 270q0 64 -26.5 142.5t-65.5 129.5q-54 -57 -81 -127.5t-27 -154.5q0 -55 27.5 -97.5t72.5 -42.5q46 0 73 44t27 106zM1700 270q0 62 -28 145t-64 127
q-54 -54 -81 -124.5t-27 -157.5q0 -55 27.5 -97.5t72.5 -42.5q46 0 73 44t27 106zM2440 800l-20 -80h-174l-146 -720h-160l146 720h-86q-174 0 -280 -80q70 -82 105 -174.5t35 -195.5q0 -114 -60.5 -192t-159.5 -78q-97 0 -158.5 75.5t-61.5 184.5q0 102 36 188.5t108 157.5
q-78 94 -188 94q-116 0 -210 -70q71 -80 106.5 -170t35.5 -190q0 -114 -60.5 -192t-159.5 -78q-97 0 -158.5 75.5t-61.5 184.5q0 101 35.5 187t106.5 157q-100 96 -258 96q-236 0 -367 -108.5t-131 -271.5q0 -76 38 -137t102 -83q-40 68 -40 140q0 99 61.5 159.5t158.5 60.5
q75 0 127.5 -52.5t52.5 -127.5q0 -117 -81.5 -198.5t-198.5 -81.5q-126 0 -213 94.5t-87 225.5q0 203 165.5 341.5t412.5 138.5q188 0 348 -108q131 108 282 108q155 0 288 -108q137 108 330 108h440z" />
    <glyph glyph-name="tm_ta" unicode="&#xba4;" horiz-adv-x="1182" 
d="M630 360h-310q-49 0 -84.5 -28.5t-35.5 -71.5q0 -80 80 -130t180 -50q51 0 89 33.5t49 86.5zM702 720h-222l-56 -280h222zM348 440l72 360h700l-20 -80h-238l-56 -280h74q107 0 183.5 -68.5t76.5 -171.5q0 -171 -172 -275.5t-388 -104.5h-300q-24 0 -42 -18t-18 -42
q0 -17 15 -50q15 -32 15 -50q0 -38 -22.5 -64t-57.5 -26q-48 0 -79 39t-31 91q0 78 66 129t154 51h300q159 0 279.5 90.5t120.5 229.5q0 62 -33.5 111t-86.5 49h-70l-16 -80q-28 -138 -115.5 -209t-198.5 -71q-133 0 -236.5 73t-103.5 187q0 76 59.5 128t140.5 52h28z" />
    <glyph glyph-name="tm_na" unicode="&#xba8;" horiz-adv-x="1134" 
d="M644 0h-162l144 720h-220l-140 -720h-80l150 800h750l-20 -80h-280l-64 -320q60 70 164 70q86 0 143 -68.5t57 -161.5q0 -182 -149.5 -301t-350.5 -119h-240q-24 0 -42 -18t-18 -42q0 -17 15 -50q15 -32 15 -50q0 -38 -22.5 -64t-57.5 -26q-48 0 -79 39t-31 91
q0 78 66 129t154 51h210q151 0 260.5 98t109.5 242q0 53 -34 91.5t-86 38.5q-47 0 -74 -17.5t-34 -52.5z" />
    <glyph glyph-name="tm_nnna" unicode="&#xba9;" horiz-adv-x="1770" 
d="M614 240q0 41 -25 70.5t-65 29.5q-45 0 -67.5 -25t-22.5 -75q0 -73 38 -140q71 12 106.5 47t35.5 93zM1148 270q0 64 -26.5 142.5t-65.5 129.5q-54 -57 -81 -127.5t-27 -154.5q0 -55 27.5 -97.5t72.5 -42.5q46 0 73 44t27 106zM1886 800l-20 -80h-150l-144 -720h-160
l144 720h-160q-119 0 -230 -90q71 -80 106.5 -170t35.5 -190q0 -114 -60.5 -192t-159.5 -78q-97 0 -158.5 75.5t-61.5 184.5q0 101 35.5 187t106.5 157q-100 96 -258 96q-236 0 -367 -108.5t-131 -271.5q0 -76 38 -137t102 -83q-40 68 -40 140q0 99 61.5 159.5t158.5 60.5
q75 0 127.5 -52.5t52.5 -127.5q0 -117 -81.5 -198.5t-198.5 -81.5q-126 0 -213 94.5t-87 225.5q0 203 165.5 341.5t412.5 138.5q188 0 348 -108q131 108 282 108h504z" />
    <glyph glyph-name="tm_pa" unicode="&#xbaa;" horiz-adv-x="1376" 
d="M1200 0h-1020l160 800h160l-144 -720h700l144 720h160z" />
    <glyph glyph-name="tm_ma" unicode="&#xbae;" horiz-adv-x="1506" 
d="M1380 340q0 136 -59.5 248t-160.5 112q-44 0 -78 -30.5t-42 -69.5l-104 -520h264q80 0 130 80t50 180zM180 0l160 800h160l-144 -720h420l104 520q18 88 73 144t127 56q165 0 272.5 -138t107.5 -322q0 -133 -73 -236.5t-187 -103.5h-1020z" />
    <glyph glyph-name="tm_ya" unicode="&#xbaf;" horiz-adv-x="1450" 
d="M1430 800l-160 -800h-760l20 100q-30 -60 -71.5 -90t-94.5 -30q-70 0 -113.5 67t-43.5 151q0 46 7 82l104 520h160l-104 -520q-3 -17 -3 -54q0 -53 19.5 -79.5t59.5 -26.5q35 0 65 27t37 63l118 590h160l-144 -720h440l144 720h160z" />
    <glyph glyph-name="tm_ra" unicode="&#xbb0;" horiz-adv-x="930" 
d="M136 -200l444 240l136 680h-316l-144 -720h-80l160 800h720l-20 -80h-160l-146 -720l-594 -250v50z" />
    <glyph glyph-name="tm_rra" unicode="&#xbb1;" horiz-adv-x="1270" 
d="M1210 400q0 -293 -170 -436.5t-530 -143.5h-300q-24 0 -42 -18t-18 -42q0 -17 15 -50q15 -32 15 -50q0 -38 -22.5 -64t-57.5 -26q-48 0 -79 39t-31 91q0 78 66 129t154 51h300q256 0 398 136t142 384q0 110 -43 205t-117 95q-60 0 -106 -30t-54 -70l-120 -600h-160
l120 600q3 15 3 26q0 40 -23.5 67t-59.5 27q-40 0 -75 -36t-45 -84l-120 -600h-80l120 600q16 78 79.5 139t140.5 61q59 0 104.5 -33.5t55.5 -86.5q43 60 103 90t137 30q133 0 216.5 -121.5t83.5 -278.5z" />
    <glyph glyph-name="tm_la" unicode="&#xbb2;" horiz-adv-x="1578" 
d="M642 280q0 41 -22.5 70.5t-57.5 29.5q-43 0 -71.5 -35.5t-28.5 -84.5q0 -92 60 -160q55 11 87.5 63t32.5 117zM1542 520q0 -216 -123 -368t-277 -152q-103 0 -174 56.5t-71 131.5q0 25 5 52l42 200q7 33 7 62q0 88 -78 153t-191 65q-167 0 -293.5 -99.5t-126.5 -250.5
q0 -99 49 -177t131 -93q-60 68 -60 160q0 93 64 156.5t156 63.5q83 0 141.5 -58.5t58.5 -141.5q0 -120 -95.5 -200t-224.5 -80q-131 0 -215.5 111.5t-84.5 258.5q0 188 163 309t377 121q151 0 269.5 -88t118.5 -206q0 -29 -8 -66l-40 -200q-4 -22 -4 -46q0 -39 31.5 -66.5
t72.5 -27.5q133 0 216.5 121.5t83.5 278.5q0 52 -80 140q-80 89 -80 140q0 25 21 42.5t49 17.5q50 0 86 -34.5t60 -110.5t24 -175z" />
    <glyph glyph-name="tm_lla" unicode="&#xbb3;" horiz-adv-x="1606" 
d="M590 280q0 110 -60 110q-45 0 -72.5 -46t-27.5 -98q0 -93 40 -126q54 3 87 49.5t33 110.5zM1554 720l-144 -720h-160l144 720h-240l-144 -720h-160l74 380q7 36 7 66q0 124 -79 209t-202 85q-161 0 -270.5 -117.5t-109.5 -282.5q0 -78 30 -128t90 -72q-30 56 -30 130
q0 91 61 155.5t149 64.5q76 0 128 -59.5t52 -140.5q0 -118 -74.5 -204t-185.5 -86q-128 0 -214 101.5t-86 238.5q0 197 133.5 338.5t326.5 141.5q164 0 265.5 -91.5t118.5 -228.5l60 300h646l-20 -80h-166z" />
    <glyph glyph-name="tm_llla" unicode="&#xbb4;" horiz-adv-x="1506" 
d="M1380 340q0 136 -59.5 248t-160.5 112q-44 0 -78 -30.5t-42 -69.5l-104 -520h264q80 0 130 80t50 180zM1460 340q0 -133 -73 -236.5t-187 -103.5h-280q-4 -20 -4 -32q0 -32 29.5 -60t74.5 -28h120l-20 -80h-120q-83 0 -140 -100q-64 -113 -182 -176.5t-258 -63.5
q-113 0 -196.5 68t-83.5 172q0 78 39 139t101 61q24 0 42 -18t18 -42q0 -28 -40 -85q-40 -56 -40 -85q0 -56 48 -93t112 -37q96 0 161 30t99 90q48 86 93 131t87 49q-53 15 -79.5 44.5t-26.5 73.5q0 23 6 42h-580l160 800h160l-144 -720h420l104 520q18 88 73 144t127 56
q165 0 272.5 -138t107.5 -322z" />
    <glyph glyph-name="tm_va" unicode="&#xbb5;" horiz-adv-x="1688" 
d="M588 260q0 38 -19.5 69t-50.5 31q-40 0 -65 -36t-25 -84q0 -67 40 -140q54 3 87 50t33 110zM1668 800l-160 -800h-740q200 167 200 400q0 135 -104 227.5t-246 92.5q-147 0 -248.5 -110.5t-101.5 -269.5q0 -86 30 -146t90 -94q-40 68 -40 140q0 93 64 156.5t156 63.5
q76 0 128 -59.5t52 -140.5q0 -108 -75.5 -184t-184.5 -76q-128 0 -214 101.5t-86 238.5q0 199 136.5 339.5t333.5 140.5q191 0 330.5 -120.5t139.5 -299.5q0 -175 -120 -320h356l144 720h160z" />
    <glyph glyph-name="tm_sha" unicode="&#xbb6;" horiz-adv-x="1814" 
d="M772 800h950l-80 -400q-33 -181 -141 -290.5t-259 -109.5q-106 0 -175.5 72.5t-69.5 151.5q0 32 5 56l85 419h-175l-60 -299q-33 -181 -141 -290.5t-259 -109.5q-106 0 -175.5 72.5t-69.5 151.5q0 32 5 56l106 520h160l-106 -520q-5 -25 -5 -66q0 -58 29.5 -96t75.5 -38
q74 0 131 86.5t89 243.5zM1157 214q0 -58 29.5 -96t75.5 -38q74 0 131 86.5t89 243.5l59 289h-294l-85 -419q-5 -25 -5 -66z" />
    <glyph glyph-name="tm_ssa" unicode="&#xbb7;" horiz-adv-x="1946" 
d="M1670 80l50 250q-55 -30 -150 -30l-44 -220h144zM588 260q0 38 -19.5 69t-50.5 31q-40 0 -65 -36t-25 -84q0 -67 40 -140q54 3 87 50t33 110zM1426 380l40 200q5 23 5 40q0 32 -18 51t-43 19q-46 0 -73 -53t-27 -117q0 -58 35 -99t81 -41zM1930 600l-120 -600h-300
l-80 -400h-160l80 400h-582q200 167 200 400q0 135 -104 227.5t-246 92.5q-147 0 -248.5 -110.5t-101.5 -269.5q0 -86 30 -146t90 -94q-40 68 -40 140q0 93 64 156.5t156 63.5q76 0 128 -59.5t52 -140.5q0 -108 -75.5 -184t-184.5 -76q-128 0 -214 101.5t-86 238.5
q0 199 136.5 339.5t333.5 140.5q191 0 330.5 -120.5t139.5 -299.5q0 -175 -120 -320h358l44 220q-80 15 -130 77t-50 143q0 113 68 196.5t172 83.5q67 0 113.5 -50.5t46.5 -121.5q0 -35 -12 -92l-32 -156q92 0 182 58t162 162z" />
    <glyph glyph-name="tm_sa" unicode="&#xbb8;" horiz-adv-x="1964" 
d="M586 280q0 37 -16.5 68.5t-43.5 31.5q-45 0 -72.5 -42.5t-27.5 -97.5q0 -66 20 -120q59 10 99.5 55.5t40.5 104.5zM1903 520q0 -216 -123 -368t-277 -152q-104 0 -175 56.5t-71 131.5q0 26 6 52l73 340q4 19 4 36q0 34 -15 59t-47 25q-66 0 -112.5 -59t-63.5 -141
l-100 -500h-160l76 380q6 30 6 59q0 106 -79 193.5t-199 87.5q-159 0 -269.5 -110.5t-110.5 -269.5q0 -85 32.5 -140t97.5 -80q-50 71 -50 160q0 85 65 142.5t155 57.5q76 0 128 -59.5t52 -140.5q0 -115 -75 -197.5t-185 -82.5q-128 0 -214 101.5t-86 238.5q0 192 134.5 326
t325.5 134q134 0 240 -77t140 -203q33 121 106.5 200.5t163.5 79.5q87 0 141.5 -52.5t54.5 -135.5q0 -29 -8 -66l-61 -306q-5 -22 -5 -46q0 -39 32 -66.5t73 -27.5q124 0 211.5 117t88.5 283q0 76 -95 152q-65 52 -65 120q-1 32 20 50t50 18q49 0 85 -34.5t60.5 -110.5
t24.5 -175z" />
    <glyph glyph-name="tm_ha" unicode="&#xbb9;" horiz-adv-x="2334" 
d="M588 260q0 38 -19.5 69t-50.5 31q-40 0 -65 -36t-25 -84q0 -67 40 -140q54 3 87 50t33 110zM2286 460q0 -258 -176 -449t-444 -191h-1260q-24 0 -42 -18t-18 -42q0 -17 15 -50q15 -32 15 -50q0 -38 -22.5 -64t-57.5 -26q-48 0 -79 39t-31 91q0 78 66 129t154 51h1260
q213 0 346.5 202t133.5 458q0 73 -46 126.5t-114 53.5q-86 0 -152.5 -59t-87.5 -161l-100 -500h-160l116 580q6 28 6 50q0 38 -18 64t-44 26q-45 0 -81.5 -38.5t-48.5 -101.5l-110 -580h-538q200 167 200 400q0 135 -104 227.5t-246 92.5q-147 0 -248.5 -110.5
t-101.5 -269.5q0 -86 30 -146t90 -94q-40 68 -40 140q0 93 64 156.5t156 63.5q76 0 128 -59.5t52 -140.5q0 -108 -75.5 -184t-184.5 -76q-128 0 -214 101.5t-86 238.5q0 199 136.5 339.5t333.5 140.5q191 0 330.5 -120.5t139.5 -299.5q0 -175 -120 -320h228l100 500
q21 103 79.5 161.5t130.5 58.5q68 0 114 -53.5t46 -126.5q30 82 107 131t173 49q128 0 214 -101.5t86 -238.5z" />
    <glyph glyph-name="tm_aakaar" unicode="&#xbbe;" horiz-adv-x="926" 
d="M1060 800l-20 -80h-166l-144 -720h-160l144 720h-314l-144 -720h-76l160 800h720z" />
    <glyph glyph-name="tm_ikaar" unicode="&#xbbf;" horiz-adv-x="1092" 
d="M908 0h-76l160 800q8 40 8 72q0 118 -76.5 203t-193.5 85q-97 0 -168.5 -60t-71.5 -150q0 -83 60 -150h-90q-70 89 -70 220q0 130 108 215t252 85q147 0 240 -115.5t93 -264.5q0 -66 -15 -140z" />
    <glyph glyph-name="tm_iikaar" unicode="&#xbc0;" horiz-adv-x="924" 
d="M636 1220q-66 0 -113 -47t-47 -113q0 -75 38 -140t114 -120h-110q-61 49 -91.5 114t-30.5 146q0 104 82 177t206 73q112 0 192 -64.5t80 -165.5q0 -66 -46.5 -113t-113.5 -47q-81 0 -140.5 52t-59.5 128q0 72 40 120zM718 1212q-42 -33 -42 -112q0 -39 26 -64.5t68 -25.5
q76 0 76 70q0 51 -36.5 88.5t-91.5 43.5z" />
    <glyph glyph-name="tm_ukaar" unicode="&#xbc1;" horiz-adv-x="1050" 
d="M810 720h-180l-28 -140q-3 -15 -3 -46q0 -94 77 -94t96 94zM990 800l-50 -234q-24 -113 -88 -169.5t-168 -56.5q-74 0 -122 54.5t-48 131.5q0 26 6 54l30 140h-880v80h1320z" />
    <glyph glyph-name="tm_uukaar" unicode="&#xbc2;" horiz-adv-x="1468" 
d="M770 720h-180l-28 -140q-3 -15 -3 -46q0 -94 77 -94t96 94zM950 800l-50 -234q-24 -113 -88 -169.5t-168 -56.5q-74 0 -122 54.5t-48 131.5q0 26 6 54l30 140h-840v80h860q43 120 153 190t247 70q169 0 284.5 -123.5t115.5 -296.5q0 -261 -166.5 -450.5t-413.5 -189.5
q-216 0 -358 179.5t-142 420.5h80q0 -201 119 -350.5t301 -149.5q183 0 301.5 156.5t118.5 363.5q0 137 -86 238.5t-214 101.5q-89 0 -161 -43t-99 -117h340z" />
    <glyph glyph-name="tm_ekaar" unicode="&#xbc6;" horiz-adv-x="1466" 
d="M1284 0h-76l120 600q17 83 17 170q0 167 -110.5 308.5t-288.5 141.5q-269 0 -454.5 -193.5t-185.5 -466.5q0 -170 102.5 -295t257.5 -125q-50 51 -75 114t-25 138q0 108 68.5 178t171.5 70q102 0 166 -98t64 -222q0 -143 -103 -241.5t-247 -98.5q-199 0 -329.5 174
t-130.5 406q0 334 200 577t500 243q220 0 366 -167t146 -382q0 -62 -14 -131zM916 380q0 64 -37 112t-93 48q-63 0 -101.5 -42.5t-38.5 -109.5q0 -72 27.5 -133t82.5 -111q80 38 120 97t40 139z" />
    <glyph glyph-name="tm_eekaar" unicode="&#xbc7;" horiz-adv-x="1306" 
d="M1014 1216q-65 24 -132 24q-241 0 -410.5 -169t-169.5 -411q0 -237 149 -408.5t371 -171.5q50 0 90 20q-45 50 -67.5 115t-22.5 145q0 114 71.5 197t178.5 83q95 0 157.5 -55.5t62.5 -144.5q0 -189 -144 -314.5t-346 -125.5q-249 0 -414.5 196.5t-165.5 463.5
q0 276 192 468t468 192q185 0 322.5 -94.5t137.5 -245.5q0 -92 -63.5 -156t-156.5 -64q-94 0 -157 62t-63 154q0 70 28 130t84 110zM1082 1180q-50 -32 -75 -82t-25 -118q0 -51 31.5 -85.5t78.5 -34.5q49 0 79.5 41t30.5 99q0 56 -30 101t-90 79zM992 148q59 37 99.5 103.5
t40.5 128.5q0 56 -31 98t-79 42q-53 0 -86.5 -49t-33.5 -111q0 -53 22.5 -106t67.5 -106z" />
    <glyph glyph-name="tm_aikaar" unicode="&#xbc8;" horiz-adv-x="1772" 
d="M614 240q0 41 -25 70.5t-65 29.5q-45 0 -67.5 -25t-22.5 -75q0 -73 38 -140q71 12 106.5 47t35.5 93zM1148 270q0 64 -26.5 142.5t-65.5 129.5q-54 -57 -81 -127.5t-27 -154.5q0 -55 27.5 -97.5t72.5 -42.5q46 0 73 44t27 106zM1476 40q50 73 75 168t25 212
q0 112 -65 196t-165 84q-97 0 -180 -70q71 -80 106.5 -170t35.5 -190q0 -114 -60.5 -192t-159.5 -78q-97 0 -158.5 75.5t-61.5 184.5q0 101 35.5 187t106.5 157q-100 96 -258 96q-236 0 -367 -108.5t-131 -271.5q0 -76 38 -137t102 -83q-40 68 -40 140q0 99 61.5 159.5
t158.5 60.5q75 0 127.5 -52.5t52.5 -127.5q0 -117 -81.5 -198.5t-198.5 -81.5q-126 0 -213 94.5t-87 225.5q0 203 165.5 341.5t412.5 138.5q188 0 348 -108q131 108 256 108q159 0 269.5 -110.5t110.5 -269.5q0 -117 -55 -222t-165 -198z" />
    <glyph glyph-name="tm_okaar" unicode="&#xbca;" horiz-adv-x="2322" 
d="M1284 0h-76l120 600q17 83 17 170q0 167 -110.5 308.5t-288.5 141.5q-269 0 -454.5 -193.5t-185.5 -466.5q0 -170 102.5 -295t257.5 -125q-50 51 -75 114t-25 138q0 108 68.5 178t171.5 70q102 0 166 -98t64 -222q0 -143 -103 -241.5t-247 -98.5q-199 0 -329.5 174
t-130.5 406q0 334 200 577t500 243q220 0 366 -167t146 -382q0 -62 -14 -131zM916 380q0 64 -37 112t-93 48q-63 0 -101.5 -42.5t-38.5 -109.5q0 -72 27.5 -133t82.5 -111q80 38 120 97t40 139zM2457 800l-20 -80h-166l-144 -720h-160l144 720h-314l-144 -720h-76l160 800
h720z" />
    <glyph glyph-name="tm_ookaar" unicode="&#xbcb;" horiz-adv-x="2218" 
d="M1014 1216q-65 24 -132 24q-241 0 -410.5 -169t-169.5 -411q0 -237 149 -408.5t371 -171.5q50 0 90 20q-45 50 -67.5 115t-22.5 145q0 114 71.5 197t178.5 83q95 0 157.5 -55.5t62.5 -144.5q0 -189 -144 -314.5t-346 -125.5q-249 0 -414.5 196.5t-165.5 463.5
q0 276 192 468t468 192q185 0 322.5 -94.5t137.5 -245.5q0 -92 -63.5 -156t-156.5 -64q-94 0 -157 62t-63 154q0 70 28 130t84 110zM1082 1180q-50 -32 -75 -82t-25 -118q0 -51 31.5 -85.5t78.5 -34.5q49 0 79.5 41t30.5 99q0 56 -30 101t-90 79zM992 148q59 37 99.5 103.5
t40.5 128.5q0 56 -31 98t-79 42q-53 0 -86.5 -49t-33.5 -111q0 -53 22.5 -106t67.5 -106zM2355 800l-20 -80h-166l-144 -720h-160l144 720h-314l-144 -720h-76l160 800h720z" />
    <glyph glyph-name="tm_aukaar" unicode="&#xbcc;" horiz-adv-x="2962" 
d="M1284 0h-76l120 600q17 83 17 170q0 167 -110.5 308.5t-288.5 141.5q-269 0 -454.5 -193.5t-185.5 -466.5q0 -170 102.5 -295t257.5 -125q-50 51 -75 114t-25 138q0 108 68.5 178t171.5 70q102 0 166 -98t64 -222q0 -143 -103 -241.5t-247 -98.5q-199 0 -329.5 174
t-130.5 406q0 334 200 577t500 243q220 0 366 -167t146 -382q0 -62 -14 -131zM916 380q0 64 -37 112t-93 48q-63 0 -101.5 -42.5t-38.5 -109.5q0 -72 27.5 -133t82.5 -111q80 38 120 97t40 139zM1947 280q0 110 -60 110q-45 0 -72.5 -46t-27.5 -98q0 -93 40 -126
q54 3 87 49.5t33 110.5zM2911 720l-144 -720h-160l144 720h-240l-144 -720h-160l74 380q7 36 7 66q0 124 -79 209t-202 85q-161 0 -270.5 -117.5t-109.5 -282.5q0 -78 30 -128t90 -72q-30 56 -30 130q0 91 61 155.5t149 64.5q76 0 128 -59.5t52 -140.5q0 -118 -74.5 -204
t-185.5 -86q-128 0 -214 101.5t-86 238.5q0 197 133.5 338.5t326.5 141.5q164 0 265.5 -91.5t118.5 -228.5l60 300h646l-20 -80h-166z" />
    <glyph glyph-name="tm_halant" unicode="&#xbcd;" horiz-adv-x="0" 
d="M-170 1000q-58 0 -99 41t-41 99q0 59 41 99.5t99 40.5q59 0 99.5 -40.5t40.5 -99.5q0 -58 -40.5 -99t-99.5 -41z" />
    <glyph glyph-name="tm_Om" unicode="&#xbd0;" horiz-adv-x="1424" 
d="M614 240q0 41 -25 70.5t-65 29.5t-65 -29.5t-25 -70.5q0 -112 40 -160q59 10 99.5 55.5t40.5 104.5zM1394 360q0 -127 -73.5 -223.5t-186.5 -96.5q-79 0 -129.5 73.5t-50.5 166.5q-60 -34 -60 -120q0 -90 57.5 -155t142.5 -65h200l-20 -80h-180q-61 0 -106 -40t-74 -120
q-47 -128 -168.5 -204t-271.5 -76q-152 0 -257.5 75.5t-105.5 169.5q0 17 3 35l40 200h80l-40 -180q-4 -20 -4 -40q0 -33 12 -56h136l42 204q16 78 104 78q78 0 132 -52t54 -130q0 -61 -36.5 -106.5t-91.5 -45.5h-276q85 -72 208 -72q111 0 196 67t104 173q12 69 50.5 124.5
t89.5 55.5q-100 84 -100 220q0 121 74 210.5t186 89.5q-40 -48 -40 -160q0 -55 27.5 -97.5t72.5 -42.5q46 0 73 56.5t27 123.5q0 165 -138 272.5t-322 107.5q-203 0 -361.5 -105.5t-158.5 -274.5q0 -76 38 -137t102 -83q-40 68 -40 140q0 93 64 156.5t156 63.5
q75 0 127.5 -52.5t52.5 -127.5q0 -117 -81.5 -198.5t-198.5 -81.5q-126 0 -213 94.5t-87 225.5q0 209 181.5 344.5t418.5 135.5q240 0 430 -122.5t190 -317.5zM416 -376h126q31 0 50.5 31t19.5 69q0 47 -24.5 84.5t-63.5 37.5q-48 0 -66 -48zM712 -96q-68 0 -68 54
q0 56 68 56t68 -56q0 -54 -68 -54z" />
    <glyph glyph-name="tm_au_lengthmk" unicode="&#xbd7;" horiz-adv-x="1606" 
d="M590 280q0 110 -60 110q-45 0 -72.5 -46t-27.5 -98q0 -93 40 -126q54 3 87 49.5t33 110.5zM1554 720l-144 -720h-160l144 720h-240l-144 -720h-160l74 380q7 36 7 66q0 124 -79 209t-202 85q-161 0 -270.5 -117.5t-109.5 -282.5q0 -78 30 -128t90 -72q-30 56 -30 130
q0 91 61 155.5t149 64.5q76 0 128 -59.5t52 -140.5q0 -118 -74.5 -204t-185.5 -86q-128 0 -214 101.5t-86 238.5q0 197 133.5 338.5t326.5 141.5q164 0 265.5 -91.5t118.5 -228.5l60 300h646l-20 -80h-166z" />
    <glyph glyph-name="tm_digit_zero" unicode="&#xbe6;" horiz-adv-x="840" 
d="M390 0q-140 0 -215 76t-75 194q0 195 126.5 362.5t343.5 167.5q140 0 220 -71t80 -189q0 -205 -130 -372.5t-350 -167.5zM532 720q-146 0 -236.5 -148.5t-90.5 -295.5q0 -94 47.5 -145t130.5 -51q146 0 236.5 148t90.5 300q0 84 -47 138t-131 54z" />
    <glyph glyph-name="tm_one" unicode="&#xbe7;" horiz-adv-x="1628" 
d="M984 360h-310q-49 0 -84.5 -28.5t-35.5 -71.5q0 -80 80 -130t180 -50q51 0 89 33.5t49 86.5zM1056 720h-222l-56 -280h222zM1128 280q-28 -138 -115.5 -209t-198.5 -71q-133 0 -236.5 73t-103.5 187q0 76 59.5 128t140.5 52h28l72 360h700l-20 -80h-238l-56 -280h114
q90 0 155 -57.5t65 -142.5q0 -104 -83.5 -172t-196.5 -68q-64 0 -100 20l20 40q18 -10 60 -10q63 0 101.5 65t38.5 145q0 41 -22.5 70.5t-57.5 29.5h-110z" />
    <glyph glyph-name="tm_two" unicode="&#xbe8;" horiz-adv-x="1628" 
d="M1420 80l-20 -80h-730q-180 0 -180 120q0 54 55.5 87t124.5 33h220q101 0 170.5 70t69.5 170q0 90 -50.5 160t-129.5 70q-44 0 -100 -30q80 -46 80 -180q0 -64 -47.5 -107t-112.5 -43q-64 0 -107 50.5t-43 119.5q0 125 119 202.5t271 77.5q117 0 198.5 -81.5t81.5 -198.5
q0 -154 -118 -257t-282 -103h-210q-50 0 -50 -40t60 -40h730zM770 640q-60 -51 -60 -100q0 -100 50 -100t50 100q0 52 -40 100z" />
    <glyph glyph-name="tm_three" unicode="&#xbe9;" horiz-adv-x="1628" 
d="M1452 80l-20 -80h-700l20 80h140q107 0 183.5 68.5t76.5 171.5q0 43 -28.5 71.5t-71.5 28.5q-34 0 -63 -31t-37 -69l-20 -100h-160l100 500h-220l-144 -720h-76l160 800h660l-20 -80h-200l-50 -260q68 60 150 60q76 0 128 -59.5t52 -140.5q0 -82 -66 -147.5t-164 -92.5
h370z" />
    <glyph glyph-name="tm_four" unicode="&#xbea;" horiz-adv-x="1630" 
d="M1046 360h-310q-49 0 -84.5 -28.5t-35.5 -71.5q0 -80 80 -130t180 -50q51 0 89 33.5t49 86.5zM1118 720h-222l-56 -280h222zM1190 280q-28 -138 -115.5 -209t-198.5 -71q-133 0 -236.5 73t-103.5 187q0 76 59.5 128t140.5 52h28l72 360h700l-16 -80h-242l-56 -280h186
l18 90h70l-34 -170h-256z" />
    <glyph glyph-name="tm_five" unicode="&#xbeb;" horiz-adv-x="1628" 
d="M1614 590l-60 10q12 43 12 84q0 141 -133 258.5t-329 117.5q-271 0 -445.5 -242.5t-174.5 -557.5q0 -310 105 -465t315 -155q215 0 357.5 174t142.5 406q0 73 -32 127.5t-84 54.5q-31 0 -61.5 -17.5t-38.5 -44.5l-68 -340h-160l144 720h-236l-144 -720h-76l160 800h606
l-20 -80h-130l-56 -280q50 60 130 60q103 0 164.5 -78.5t61.5 -201.5q0 -274 -189 -467t-461 -193q-240 0 -375 184.5t-135 475.5q0 367 189 653.5t491 286.5q233 0 389 -143.5t156 -316.5q0 -54 -15 -110z" />
    <glyph glyph-name="tm_six" unicode="&#xbec;" horiz-adv-x="1628" 
d="M896 360h-310q-49 0 -84.5 -28.5t-35.5 -71.5q0 -80 80 -130t180 -50q51 0 89 33.5t49 86.5zM968 720h-222l-56 -280h222zM1040 280q-28 -138 -115.5 -209t-198.5 -71q-133 0 -236.5 73t-103.5 187q0 76 59.5 128t140.5 52h28l72 360h720l-20 -80h-258l-56 -280h554
l-14 -80h-66l-70 -360h-160l70 360h-110l-70 -360h-100l70 360h-120z" />
    <glyph glyph-name="tm_seven" unicode="&#xbed;" horiz-adv-x="1628" 
d="M734 100q73 0 126.5 46t53.5 114q0 47 -22 83.5t-58 36.5q-52 0 -86 -41.5t-34 -98.5q0 -86 20 -140zM1190 0l144 720h-360q-170 0 -295 -102.5t-125 -257.5q0 -78 25 -138t75 -102q-20 34 -20 140q0 107 68.5 183.5t171.5 76.5q82 0 136 -65.5t54 -154.5
q0 -123 -77.5 -211.5t-192.5 -88.5q-137 0 -228.5 107t-91.5 253q0 189 149 314.5t351 125.5h660l-20 -80h-120l-144 -720h-160z" />
    <glyph glyph-name="tm_eight" unicode="&#xbee;" horiz-adv-x="1630" 
d="M970 720q-119 -21 -204.5 -93t-85.5 -167q0 -73 49.5 -126.5t120.5 -53.5q83 0 136.5 72.5t53.5 167.5q0 143 -70 200zM1170 160h-700q-35 0 -62.5 -16.5t-27.5 -43.5q0 -50 90.5 -115t259.5 -65q119 0 229 60t211 180zM1616 -280h-166l90 440h-210
q-130 -155 -285 -232.5t-335 -77.5q-229 0 -354.5 90.5t-125.5 199.5q0 43 35.5 71.5t84.5 28.5h410q-70 25 -115 85.5t-45 134.5q0 150 144.5 245t325.5 95q152 0 266 -91t114 -229q0 -129 -64 -240h174l112 560h160zM1130 710q60 -104 60 -240q0 -164 -140 -230h180
q80 112 80 220q0 96 -50 173t-130 77z" />
    <glyph glyph-name="tm_nine" unicode="&#xbef;" horiz-adv-x="1630" 
d="M792 360h-310q-49 0 -84.5 -28.5t-35.5 -71.5q0 -80 80 -130t180 -50q51 0 89 33.5t49 86.5zM864 720h-222l-56 -280h222zM1322 200q0 96 -120 140q-80 -67 -80 -160q0 -42 29 -71t71 -29q43 0 71.5 35.5t28.5 84.5zM1482 0q90 107 90 220q0 80 -48.5 140t-121.5 60
q-74 0 -130 -30q62 -22 101 -74t39 -116q0 -82 -55.5 -141t-134.5 -59q-74 0 -127 53t-53 127q0 113 80 180h-170l-16 -80q-28 -138 -115.5 -209t-198.5 -71q-133 0 -236.5 73t-103.5 187q0 76 59.5 128t140.5 52h28l72 360h700l-20 -80h-238l-56 -280h114q76 0 120 -20
q68 60 200 60q115 0 197.5 -75t82.5 -185q0 -96 -70 -220h-130z" />
    <glyph glyph-name="tm_ten" unicode="&#xbf0;" horiz-adv-x="1440" 
d="M682 170q-44 -85 -101.5 -127.5t-128.5 -42.5q-106 0 -175.5 72.5t-69.5 155.5q0 28 5 52l106 520h160l-106 -520q-5 -25 -5 -46q0 -58 29.5 -106t75.5 -48q67 0 127.5 86.5t92.5 243.5l80 390h160l-80 -400q-20 -100 -20 -168q0 -61 37 -106.5t93 -45.5q132 0 211 153.5
t79 336.5q0 219 -114 389.5t-296 170.5l20 60q235 0 392.5 -184t157.5 -436q0 -227 -133 -398.5t-337 -171.5q-97 0 -172 46t-88 124z" />
    <glyph glyph-name="tm_hundred" unicode="&#xbf1;" horiz-adv-x="1332" 
d="M1466 800l-18 -80h-172l-144 -720h-160l144 720h-236l-144 -720h-160l108 540q8 40 8 70q0 51 -20 90.5t-56 39.5q-64 0 -113.5 -58.5t-66.5 -141.5l-110 -540h-160l110 540q24 120 108.5 200t189.5 80q73 0 127.5 -42.5t54.5 -107.5l26 130h684z" />
    <glyph glyph-name="tm_thousand" unicode="&#xbf2;" horiz-adv-x="1436" 
d="M630 360h-310q-49 0 -84.5 -28.5t-35.5 -71.5q0 -80 80 -130t180 -50q51 0 89 33.5t49 86.5zM702 720h-222l-56 -280h222zM774 280q-28 -138 -115.5 -209t-198.5 -71q-133 0 -236.5 73t-103.5 187q0 76 59.5 128t140.5 52h28l72 360h720l-16 -80h-262l-56 -280h474
l-16 -80h-154l-30 -160q52 60 140 60q76 0 128 -59.5t52 -140.5q0 -149 -133.5 -244.5t-306.5 -95.5q-114 0 -340 45q-225 45 -340 45q-73 0 -126.5 -46t-53.5 -114q0 -89 80 -120l-10 -40q-77 14 -128.5 67t-51.5 123q0 85 90.5 137.5t199.5 52.5q115 0 340 -45
q226 -45 340 -45q112 0 196 65t84 165q0 59 -27.5 104.5t-72.5 45.5t-80 -60l-20 -100h-160l70 360h-160z" />
    <glyph glyph-name="tm_day_sign" unicode="&#xbf3;" horiz-adv-x="1549" 
d="M588 260q0 38 -19.5 69t-50.5 31q-40 0 -65 -36t-25 -84q0 -67 40 -140q54 3 87 50t33 110zM1496 0h-728q200 167 200 400q0 135 -104 227.5t-246 92.5q-147 0 -248.5 -110.5t-101.5 -269.5q0 -86 30 -146t90 -94q-40 68 -40 140q0 93 64 156.5t156 63.5q76 0 128 -59.5
t52 -140.5q0 -108 -75.5 -184t-184.5 -76q-128 0 -214 101.5t-86 238.5q0 199 136.5 339.5t333.5 140.5q191 0 330.5 -120.5t139.5 -299.5q0 -175 -120 -320h503z" />
    <glyph glyph-name="tm_month_sign" unicode="&#xbf4;" horiz-adv-x="1851" 
d="M180 0l160 800h160l-144 -720h420l104 520q18 88 73 144t127 56h5q-121 99 -121 230q0 109 67 179.5t171 70.5q49 0 89 -10q62 40 142 40q107 0 166.5 -80t59.5 -177q0 -67 -16 -128t-48 -125h250l-15 -80h-338v40q33 53 60 126.5t27 167.5q0 81 -38.5 133t-109.5 52
q-32 0 -59 -6q10 -8 19 -16q67 -62 67 -153q0 -68 -42 -116t-105 -48q-69 0 -108 47t-39 113q0 78 59 149q-11 1 -22 1q-72 0 -114.5 -50.5t-42.5 -129.5q0 -150 189 -266q67 -35 119 -102q108 -138 108 -322q0 -133 -73 -236.5t-187 -103.5h-1020zM1380 340
q0 136 -59.5 248t-160.5 112q-44 0 -78 -30.5t-42 -69.5l-104 -520h264q80 0 130 80t50 180zM1289 1184q-45 -54 -45 -124q0 -36 18 -58t49 -22q35 0 51 24t16 60q0 71 -53 108q-14 11 -31 19q-3 -3 -5 -7z" />
    <glyph glyph-name="tm_year_sign" unicode="&#xbf5;" horiz-adv-x="2708" 
d="M864 280q0 110 -60 110q-45 0 -72.5 -46t-27.5 -98q0 -93 40 -126q54 3 87 49.5t33 110.5zM2084 200q0 -294 -280.5 -477t-643.5 -183q-377 0 -657.5 227.5t-280.5 572.5q0 271 161 471.5t426.5 294.5t566.5 94q389 0 670.5 -187.5t281.5 -492.5q0 -35 -14 -144t-14 -160
q0 -68 20 -102t60 -34q96 0 151 140.5t55 299.5q0 54 -27 102.5t-71 57.5q-82 17 -82 70q0 60 76 60q84 0 131 -85t47 -205q0 -216 -87 -368t-203 -152q-81 0 -121.5 57.5t-40.5 172.5q0 44 14 141q14 96 14 139q0 264 -261 427t-597 163q-269 0 -518.5 -78.5t-397.5 -259.5
t-148 -422q0 -310 253 -515t593 -205q302 0 533 162t231 398q0 74 -27 137t-73 63q-24 0 -47 -11q-8 -10 -24 -27l-69 -342h-160l144 720h-240l-144 -720h-160l74 380q7 36 7 66q0 124 -79 209t-202 85q-161 0 -270.5 -117.5t-109.5 -282.5q0 -78 30 -128t90 -72
q-30 56 -30 130q0 91 61 155.5t149 64.5q76 0 128 -59.5t52 -140.5q0 -118 -74.5 -204t-185.5 -86q-128 0 -214 101.5t-86 238.5q0 197 133.5 338.5t326.5 141.5q164 0 265.5 -91.5t118.5 -228.5l60 300h694l-20 -80h-214l-55 -278q41 38 111 38q89 0 144.5 -85.5
t55.5 -194.5z" />
    <glyph glyph-name="tm_debit_sign" unicode="&#xbf6;" horiz-adv-x="1692" 
d="M1082 -120h248l182 920h160l-200 -1000h-450q-111 -130 -247.5 -185t-278.5 -55q-156 0 -300 89.5t-144 170.5q0 60 62 60h806q28 57 44 120h-784l160 800h160l-144 -720h632l142 720h160l-160 -793q-9 -49 -48 -127zM872 -200h-720q45 -69 143.5 -114.5t200.5 -45.5
q126 0 223.5 45t152.5 115z" />
    <glyph glyph-name="tm_credit_sign" unicode="&#xbf7;" horiz-adv-x="2235" 
d="M1152 720h-454q-170 0 -295 -102.5t-125 -257.5q0 -78 25 -138t75 -102q-20 34 -20 140q0 107 68.5 183.5t171.5 76.5q82 0 136 -65.5t54 -154.5q0 -123 -77.5 -211.5t-192.5 -88.5q-137 0 -228.5 107t-91.5 253q0 189 149 314.5t351 125.5h823l-20 -80h-189l-56 -280
q40 7 97 10q46 3 99 4q8 10 18 20q110 116 265 116q147 0 219.5 -70t72.5 -167q0 -67 -24 -128t-76 -145h240l-15 -80h-328v40q33 53 63 131.5t30 172.5q0 81 -51.5 128t-132.5 47q-110 0 -187 -69q100 -13 151 -66q68 -69 58 -166q0 -76 -65 -148t-153 -72q-79 0 -128 58
t-49 153q0 91 41 171q-23 -2 -49 -5q-76 -7 -110 -17l-74 -358h-160zM1577 343q-42 35 -88 39q-49 -78 -49 -177q0 -61 23.5 -93.5t64.5 -32.5q44 0 70.5 47t26.5 102q0 76 -48 115zM638 260q0 47 -22 83.5t-58 36.5q-52 0 -86 -41.5t-34 -98.5q0 -86 20 -140q73 0 126.5 46
t53.5 114z" />
    <glyph glyph-name="tm_as_above_sign" unicode="&#xbf8;" horiz-adv-x="2452" 
d="M1518 0q90 107 90 230q0 92 -33 133q-20 25 -41 35l-6 -31q-38 -192 -106 -279.5t-154 -87.5q-74 0 -122 49t-48 131q0 110 98 205t242 95h19q17 111 17 230q0 217 -140 363.5t-368 146.5q-269 0 -464.5 -193.5t-195.5 -466.5q0 -170 102.5 -295t257.5 -125
q-50 51 -75 114t-25 138q0 108 68.5 178t171.5 70q102 0 166 -98t64 -222q0 -143 -103 -241.5t-247 -98.5q-199 0 -329.5 174t-130.5 406q0 334 210 577t510 243q270 0 445.5 -187t175.5 -472q0 -121 -21 -258q55 -20 106 -65q66 -58 66 -178q0 -84 -30 -140h188l44 220
q-80 15 -130 77t-50 143q0 113 68 196.5t172 83.5q67 0 113.5 -50.5t46.5 -121.5q0 -35 -12 -92l-32 -156q92 0 182 58t162 162l-120 -600h-300l-80 -400h-160l80 400h-342zM916 380q0 64 -37 112t-93 48q-63 0 -101.5 -42.5t-38.5 -109.5q0 -72 27.5 -133t82.5 -111
q80 38 120 97t40 139zM1271 350q-73 -70 -73 -160q0 -43 19.5 -66.5t60.5 -23.5q43 0 86 70t76 221q3 12 6 25q-109 -2 -175 -66zM1981 620q0 32 -18 51t-43 19q-46 0 -73 -53t-27 -117q0 -58 35 -99t81 -41l40 200q5 23 5 40zM2230 330q-55 -30 -150 -30l-44 -220h144z" />
    <glyph glyph-name="tm_rupee_sign" unicode="&#xbf9;" horiz-adv-x="1566" 
d="M1421 975q-77 45 -166.5 65t-169.5 20q-354 0 -565.5 -257.5t-211.5 -582.5q0 -300 113.5 -440t309.5 -140q215 0 357.5 174t142.5 406q0 73 -32 127.5t-84 54.5q-31 0 -61.5 -17.5t-38.5 -44.5l-68 -340h-160l144 720h-236l-144 -720h-76l160 800h606l-20 -80h-130
l-56 -280q50 60 130 60q103 0 164.5 -78.5t61.5 -201.5q0 -274 -189 -467t-461 -193q-240 0 -376.5 169.5t-136.5 480.5q0 367 237 658.5t648 291.5q224 0 392.5 -107t168.5 -275q0 -91 -53.5 -155.5t-133.5 -64.5q-71 0 -120.5 56.5t-49.5 135.5q0 129 104 225zM1467 936
q-83 -67 -82 -186q0 -35 21 -58.5t51 -23.5q36 0 58.5 32.5t22.5 77.5q0 103 -71 158z" />
    <glyph glyph-name="tm_number_sign" unicode="&#xbfa;" horiz-adv-x="1925" 
d="M870 20q50 82 50 210q0 69 -29.5 114.5t-78.5 45.5q-31 0 -56 -17t-32 -53l-64 -320h-160l144 720h-244l-144 -720h-76l160 800h665q-101 99 -98 199q0 98 65.5 164.5t179.5 66.5q148 0 254 -115q96 -104 106 -281q77 -13 130 -67q71 -71 71 -175q0 -57 -16 -107.5
t-38 -83.5h249l-15 -80h-337v40q40 46 58.5 96.5t18.5 135.5q0 68 -49 121q-30 33 -72 46q-5 -212 -79 -326q-80 -124 -176 -124q-71 0 -114 55t-43 147q0 118 98 222q73 79 183 98q-11 147 -69 228q-70 100 -168 100q-75 0 -116 -46.5t-41 -114.5q0 -98 113 -199l-20 -80
h-276l-54 -280q52 60 140 60q85 0 137.5 -71.5t52.5 -178.5q0 -155 -110 -270zM1252 685q-72 -82 -72 -185q0 -58 20.5 -83.5t54.5 -25.5q51 0 89 103q38 102 39 267q-81 -18 -131 -76z" />
    <glyph glyph-name="zerowidthnonjoiner" unicode="&#x200c;" horiz-adv-x="0" 
d="M360 1400l-398 -1990h-80l398 1990h80z" />
    <glyph glyph-name="zerowidthjoiner" unicode="&#x200d;" horiz-adv-x="0" 
d="M474 1139l-59 -49l-107 136l-336 -1731h-72l336 1731l-161 -136l-39 49l204 169l-139 168l59 49l137 -171l203 171l39 -49l-203 -168z" />
    <glyph glyph-name="u2013" unicode="&#x2013;" 
d="M838 365h-852v58h852v-58z" />
    <glyph glyph-name="u2014" unicode="&#x2014;" horiz-adv-x="1466" 
d="M1481 364l-1496 1v59l1496 -1v-59z" />
    <glyph glyph-name="u2018" unicode="&#x2018;" horiz-adv-x="549" 
d="M585 1092q-61 -27 -94 -64.5t-33 -66.5q0 -15 5 -27q2 -7 21.5 -26t22.5 -27q6 -13 6 -31q0 -35 -24.5 -60t-55.5 -25q-33 0 -58.5 26.5t-25.5 66.5q0 72 56.5 145t163.5 114z" />
    <glyph glyph-name="u2019" unicode="&#x2019;" horiz-adv-x="549" 
d="M323 791q60 26 98 69q29 32 29 61q0 15 -5 27q-3 7 -22.5 26t-21.5 27q-6 12 -6 31q0 35 24 60t56 25q33 0 58.5 -27t25.5 -67q0 -71 -56.5 -144.5t-163.5 -113.5z" />
    <glyph glyph-name="quotesinglbase" unicode="&#x201a;" horiz-adv-x="549" 
d="M52 -181q61 27 99 69q29 32 29 62q0 15 -5 27q-4 6 -23 25.5t-22 26.5q-5 14 -5 31q0 35 23.5 60t55.5 25q33 0 58.5 -26.5t25.5 -66.5q0 -72 -56.5 -145.5t-163.5 -113.5z" />
    <glyph glyph-name="u201C" unicode="&#x201c;" horiz-adv-x="917" 
d="M552 1092q-61 -25 -104 -75q-21 -24 -21 -59q0 -16 4 -27q2 -5 20 -26.5t23 -31.5q6 -14 6 -28q0 -34 -24.5 -59t-57.5 -25t-57 26t-24 69q0 47 25 97t74 91q34 28 118 73zM922 1092q-82 -45 -104.5 -74.5t-22.5 -57.5q0 -17 6 -29q2 -6 20.5 -27t22.5 -29q5 -14 5 -28
q0 -36 -24 -61t-58 -25t-57.5 25t-23.5 69q0 69 50 135t170 121z" />
    <glyph glyph-name="u201D" unicode="&#x201d;" horiz-adv-x="917" 
d="M670 791q60 24 104 74q21 25 21 58q0 16 -4 26q-2 6 -20 27t-23 30q-7 14 -7 28q0 33 25 58t58 25t57 -26t24 -69q0 -48 -25 -98t-74 -90q-34 -28 -119 -73zM300 791q82 44 104.5 73t22.5 56q0 16 -6 28q-2 7 -20.5 28t-22.5 29q-5 13 -5 27q0 35 24 60t57 25
q35 0 58.5 -25.5t23.5 -69.5q0 -159 -220 -260z" />
    <glyph glyph-name="quotedblbase" unicode="&#x201e;" horiz-adv-x="917" 
d="M394 -180q60 24 103 74q22 24 22 57q0 16 -5 26q-1 6 -19 27t-23 31q-7 13 -7 28q0 33 24.5 58t58.5 25q33 0 57 -26.5t24 -68.5q0 -49 -25 -98.5t-74 -90.5q-34 -28 -119 -73zM24 -181q81 44 104 73t23 56q0 17 -6 29q-3 6 -21 27t-22 29q-5 13 -5 27q0 35 24 60.5
t57 25.5q35 0 58.5 -26t23.5 -70q0 -159 -220 -260z" />
    <glyph glyph-name="dagger" unicode="&#x2020;" 
d="M552 541q-71 -128 -131 -279.5t-201 -595.5h-31q189 591 189 848v27q45 41 73.5 84.5t48.5 103.5q-60 -7 -134.5 -39t-104.5 -32q-36 0 -63 24q-20 18 -20 46q0 29 23.5 49.5t63.5 20.5q38 0 104 -24q46 -16 66.5 -20t72.5 -6q15 54 15 132l-3 108q0 57 35 99
q25 30 63 30q31 0 51.5 -21.5t20.5 -56.5q0 -30 -11 -56q-14 -36 -59 -96t-58 -82.5t-23 -56.5q49 3 66 6.5t56 15.5q78 27 117 27q37 0 59.5 -20.5t22.5 -48.5t-23 -49.5t-59 -21.5q-22 0 -42 5.5t-79.5 31.5t-126.5 35q-8 -52 -8 -83q0 -51 30 -105z" />
    <glyph glyph-name="daggerdbl" unicode="&#x2021;" 
d="M557 611q-71 -57 -115.5 -156t-44.5 -192q0 -34 16 -86q-79 -67 -116 -177q72 4 129 24t87 20q25 0 43.5 -17.5t18.5 -42.5t-18 -42.5t-42 -17.5q-28 0 -98 27q-52 20 -130 24q-18 -76 -20 -156q-2 -106 -27.5 -140.5t-58.5 -34.5q-19 0 -37 19t-18 42q0 50 51 128
t76 142q-69 -7 -135 -31q-50 -18 -81 -18q-24 0 -42 17.5t-18 40.5t18.5 42t40.5 19q32 0 93.5 -21.5t135.5 -23.5q12 47 12 76q0 51 -32 101q73 56 118 155t45 195q0 36 -16 84q39 31 63 66t55 112q-66 -4 -126.5 -24t-93.5 -20q-24 0 -42.5 18.5t-18.5 42.5q0 23 19 41
t45 18q31 0 93 -23t133 -26q20 73 20 166t26 128t60 35q20 0 37 -18t17 -39q0 -56 -51 -131.5t-78 -140.5q67 6 125.5 26.5t91.5 20.5q24 0 44 -19t20 -41q0 -23 -19 -41t-45 -18q-32 0 -95.5 21t-130.5 24q-13 -54 -13 -87q0 -42 29 -91z" />
    <glyph glyph-name="bullet" unicode="&#x2022;" horiz-adv-x="577" 
d="M341 747q84 0 143 -59t59 -143t-59 -143t-143 -59q-83 0 -142.5 59t-59.5 143t59 143t143 59z" />
    <glyph glyph-name="u2026" unicode="&#x2026;" horiz-adv-x="1466" 
d="M303 156q38 0 64 -26t26 -63t-26 -63.5t-64 -26.5q-37 0 -63 26.5t-26 63.5q0 38 26 63.5t63 25.5zM729 156q38 0 64 -26t26 -63t-26.5 -63.5t-63.5 -26.5t-63 26.5t-26 63.5q0 38 26 63.5t63 25.5zM1155 156q38 0 64 -26t26 -63t-26.5 -63.5t-63.5 -26.5t-63 26.5
t-26 63.5q0 38 26 63.5t63 25.5z" />
    <glyph glyph-name="perthousand" unicode="&#x2030;" horiz-adv-x="1649" 
d="M1067 1117l-895 -1160h-70l897 1160h68zM420 1117q74 0 131 -62t57 -159q0 -148 -98 -256t-211 -108q-84 0 -138 59t-54 156q0 95 48 183.5t125 137.5t140 49zM425 1083q-37 0 -67 -29q-59 -56 -104.5 -174t-45.5 -221q0 -44 24 -70.5t55 -26.5q40 0 66 24q55 51 103 173
t48 227q0 43 -24.5 70t-54.5 27zM871 539q81 0 137.5 -60t56.5 -157q0 -150 -98.5 -257.5t-208.5 -107.5q-82 0 -138.5 59.5t-56.5 153.5q0 149 99.5 259t208.5 110zM882 506q-39 0 -71 -30q-56 -53 -100 -174t-44 -216q0 -46 22.5 -71.5t54.5 -25.5q40 0 68 25
q56 51 103 170t47 217q0 50 -24 77.5t-56 27.5zM1438 539q79 0 133.5 -60t54.5 -161q0 -95 -47.5 -181.5t-118.5 -133t-141 -46.5q-80 0 -136 60t-56 155q0 147 100 257t211 110zM1447 506q-41 0 -70 -27q-52 -48 -99.5 -169.5t-47.5 -226.5q0 -42 24 -68t57 -26q37 0 61 21
q51 47 102.5 169t51.5 224q0 46 -27 78q-20 25 -52 25z" />
    <glyph glyph-name="guilsinglleft" unicode="&#x2039;" horiz-adv-x="549" 
d="M514 741l-275 -384l89 -382h-34l-201 382l376 384h45z" />
    <glyph glyph-name="guilsinglright" unicode="&#x203a;" horiz-adv-x="549" 
d="M37 -25l274 385l-89 381h35l200 -381l-376 -385h-44z" />
    <glyph glyph-name="uni20A8" unicode="&#x20a8;" horiz-adv-x="1675" 
d="M685 0l-175 530q-61 0 -125 13l-94 -330q-19 -65 -19 -109q0 -34 23 -53q18 -15 97 -21l-7 -30h-423l9 30q60 2 81 12q33 14 48 37q26 38 54 134l191 659q19 66 19 102q0 37 -30.5 63t-86.5 25l10 30h356q178 0 257 -68t79 -178q0 -105 -81 -192.5t-222 -110.5l107 -320
q38 -118 77 -153t125 -40l-9 -30h-261zM398 588q52 -7 92 -7q139 0 219.5 77t80.5 191q0 90 -50.5 137.5t-151.5 47.5q-25 0 -61 -7zM1631 729l-49 -248h-30q-4 108 -46 157t-104 49q-49 0 -78.5 -27t-29.5 -66q0 -26 11.5 -50.5t51.5 -67.5q104 -115 134.5 -172.5
t30.5 -109.5q0 -84 -69.5 -148.5t-175.5 -64.5q-58 0 -134 27q-26 10 -41 10q-36 0 -55 -37h-29l49 261h30q4 -123 50 -173.5t126 -50.5q61 0 97 34t36 84q0 32 -13 60q-23 48 -95 133.5t-92.5 128t-20.5 85.5q0 78 57 132t146 54q26 0 47 -4q11 -3 52.5 -18.5t55.5 -15.5
q34 0 58 38h30z" />
    <glyph glyph-name="Euro" unicode="&#x20ac;" 
d="M716 593h-433q-12 -34 -21 -67h436l-18 -62h-434q-25 -99 -25 -184q0 -232 166 -232q108 0 197 56q53 33 146 125l20 -16q-100 -109 -170 -156q-115 -76 -244 -76q-267 0 -267 306q0 82 20 177h-75l17 62h73l4 13q6 25 17 54h-74l17 63h82q82 191 220 315
q160 143 344 143q138 0 253 -71l-69 -240h-31q9 45 9 84q0 174 -177 174q-127 0 -240 -134q-88 -105 -153 -271h428z" />
    <glyph glyph-name="trademark" unicode="&#x2122;" horiz-adv-x="1616" 
d="M170 1092h586l18 -162h-28q-8 58 -42 85.5t-114 27.5h-60v-466q0 -67 16 -85.5t69 -20.5v-29h-301v29q52 5 66 22t14 83v467h-61q-76 0 -108.5 -25t-44.5 -88h-27zM1059 1092l220 -461l213 461h225v-30q-45 -1 -60 -9t-22 -26t-7 -74v-377q0 -68 15 -85t74 -20v-29h-320
v29q47 1 63.5 9.5t24 25.5t7.5 70v396l-247 -530h-25l-248 522v-388q0 -54 6.5 -70.5t21.5 -25.5t47 -9h28v-29h-246v29q45 0 61 8t23 25t7 72v376q0 61 -7 77t-23 24.5t-61 8.5v30h230z" />
    <glyph glyph-name="u2212" unicode="&#x2212;" horiz-adv-x="1113" 
d="M153 515v66h868v-66h-868z" />
    <glyph glyph-name="periodcentered" unicode="&#x2219;" horiz-adv-x="717" 
d="M616 532q0 -79 -55 -133.5t-134 -54.5q-78 0 -133 55t-55 133q0 79 54.5 134t133.5 55t134 -55t55 -134z" />
    <glyph glyph-name="u25CC" unicode="&#x25cc;" horiz-adv-x="1334" 
d="M748 760q-32 0 -48 16.5t-16 49.5q0 26 19 45t45 19q33 0 49.5 -16t16.5 -48q0 -33 -16.5 -49.5t-49.5 -16.5zM960 704q-33 0 -49.5 16.5t-16.5 49.5q0 32 16.5 48t49.5 16q26 0 45 -19t19 -45q0 -33 -16 -49.5t-48 -16.5zM538 704q-32 0 -48 16.5t-16 49.5q0 26 19 45
t45 19t45 -19t19 -45q0 -33 -16 -49.5t-48 -16.5zM1112 550q-26 0 -45 19t-19 45q0 33 16 49.5t48 16.5t48 -16.5t16 -49.5q0 -26 -19 -45t-45 -19zM384 550q-33 0 -49.5 16t-16.5 48q0 33 16.5 49.5t49.5 16.5q32 0 48 -16.5t16 -49.5q0 -26 -19 -45t-45 -19zM1170 340
q-33 0 -49.5 16t-16.5 48t16.5 48t49.5 16q26 0 45 -19t19 -45t-19 -45t-45 -19zM328 340q-33 0 -49.5 16t-16.5 48t16.5 48t49.5 16q26 0 45 -19t19 -45t-19 -45t-45 -19zM1112 128q-32 0 -48 16.5t-16 49.5q0 26 19 45t45 19t45 -19t19 -45q0 -33 -16 -49.5t-48 -16.5z
M384 128q-33 0 -49.5 16.5t-16.5 49.5q0 32 16.5 48t49.5 16q26 0 45 -19t19 -45q0 -33 -16 -49.5t-48 -16.5zM960 -26q-33 0 -49.5 16t-16.5 48q0 34 16.5 51t49.5 17q27 0 45.5 -20t18.5 -48q0 -26 -19 -45t-45 -19zM538 -26q-26 0 -45 19t-19 45q0 28 18.5 48t45.5 20
t45.5 -20t18.5 -48q0 -26 -19 -45t-45 -19zM748 -82q-26 0 -45 19t-19 45q0 33 16 49.5t48 16.5q33 0 49.5 -16.5t16.5 -49.5q0 -32 -16.5 -48t-49.5 -16z" />
    <glyph glyph-name="end" horiz-adv-x="1600" 
d="M200 1400h1200v-1400h-1200v1400zM1300 100v1200h-1000v-1200h1000z" />
    <glyph glyph-name="null" horiz-adv-x="0" 
 />
    <glyph glyph-name="tm_k_ikaar" horiz-adv-x="1552" 
d="M680 360h-310q-49 0 -84.5 -28.5t-35.5 -71.5q0 -80 80 -130t180 -50q51 0 89 33.5t49 86.5zM752 720h-222l-56 -280h222zM416 534l54 266h700l-20 -80h-238l-56 -280h114q90 0 155 -57.5t65 -142.5q0 -104 -83.5 -172t-196.5 -68q-64 0 -100 20l20 40q18 -10 60 -10
q63 0 101.5 65t38.5 145q0 41 -22.5 70.5t-57.5 29.5h-110l-16 -80q-28 -138 -115.5 -209t-198.5 -71q-133 0 -236.5 73t-103.5 187q0 26 7 50t21.5 44.5t37 38.5t48 29.5t53 14.5t53.5 5q-51 48 -84.5 132.5t-33.5 165.5q0 235 175.5 397.5t422.5 162.5q274 0 461.5 -162
t187.5 -361q0 -55 -11 -107l-140 -670h-76l140 670q8 36 8 72q0 158 -159 288t-391 130q-223 0 -380.5 -122t-157.5 -298q0 -110 64 -206z" />
    <glyph glyph-name="tm_ng_ikaar" horiz-adv-x="1766" 
d="M1492 800l-160 -800h-852l16 80h144q107 0 183.5 68.5t76.5 171.5q0 43 -28.5 71.5t-71.5 28.5q-34 0 -63 -31t-37 -69l-20 -100h-160l100 500h-220l-144 -720h-76l160 800h600l-18 -80h-142l-50 -260q68 60 150 60q76 0 128 -59.5t52 -140.5q0 -82 -66 -147.5
t-164 -92.5h374l102 500q-24 -14 -74 -14q-94 0 -150 97t-56 217q0 197 109.5 318.5t292.5 121.5q144 0 238.5 -112t94.5 -268q0 -66 -15 -140l-160 -800h-76l160 800q8 40 8 72q0 120 -77 204t-193 84q-133 0 -213.5 -79t-80.5 -205q0 -90 34.5 -157t97.5 -67q40 0 78 28
l24 120h144z" />
    <glyph glyph-name="tm_c_ikaar" horiz-adv-x="1430" 
d="M684 360h-310q-49 0 -84.5 -28.5t-35.5 -71.5q0 -80 80 -130t180 -50q51 0 89 33.5t49 86.5zM756 720h-222l-56 -280h222zM828 280q-28 -138 -115.5 -209t-198.5 -71q-133 0 -236.5 73t-103.5 187q0 76 59.5 128t140.5 52q-100 121 -100 320q0 234 177.5 392t422.5 158
q214 0 364 -146t150 -364q0 -156 -30 -300l-104 -500h-76l104 500q28 135 28 244q0 165 -133.5 300.5t-322.5 135.5q-201 0 -350.5 -119t-149.5 -301q0 -133 63 -245l57 285h700l-20 -80h-238l-56 -280h244l-10 -80h-250z" />
    <glyph glyph-name="tm_j_ikaar" horiz-adv-x="1832" 
d="M604 440q0 37 -21 68.5t-53 31.5q-33 0 -49.5 -25t-16.5 -75q0 -42 15 -76t45 -60q40 15 60 49t20 87zM1464 460q0 -163 -124 -271.5t-296 -108.5h-540q-120 0 -210 -67.5t-90 -172.5q0 -93 50.5 -166.5t129.5 -73.5q50 0 120 45t160 135q108 108 158.5 144.5t101.5 56
t100 19.5q121 0 210.5 -74t89.5 -186q0 -92 -64 -156t-166 -64q-140 0 -250 40l20 60q56 -20 140 -20q73 0 126.5 46t53.5 114q0 66 -46.5 113t-113.5 47q-70 0 -150 -45t-170 -135q-110 -110 -204 -165t-172 -55q-121 0 -202.5 95t-81.5 225q0 143 141.5 231.5t318.5 88.5
h540q112 0 186 89.5t74 210.5q0 130 -30 195t-90 65q-73 0 -130 -98t-70 -202l-20 -160h-160l20 160q2 16 2 48q0 106 -77 179t-181 73q-121 0 -202.5 -59.5t-81.5 -160.5q0 -80 45 -138t115 -62q-60 52 -60 150q0 70 45 120t111 50q73 0 118.5 -52t45.5 -128
q0 -95 -67 -157.5t-165 -62.5q-116 0 -192 82t-76 198q0 134 106.5 217t257.5 83q131 0 233 -72t123 -188q28 107 100.5 182.5t161.5 77.5q-60 92 -60 220q0 130 108 215t252 85t238.5 -112t94.5 -268q0 -66 -15 -140l-160 -800h-76l160 800q8 40 8 72q0 120 -77 204
t-193 84q-97 0 -168.5 -60t-71.5 -150q0 -81 67 -166q85 -30 128 -111t43 -213z" />
    <glyph glyph-name="tm_ny_ikaar" horiz-adv-x="2218" 
d="M918 260q0 47 -22 83.5t-58 36.5q-52 0 -86 -41.5t-34 -98.5q0 -86 20 -140q73 0 126.5 46t53.5 114zM1838 800l-20 -80h-220l-54 -280q47 40 106 40q94 0 151 -89.5t57 -210.5q0 -298 -260 -489t-600 -191q-332 0 -566 226t-234 554q0 292 270 520l40 -50
q-230 -192 -230 -470q0 -294 211 -497t509 -203q282 0 491 171t209 429q0 77 -26.5 143.5t-73.5 66.5q-63 0 -78 -70l-66 -320h-160l144 720h-400q-188 0 -334 -100.5t-146 -259.5q0 -92 25 -152t75 -88q-20 54 -20 120q0 107 68.5 183.5t171.5 76.5q83 0 141.5 -58.5
t58.5 -141.5q0 -123 -81 -211.5t-199 -88.5q-137 0 -228.5 107t-91.5 253q0 192 169.5 316t390.5 124h552q-70 89 -70 220q0 130 108 215t252 85t238.5 -112t94.5 -268q0 -66 -15 -140l-160 -800h-76l160 800q8 40 8 72q0 120 -77 204t-193 84q-97 0 -168.5 -60t-71.5 -150
q0 -83 60 -150h158z" />
    <glyph glyph-name="tm_tt_ikaar" horiz-adv-x="1582" 
d="M976 0h-796l160 800h160l-144 -720h534q-68 48 -109 143.5t-41 216.5q0 143 82 251.5t208 108.5q94 0 154.5 -64t61.5 -160q0 -29 -6 -56l-88 -440h428l-20 -80h-422l-80 -400h-160zM990 80l90 440q5 22 5 50q-1 42 -25 76t-60 34q-79 0 -129.5 -73.5t-50.5 -166.5
q0 -259 170 -360z" />
    <glyph glyph-name="tm_nn_ikaar" horiz-adv-x="2640" 
d="M614 240q0 41 -25 70.5t-65 29.5q-45 0 -67.5 -25t-22.5 -75q0 -73 38 -140q71 12 106.5 47t35.5 93zM1148 270q0 64 -26.5 142.5t-65.5 129.5q-54 -57 -81 -127.5t-27 -154.5q0 -55 27.5 -97.5t72.5 -42.5q46 0 73 44t27 106zM1700 270q0 62 -28 145t-64 127
q-54 -54 -81 -124.5t-27 -157.5q0 -55 27.5 -97.5t72.5 -42.5q46 0 73 44t27 106zM2440 800l-20 -80h-176l-144 -720h-160l144 720h-84q-174 0 -280 -80q70 -82 105 -174.5t35 -195.5q0 -114 -60.5 -192t-159.5 -78q-97 0 -158.5 75.5t-61.5 184.5q0 102 36 188.5t108 157.5
q-78 94 -188 94q-116 0 -210 -70q71 -80 106.5 -170t35.5 -190q0 -114 -60.5 -192t-159.5 -78q-97 0 -158.5 75.5t-61.5 184.5q0 101 35.5 187t106.5 157q-100 96 -258 96q-236 0 -367 -108.5t-131 -271.5q0 -76 38 -137t102 -83q-40 68 -40 140q0 99 61.5 159.5t158.5 60.5
q75 0 127.5 -52.5t52.5 -127.5q0 -117 -81.5 -198.5t-198.5 -81.5q-126 0 -213 94.5t-87 225.5q0 203 165.5 341.5t412.5 138.5q188 0 348 -108q131 108 282 108q155 0 288 -108q137 108 330 108h210q-55 34 -92.5 102t-37.5 138q0 125 87.5 212.5t212.5 87.5q129 0 199 -81
t70 -223q0 -91 -29 -236l-160 -800h-80l160 800q21 105 21 169q0 97 -47 154t-134 57q-81 0 -140.5 -52t-59.5 -128q0 -131 120 -200h140z" />
    <glyph glyph-name="tm_t_ikaar" horiz-adv-x="1524" 
d="M696 360h-310q-49 0 -84.5 -28.5t-35.5 -71.5q0 -80 80 -130t180 -50q51 0 89 33.5t49 86.5zM768 720h-222l-56 -280h222zM426 496l60 304h700l-20 -80h-238l-56 -280h74q107 0 183.5 -68.5t76.5 -171.5q0 -171 -172 -275.5t-388 -104.5h-300q-24 0 -42 -18t-18 -42
q0 -17 15 -50q15 -32 15 -50q0 -38 -22.5 -64t-57.5 -26q-48 0 -79 39t-31 91q0 78 66 129t154 51h300q159 0 279.5 90.5t120.5 229.5q0 62 -33.5 111t-86.5 49h-70l-16 -80q-28 -138 -115.5 -209t-198.5 -71q-133 0 -236.5 73t-103.5 187q0 72 55.5 124t125.5 57
q-51 49 -84 133.5t-33 165.5q0 235 175.5 397.5t422.5 162.5q274 0 461.5 -162t187.5 -361q0 -55 -11 -107l-140 -670h-76l140 670q8 36 8 72q0 158 -159 288t-391 130q-223 0 -380.5 -122t-157.5 -298q0 -141 96 -244z" />
    <glyph glyph-name="tm_n_ikaar" horiz-adv-x="1460" 
d="M1080 800l-20 -80h-280l-64 -320q58 70 160 70q86 0 143 -68.5t57 -161.5q0 -179 -145 -299.5t-351 -120.5h-220q-33 0 -56.5 -20t-23.5 -50q0 -15 10 -45q10 -29 10 -45q0 -34 -23 -57t-57 -23q-42 0 -71 29t-29 71q0 85 65 142.5t155 57.5h210q152 0 259 97t107 243
q0 53 -34 91.5t-86 38.5q-38 0 -67.5 -22.5t-34.5 -47.5l-58 -280h-160l144 720h-220l-144 -720h-76l160 800h492q-70 89 -70 220q0 130 108 215t252 85t238.5 -112t94.5 -268q0 -66 -15 -140l-160 -800h-76l160 800q8 40 8 72q0 120 -77 204t-193 84q-97 0 -168.5 -60
t-71.5 -150q0 -83 60 -150h158z" />
    <glyph glyph-name="tm_nnn_ikaar" horiz-adv-x="2176" 
d="M614 240q0 41 -25 70.5t-65 29.5q-45 0 -67.5 -25t-22.5 -75q0 -73 38 -140q71 12 106.5 47t35.5 93zM1148 270q0 64 -26.5 142.5t-65.5 129.5q-54 -57 -81 -127.5t-27 -154.5q0 -55 27.5 -97.5t72.5 -42.5q46 0 73 44t27 106zM1956 800l-20 -80h-220l-144 -720h-160
l144 720h-160q-119 0 -230 -90q71 -80 106.5 -170t35.5 -190q0 -114 -60.5 -192t-159.5 -78q-97 0 -158.5 75.5t-61.5 184.5q0 101 35.5 187t106.5 157q-100 96 -250 96q-202 0 -354 -111t-152 -269q0 -76 38 -137t102 -83q-40 68 -40 140q0 99 61.5 159.5t158.5 60.5
q75 0 127.5 -52.5t52.5 -127.5q0 -117 -81.5 -198.5t-198.5 -81.5q-126 0 -213 94.5t-87 225.5q0 198 176 339t410 141q180 0 340 -108q131 108 282 108h268q-114 95 -114 220q0 123 84.5 211.5t207.5 88.5q148 0 243.5 -125.5t96.5 -288.5q0 -49 -12 -106l-160 -800h-76
l160 800q8 38 8 74q-1 112 -70.5 209t-181.5 97q-88 0 -154 -51t-66 -129q0 -95 124 -200h216z" />
    <glyph glyph-name="tm_p_ikaar" horiz-adv-x="1620" 
d="M1200 0h-1020l160 800h160l-144 -720h700l104 500q-24 -14 -74 -14q-94 0 -150 97t-56 217q0 197 109.5 318.5t292.5 121.5q144 0 238.5 -112t94.5 -268q0 -66 -15 -140l-160 -800h-76l160 800q8 40 8 72q0 120 -77 204t-193 84q-133 0 -213.5 -79t-80.5 -205
q0 -90 34.5 -157t97.5 -67q40 0 78 28l22 120h160z" />
    <glyph glyph-name="tm_m_ikaar" horiz-adv-x="1822" 
d="M1380 340q0 136 -59.5 248t-160.5 112q-50 0 -80 -25t-40 -75l-102 -520h242q87 0 143.5 78.5t56.5 181.5zM180 0l160 800h160l-144 -720h422l102 516q19 96 92.5 150t167.5 54h50q-68 89 -68 220q0 130 108 215t252 85q147 0 240 -115.5t93 -264.5q0 -66 -15 -140
l-160 -800h-76l160 800q8 40 8 72q0 118 -76.5 203t-193.5 85q-97 0 -168.5 -60t-71.5 -150q0 -92 56 -166q91 -85 136.5 -196t45.5 -248q0 -135 -79.5 -237.5t-200.5 -102.5h-1000z" />
    <glyph glyph-name="tm_y_ikaar" horiz-adv-x="1724" 
d="M1430 800l-160 -800h-760l20 100q-30 -60 -71.5 -90t-94.5 -30q-70 0 -113.5 67t-43.5 151q0 46 7 82l104 520h160l-104 -520q-3 -17 -3 -54q0 -53 19.5 -79.5t59.5 -26.5q35 0 65 27t37 63l118 590h160l-144 -720h440l113 564q-40 -24 -87 -24q-91 0 -142.5 73
t-51.5 187q0 192 117.5 316t304.5 124q144 0 238.5 -112t94.5 -268q0 -66 -15 -140l-160 -800h-76l160 800q8 40 8 72q0 120 -77 204t-193 84q-136 0 -225 -80.5t-89 -203.5q0 -90 32 -134.5t96 -44.5q40 0 80 22l16 81h160z" />
    <glyph glyph-name="tm_r_ikaar" horiz-adv-x="1240" 
d="M136 -200l444 240l134 680h-314l-144 -720h-76l160 800h374q-114 95 -114 220q0 123 84.5 211.5t207.5 88.5q148 0 244 -125.5t96 -288.5q0 -49 -12 -106l-160 -800h-76l160 800q8 38 8 74q-1 112 -70.5 209t-181.5 97q-88 0 -154 -51t-66 -129q0 -95 124 -200h256
l-20 -80h-166l-144 -720l-594 -250v50z" />
    <glyph glyph-name="tm_rr_ikaar" horiz-adv-x="1550" 
d="M1210 400q0 -241 -169 -410.5t-411 -169.5h-420q-20 0 -30 -10t-10 -30q0 -21 20 -60q20 -38 20 -60q0 -44 -32.5 -72t-77.5 -28q-47 0 -78.5 35.5t-31.5 84.5q0 83 59 141.5t141 58.5h440q183 0 301.5 156.5t118.5 363.5q0 110 -43 205t-117 95q-60 0 -106 -30t-54 -70
l-120 -600h-160l120 600q3 14 3 26q0 38 -26.5 66t-66.5 28q-37 0 -71.5 -40t-42.5 -80l-120 -600h-76l120 600q16 78 79.5 139t140.5 61q59 0 104.5 -33.5t55.5 -86.5q34 60 99 90t161 30q-60 68 -60 200q0 134 100.5 227t239.5 93q146 0 240.5 -111.5t94.5 -268.5
q0 -66 -15 -140l-160 -800h-76l160 800q8 40 8 72q0 118 -75.5 203t-182.5 85q-102 0 -178 -64t-76 -156t60 -160q94 -34 147 -140.5t53 -239.5z" />
    <glyph glyph-name="tm_l_ikaar" horiz-adv-x="1920" 
d="M642 280q0 41 -22.5 70.5t-57.5 29.5q-43 0 -71.5 -35.5t-28.5 -84.5q0 -92 60 -160q55 11 87.5 63t32.5 117zM1542 506q0 -201 -122.5 -353.5t-277.5 -152.5q-103 0 -174 56.5t-71 131.5q0 25 5 52l42 200q7 33 7 62q0 88 -78 153t-191 65q-167 0 -293.5 -99.5
t-126.5 -250.5q0 -99 49 -177t131 -93q-60 68 -60 160q0 93 64 156.5t156 63.5q83 0 141.5 -58.5t58.5 -141.5q0 -120 -95.5 -200t-224.5 -80q-131 0 -215.5 111.5t-84.5 258.5q0 188 163 309t377 121q151 0 269.5 -88t118.5 -206q0 -29 -8 -66l-40 -200q-4 -22 -4 -46
q0 -39 31.5 -66.5t72.5 -27.5q126 0 213 118.5t87 261.5q0 87 -132 180q-120 85 -150 149.5t-30 130.5q0 150 111.5 265t304.5 115q154 0 251.5 -110.5t97.5 -269.5q0 -66 -15 -140l-160 -800h-76l160 800q8 40 8 72q0 122 -80.5 205t-205.5 83q-128 0 -207 -61.5
t-79 -158.5q0 -64 24.5 -111t111.5 -107q146 -101 146 -216z" />
    <glyph glyph-name="tm_ll_ikaar" horiz-adv-x="1906" 
d="M590 280q0 110 -60 110q-45 0 -72.5 -46t-27.5 -98q0 -93 40 -126q54 3 87 49.5t33 110.5zM1554 720l-144 -720h-160l144 720h-240l-144 -720h-160l74 380q7 36 7 66q0 124 -79 209t-202 85q-161 0 -270.5 -117.5t-109.5 -282.5q0 -78 30 -128t90 -72q-30 56 -30 130
q0 91 61 155.5t149 64.5q76 0 128 -59.5t52 -140.5q0 -118 -74.5 -204t-185.5 -86q-128 0 -214 101.5t-86 238.5q0 197 133.5 338.5t326.5 141.5q164 0 265.5 -91.5t118.5 -228.5l60 300h286q-114 95 -114 220q0 123 84.5 211.5t207.5 88.5q148 0 243.5 -125.5t96.5 -288.5
q0 -49 -12 -106l-160 -800h-76l160 800q8 38 8 74q0 112 -70 209t-182 97q-88 0 -154 -51t-66 -129q0 -95 124 -200h270l-20 -80h-166z" />
    <glyph glyph-name="tm_lll_ikaar" horiz-adv-x="1820" 
d="M1380 340q0 136 -59.5 248t-160.5 112q-50 0 -80 -25t-40 -75l-102 -520h242q87 0 143.5 78.5t56.5 181.5zM1460 340q0 -135 -79.5 -237.5t-200.5 -102.5h-260q-4 -20 -4 -32q0 -32 29.5 -60t74.5 -28h120l-20 -80h-120q-83 0 -140 -100q-64 -113 -182 -176.5t-258 -63.5
q-113 0 -196.5 68t-83.5 172q0 78 39 139t101 61q24 0 42 -18t18 -42q0 -28 -40 -85q-40 -56 -40 -85q0 -56 48 -93t112 -37q96 0 161 30t99 90q48 86 93 131t87 49q-53 15 -79.5 44.5t-26.5 73.5q0 23 6 42h-580l160 800h160l-144 -720h422l102 516q19 96 92.5 150
t167.5 54h50q-68 89 -68 220q0 130 108 215t252 85q147 0 240 -115.5t93 -264.5q0 -66 -15 -140l-160 -800h-76l160 800q8 40 8 72q0 118 -76.5 203t-193.5 85q-97 0 -168.5 -60t-71.5 -150q0 -92 56 -166q91 -85 136.5 -196t45.5 -248z" />
    <glyph glyph-name="tm_v_ikaar" horiz-adv-x="1988" 
d="M588 260q0 38 -19.5 69t-50.5 31q-40 0 -65 -36t-25 -84q0 -67 40 -140q54 3 87 50t33 110zM1668 800l-160 -800h-740q200 167 200 400q0 135 -104 227.5t-246 92.5q-147 0 -248.5 -110.5t-101.5 -269.5q0 -86 30 -146t90 -94q-40 68 -40 140q0 93 64 156.5t156 63.5
q76 0 128 -59.5t52 -140.5q0 -108 -75.5 -184t-184.5 -76q-128 0 -214 101.5t-86 238.5q0 199 136.5 339.5t333.5 140.5q191 0 330.5 -120.5t139.5 -299.5q0 -175 -120 -320h356l111 552q-25 -12 -57 -12q-90 0 -140 72t-50 188q0 192 117.5 316t304.5 124q144 0 238.5 -112
t94.5 -268q0 -66 -15 -140l-160 -800h-76l160 800q8 40 8 72q0 120 -77 204t-193 84q-136 0 -225 -80.5t-89 -203.5q0 -83 34 -131t90 -48q22 0 49 9l19 94h160z" />
    <glyph glyph-name="tm_ss_ikaar" horiz-adv-x="2258" 
d="M1678 80l50 250q-55 -30 -150 -30l-42 -220h142zM588 260q0 38 -19.5 69t-50.5 31q-40 0 -65 -36t-25 -84q0 -67 40 -140q54 3 87 50t33 110zM1438 380l40 200q3 17 3 32q0 33 -17.5 55.5t-45.5 22.5q-46 0 -73 -53t-27 -117q0 -57 34 -98.5t86 -41.5zM1942 600
l-120 -600h-304l-80 -400h-160l80 400h-590q200 167 200 400q0 135 -104 227.5t-246 92.5q-147 0 -248.5 -110.5t-101.5 -269.5q0 -86 30 -146t90 -94q-40 68 -40 140q0 93 64 156.5t156 63.5q76 0 128 -59.5t52 -140.5q0 -108 -75.5 -184t-184.5 -76q-128 0 -214 101.5
t-86 238.5q0 199 136.5 339.5t333.5 140.5q191 0 330.5 -120.5t139.5 -299.5q0 -175 -120 -320h368l42 220q-80 15 -130 77t-50 143q0 113 68 196.5t172 83.5q-40 68 -40 156q0 161 142.5 262.5t323.5 101.5q160 0 254.5 -114.5t94.5 -265.5q0 -66 -15 -140l-160 -800h-76
l160 800q8 40 8 72q0 119 -77.5 203.5t-208.5 84.5q-141 0 -253.5 -68.5t-112.5 -167.5q0 -80 46 -138q76 -45 76 -141q0 -43 -12 -105l-30 -160q91 0 184.5 62t159.5 158z" />
    <glyph glyph-name="tm_s_ikaar" horiz-adv-x="2206" 
d="M586 280q0 37 -16.5 68.5t-43.5 31.5q-45 0 -72.5 -42.5t-27.5 -97.5q0 -66 20 -120q59 10 99.5 55.5t40.5 104.5zM1903 520q0 -216 -123 -368t-277 -152q-104 0 -175 56.5t-71 131.5q0 26 6 52l73 340q4 19 4 36q0 34 -15 59t-47 25q-66 0 -112.5 -59t-63.5 -141
l-100 -500h-160l76 380q6 30 6 59q0 107 -80 194t-198 87q-159 0 -269.5 -110.5t-110.5 -269.5q0 -85 32.5 -140t97.5 -80q-50 71 -50 160q0 85 65 142.5t155 57.5q76 0 128 -59.5t52 -140.5q0 -115 -75 -197.5t-185 -82.5q-128 0 -214 101.5t-86 238.5q0 192 134.5 326
t325.5 134q134 0 240 -77t140 -203q33 121 106.5 200.5t163.5 79.5q87 0 141.5 -52.5t54.5 -135.5q0 -29 -8 -66l-61 -306q-5 -22 -5 -46q0 -39 32 -66.5t73 -27.5q132 0 215.5 121.5t84.5 278.5q0 54 -70 129q-26 -9 -57 -9q-93 0 -148.5 75t-55.5 185q0 192 111.5 316
t286.5 124q144 0 238.5 -112t94.5 -268q0 -66 -15 -140l-160 -800h-76l160 800q8 40 8 72q0 120 -77 204t-193 84q-125 0 -207.5 -80t-82.5 -204q0 -169 115 -178q-32 46 -32 82q0 25 21.5 42.5t48.5 17.5q49 0 85 -34.5t60.5 -110.5t24.5 -175z" />
    <glyph glyph-name="tm_h_ikaar" horiz-adv-x="2586" 
d="M588 260q0 38 -19.5 69t-50.5 31q-40 0 -65 -36t-25 -84q0 -67 40 -140q54 3 87 50t33 110zM2286 460q0 -260 -176.5 -450t-443.5 -190h-1260q-24 0 -42 -18t-18 -42q0 -17 15 -50q15 -32 15 -50q0 -38 -22.5 -64t-57.5 -26q-48 0 -79 39t-31 91q0 78 66 129t154 51h1260
q213 0 346.5 202t133.5 458q0 73 -46 126.5t-114 53.5q-86 0 -152.5 -59t-87.5 -161l-100 -500h-160l116 576q6 29 6 52q0 40 -18 66t-44 26q-48 0 -79 -35.5t-45 -106.5l-116 -578h-538q200 167 200 400q0 135 -104 227.5t-246 92.5q-147 0 -248.5 -110.5t-101.5 -269.5
q0 -86 30 -146t90 -94q-40 68 -40 140q0 93 64 156.5t156 63.5q76 0 128 -59.5t52 -140.5q0 -108 -75.5 -184t-184.5 -76q-128 0 -214 101.5t-86 238.5q0 199 136.5 339.5t333.5 140.5q191 0 330.5 -120.5t139.5 -299.5q0 -175 -120 -320h238l98 500q24 121 81 170.5
t121 49.5q68 0 114 -53.5t46 -126.5q48 82 123 133t153 51q19 0 56 -2q-92 92 -92 218q0 123 84.5 211.5t207.5 88.5q148 0 243.5 -125.5t96.5 -288.5q0 -49 -12 -106l-160 -800h-76l160 800q8 38 8 74q0 112 -70 209t-182 97q-92 0 -156 -53t-64 -127q0 -57 31 -121t77 -99
q152 -118 152 -320z" />
    <glyph glyph-name="tm_k_iikaar" horiz-adv-x="1228" 
d="M686 360h-310q-49 0 -84.5 -28.5t-35.5 -71.5q0 -80 80 -130t180 -50q51 0 89 33.5t49 86.5zM758 720h-222l-56 -280h222zM419 513l57 287h720l-20 -80h-258l-56 -280h114q90 0 155 -57.5t65 -142.5q0 -104 -83.5 -172t-196.5 -68q-64 0 -100 20l20 40q18 -10 60 -10
q63 0 101.5 65t38.5 145q0 41 -22.5 70.5t-57.5 29.5h-110l-16 -80q-28 -138 -115.5 -209t-198.5 -71q-133 0 -236.5 73t-103.5 187q0 76 59.5 128t140.5 52q-100 121 -100 280q0 237 177 398.5t423 161.5q141 0 250.5 -72t109.5 -188q0 -68 -53.5 -114t-126.5 -46
q-78 0 -129 66t-51 154q0 66 20 120h-20q-213 0 -366.5 -141.5t-153.5 -348.5q0 -107 63 -197zM976 1200q-20 -54 -20 -120q0 -45 25.5 -77.5t64.5 -32.5q31 0 50.5 27.5t19.5 62.5q0 59 -40.5 99.5t-99.5 40.5z" />
    <glyph glyph-name="tm_ng_iikaar" horiz-adv-x="1520" 
d="M1510 800l-160 -800h-870l20 80h140q107 0 183.5 68.5t76.5 171.5q0 43 -28.5 71.5t-71.5 28.5q-34 0 -63 -31t-37 -69l-20 -100h-160l100 500h-220l-144 -720h-76l160 800h660l-20 -80h-200l-50 -260q68 60 150 60q76 0 128 -59.5t52 -140.5q0 -82 -66 -147.5
t-164 -92.5h376l110 540q-36 -18 -56 -18q-72 0 -116 81t-44 177q0 186 114 323t286 137q109 0 184.5 -75.5t75.5 -184.5q0 -73 -46 -126.5t-114 -53.5q-69 0 -119.5 46.5t-50.5 113.5q0 137 110 200l-40 10q-139 0 -229.5 -117t-90.5 -273q0 -66 21 -123t59 -57q36 0 72 20
l18 100h160zM1590 1220q-100 -56 -100 -140q0 -41 22.5 -70.5t57.5 -29.5t57.5 29.5t22.5 70.5q0 106 -60 140z" />
    <glyph glyph-name="tm_c_iikaar" horiz-adv-x="1058" 
d="M686 360h-310q-49 0 -84.5 -28.5t-35.5 -71.5q0 -80 80 -130t180 -50q51 0 89 33.5t49 86.5zM758 720h-222l-56 -280h222zM830 280q-28 -138 -115.5 -209t-198.5 -71q-133 0 -236.5 73t-103.5 187q0 76 59.5 128t140.5 52q-100 121 -100 280q0 237 177 398.5t423 161.5
q141 0 250.5 -72t109.5 -188q0 -68 -53.5 -114t-126.5 -46q-78 0 -129 66t-51 154q0 66 20 120h-20q-213 0 -366.5 -141.5t-153.5 -348.5q0 -107 63 -197l57 287h700l-20 -80h-238l-56 -280h242l-20 -80h-238zM976 1200q-20 -54 -20 -120q0 -45 25.5 -77.5t64.5 -32.5
q31 0 50.5 27.5t19.5 62.5q0 59 -40.5 99.5t-99.5 40.5z" />
    <glyph glyph-name="tm_j_iikaar" horiz-adv-x="1478" 
d="M604 440q0 38 -19.5 69t-50.5 31q-35 0 -52.5 -21.5t-17.5 -64.5q0 -42 13.5 -79t40.5 -69q43 19 64.5 52.5t21.5 81.5zM1464 460q0 -163 -124 -271.5t-296 -108.5h-540q-120 0 -210 -67.5t-90 -172.5q0 -93 50.5 -166.5t129.5 -73.5q50 0 120 45t160 135
q108 108 158.5 144.5t101.5 56t100 19.5q121 0 210.5 -74t89.5 -186q0 -92 -64 -156t-166 -64q-140 0 -250 40l20 60q56 -20 140 -20q73 0 126.5 46t53.5 114q0 66 -46.5 113t-113.5 47q-70 0 -150 -45t-170 -135q-110 -110 -204 -165t-172 -55q-121 0 -202.5 95t-81.5 225
q0 143 141.5 231.5t318.5 88.5h540q112 0 186 89.5t74 210.5q0 130 -30 195t-90 65q-61 0 -122.5 -87.5t-77.5 -212.5l-20 -160h-160l20 160q3 24 3 46q0 104 -69.5 179t-173.5 75q-117 0 -208.5 -61t-91.5 -159q0 -80 45 -138t115 -62q-60 66 -60 154q0 72 46.5 119
t113.5 47q68 0 114 -53.5t46 -126.5q0 -91 -68.5 -155.5t-163.5 -64.5q-121 0 -194.5 84.5t-73.5 195.5q0 131 114.5 215.5t265.5 84.5q122 0 216 -68t122 -200q31 114 97 186.5t147 80.5q-122 100 -122 261q0 104 82 177t206 73q112 0 192 -64.5t80 -165.5
q0 -66 -46.5 -113t-113.5 -47q-81 0 -140.5 52t-59.5 128q0 72 40 120q-66 0 -113 -47t-47 -113q0 -148 152 -260q121 -90 154.5 -173.5t33.5 -166.5zM1366 1212q-42 -33 -42 -112q0 -39 26 -64.5t68 -25.5q76 0 76 70q0 51 -36.5 88.5t-91.5 43.5z" />
    <glyph glyph-name="tm_ny_iikaar" horiz-adv-x="1922" 
d="M918 260q0 47 -22 83.5t-58 36.5q-52 0 -86 -41.5t-34 -98.5q0 -86 20 -140q73 0 126.5 46t53.5 114zM1918 800l-20 -80h-298l-54 -280q56 40 132 40q82 0 131 -93.5t49 -206.5q0 -298 -260 -489t-600 -191q-332 0 -566 226t-234 554q0 292 270 520l60 -60
q-250 -212 -250 -460q0 -294 211 -497t509 -203q282 0 491 171t209 429q0 77 -26.5 143.5t-73.5 66.5q-62 -3 -75 -55l-67 -335h-160l144 720h-402q-188 0 -334 -100.5t-146 -259.5q0 -92 25 -152t75 -88q-20 54 -20 120q0 107 68.5 183.5t171.5 76.5q83 0 141.5 -58.5
t58.5 -141.5q0 -123 -81 -211.5t-199 -88.5q-137 0 -228.5 107t-91.5 253q0 192 169.5 316t390.5 124h570q-56 44 -88 113t-32 147q0 104 82 177t206 73q112 0 192 -64.5t80 -165.5q0 -66 -46.5 -113t-113.5 -47q-81 0 -140.5 52t-59.5 128q0 72 40 120q-66 0 -113 -47
t-47 -113q0 -150 152 -260h198zM1810 1212q-42 -33 -42 -112q0 -39 26 -64.5t68 -25.5q76 0 76 70q0 51 -36.5 88.5t-91.5 43.5z" />
    <glyph glyph-name="tm_tt_iikaar" horiz-adv-x="1582" 
d="M1560 0h-1380l160 800h160l-144 -720h494q-105 60 -157.5 140t-52.5 180q0 158 117 269t283 111q132 0 226 -76t94 -190q0 -100 -64 -167t-162 -67q-85 0 -139.5 55t-54.5 141q0 117 80 184q-121 0 -210.5 -74t-89.5 -186q0 -98 76 -190t184 -130h600zM1100 650
q-80 -61 -80 -174q0 -96 90 -96q40 0 65 36t25 84q0 50 -27.5 92.5t-72.5 57.5z" />
    <glyph glyph-name="tm_nn_iikaar" horiz-adv-x="2298" 
d="M614 240q0 41 -25 70.5t-65 29.5q-45 0 -67.5 -25t-22.5 -75q0 -73 38 -140q71 12 106.5 47t35.5 93zM1148 270q0 64 -26.5 142.5t-65.5 129.5q-54 -57 -81 -127.5t-27 -154.5q0 -55 27.5 -97.5t72.5 -42.5q46 0 73 44t27 106zM1700 270q0 62 -28 145t-64 127
q-54 -54 -81 -124.5t-27 -157.5q0 -55 27.5 -97.5t72.5 -42.5q46 0 73 44t27 106zM2440 800l-20 -80h-176l-144 -720h-160l144 720h-84q-174 0 -280 -80q70 -82 105 -174.5t35 -195.5q0 -114 -60.5 -192t-159.5 -78q-97 0 -158.5 75.5t-61.5 184.5q0 102 36 188.5t108 157.5
q-78 94 -188 94q-116 0 -210 -70q71 -80 106.5 -170t35.5 -190q0 -114 -60.5 -192t-159.5 -78q-97 0 -158.5 75.5t-61.5 184.5q0 101 35.5 187t106.5 157q-100 96 -258 96q-236 0 -367 -108.5t-131 -271.5q0 -76 38 -137t102 -83q-40 68 -40 140q0 99 61.5 159.5t158.5 60.5
q75 0 127.5 -52.5t52.5 -127.5q0 -117 -81.5 -198.5t-198.5 -81.5q-126 0 -213 94.5t-87 225.5q0 203 165.5 341.5t412.5 138.5q188 0 348 -108q131 108 282 108q155 0 288 -108q137 108 330 108h130q-61 52 -91.5 117t-30.5 143q0 104 82 177t206 73q112 0 192 -64.5
t80 -165.5q0 -66 -46.5 -113t-113.5 -47q-81 0 -140.5 52t-59.5 128q0 72 40 120q-66 0 -113 -47t-47 -113q0 -78 38 -143t114 -117h200zM2330 1212q-42 -33 -42 -112q0 -39 26 -64.5t68 -25.5q76 0 76 70q0 51 -36.5 88.5t-91.5 43.5z" />
    <glyph glyph-name="tm_t_iikaar" horiz-adv-x="1236" 
d="M686 360h-310q-49 0 -84.5 -28.5t-35.5 -71.5q0 -80 80 -130t180 -50q51 0 89 33.5t49 86.5zM758 720h-222l-56 -280h222zM419 513l57 287h720l-20 -80h-258l-56 -280h72q107 0 183.5 -68.5t76.5 -171.5q0 -171 -172 -275.5t-388 -104.5h-300q-24 0 -42 -18t-18 -42
q0 -17 15 -50q15 -32 15 -50q0 -38 -22.5 -64t-57.5 -26q-48 0 -79 39t-31 91q0 78 66 129t154 51h300q159 0 279.5 90.5t120.5 229.5q0 62 -33.5 111t-86.5 49h-68l-16 -80q-28 -138 -115.5 -209t-198.5 -71q-133 0 -236.5 73t-103.5 187q0 76 59.5 128t140.5 52
q-100 121 -100 280q0 237 177 398.5t423 161.5q141 0 250.5 -72t109.5 -188q0 -68 -53.5 -114t-126.5 -46q-78 0 -129 66t-51 154q0 66 20 120h-20q-213 0 -366.5 -141.5t-153.5 -348.5q0 -107 63 -197zM976 1200q-20 -54 -20 -120q0 -45 25.5 -77.5t64.5 -32.5
q31 0 50.5 27.5t19.5 62.5q0 59 -40.5 99.5t-99.5 40.5z" />
    <glyph glyph-name="tm_n_iikaar" horiz-adv-x="1128" 
d="M1080 800l-20 -80h-280l-60 -320q58 70 160 70q86 0 143 -68.5t57 -161.5q0 -182 -149.5 -301t-350.5 -119h-242q-24 0 -42 -18t-18 -42q0 -17 15 -50q15 -32 15 -50q0 -38 -22.5 -64t-57.5 -26q-48 0 -79 39t-31 91q0 74 64 127t158 53h210q151 0 260.5 98t109.5 242
q0 53 -34 91.5t-86 38.5q-46 0 -72.5 -17.5t-33.5 -52.5l-54 -280h-160l140 720h-220l-140 -720h-80l160 800h362q-61 49 -91.5 114t-30.5 146q0 104 82 177t206 73q112 0 192 -64.5t80 -165.5q0 -66 -46.5 -113t-113.5 -47q-81 0 -140.5 52t-59.5 128q0 72 40 120
q-66 0 -113 -47t-47 -113q0 -75 38 -140t114 -120h268zM902 1212q-42 -33 -42 -112q0 -39 26 -64.5t68 -25.5q76 0 76 70q0 51 -36.5 88.5t-91.5 43.5z" />
    <glyph glyph-name="tm_nnn_iikaar" horiz-adv-x="1770" 
d="M626 240q0 42 -19 76t-51 34q-48 0 -79 -39t-31 -91q0 -120 30 -120q61 0 105.5 40t44.5 100zM1156 280q0 93 -25 160.5t-75 109.5q-50 -61 -75 -128.5t-25 -141.5q0 -61 27 -110.5t73 -49.5t73 49.5t27 110.5zM1896 800l-20 -80h-160l-144 -720h-160l144 720h-120
q-163 0 -260 -80q70 -60 105 -150t35 -210q0 -112 -65 -196t-165 -84q-92 0 -151 85.5t-59 194.5q0 87 30 167t90 153q-121 100 -300 100q-178 0 -309 -108.5t-131 -271.5q0 -76 38 -137t102 -83q-40 68 -40 140q0 90 57.5 155t142.5 65q83 0 141.5 -58.5t58.5 -141.5
q0 -110 -82.5 -185t-197.5 -75q-126 0 -213 94.5t-87 225.5q0 207 167.5 343.5t392.5 136.5q250 0 380 -110q131 110 340 110h150q-61 49 -91.5 114t-30.5 146q0 104 82 177t206 73q112 0 192 -64.5t80 -165.5q0 -66 -46.5 -113t-113.5 -47q-81 0 -140.5 52t-59.5 128
q0 72 40 120q-66 0 -113 -47t-47 -113q0 -75 38 -140t114 -120h180zM1806 1212q-42 -33 -42 -112q0 -39 26 -64.5t68 -25.5q76 0 76 70q0 51 -36.5 88.5t-91.5 43.5z" />
    <glyph glyph-name="tm_p_iikaar" horiz-adv-x="1380" 
d="M1192 0h-1012l160 800h160l-142 -720h690l108 540q-36 -18 -56 -18q-72 0 -116 81t-44 177q0 186 114 323t286 137q109 0 184.5 -75.5t75.5 -184.5q0 -73 -46 -126.5t-114 -53.5q-69 0 -119.5 46.5t-50.5 113.5q0 137 110 200l-40 10q-139 0 -229.5 -117t-90.5 -273
q0 -66 21 -123t59 -57q36 0 72 20l18 100h162zM1430 1220q-100 -56 -100 -140q0 -41 22.5 -70.5t57.5 -29.5t57.5 29.5t22.5 70.5q0 106 -60 140z" />
    <glyph glyph-name="tm_m_iikaar" horiz-adv-x="1510" 
d="M1380 340q0 136 -59.5 248t-160.5 112q-44 0 -78 -30.5t-42 -69.5l-102 -520h262q80 0 130 80t50 180zM180 0l160 800h160l-144 -720h424l100 520q17 86 77.5 139t142.5 61q-40 48 -60 103t-20 117q0 120 95.5 200t224.5 80q115 0 197.5 -75t82.5 -185
q0 -71 -53.5 -120.5t-126.5 -49.5q-81 0 -130.5 58.5t-49.5 151.5q0 71 32 130q-65 0 -128.5 -56t-63.5 -134q0 -72 30 -129.5t90 -100.5q113 -42 176.5 -167.5t63.5 -282.5q0 -133 -73 -236.5t-187 -103.5h-1020zM1374 1202q-34 -72 -34 -122t17.5 -75t52.5 -25
q70 0 70 100q0 49 -30 83.5t-76 38.5z" />
    <glyph glyph-name="tm_y_iikaar" horiz-adv-x="1452" 
d="M1418 800l-160 -800h-760l20 100q-29 -55 -76.5 -82.5t-113.5 -27.5q-62 0 -95.5 49.5t-33.5 129.5q0 50 13 111l106 520h160l-104 -520q-4 -22 -4 -45q0 -43 15.5 -79t52.5 -36q42 0 67 20t33 60l120 600h160l-144 -720h444l104 540q-36 -18 -56 -18q-72 0 -116 81
t-44 177q0 186 114 323t286 137q109 0 184.5 -75.5t75.5 -184.5q0 -73 -46 -126.5t-114 -53.5q-69 0 -119.5 46.5t-50.5 113.5q0 137 110 200l-40 10q-139 0 -229.5 -117t-90.5 -273q0 -66 21 -123t59 -57q36 0 72 20l20 100h160zM1496 1220q-100 -56 -100 -140
q0 -41 22.5 -70.5t57.5 -29.5t57.5 29.5t22.5 70.5q0 106 -60 140z" />
    <glyph glyph-name="tm_r_iikaar" horiz-adv-x="936" 
d="M152 -200l444 240l134 680h-330l-144 -720h-76l160 800h400q-61 49 -91.5 114t-30.5 146q0 104 82 177t206 73q112 0 192 -64.5t80 -165.5q0 -66 -46.5 -113t-113.5 -47q-81 0 -140.5 52t-59.5 128q0 72 40 120q-66 0 -113 -47t-47 -113q0 -75 38 -140t114 -120h220
l-16 -80h-166l-142 -720l-594 -250v50zM940 1212q-42 -33 -42 -112q0 -39 26 -64.5t68 -25.5q76 0 76 70q0 51 -36.5 88.5t-91.5 43.5z" />
    <glyph glyph-name="tm_rr_iikaar" horiz-adv-x="1268" 
d="M1212 400q0 -244 -173 -412t-417 -168h-410q-24 0 -42 -18t-18 -42q0 -17 15 -50q15 -32 15 -50q0 -38 -22.5 -64t-57.5 -26q-48 0 -79 39t-31 91q0 74 64 127t160 53h416q183 0 301.5 156.5t118.5 363.5q0 110 -43 205t-117 95q-70 0 -110 -25t-50 -75l-120 -600h-160
l120 600q2 12 2 24q0 36 -22 66t-60 30q-44 0 -79.5 -37.5t-44.5 -82.5l-120 -600h-76l120 600q18 90 80.5 145t139.5 55q59 0 104.5 -33.5t55.5 -86.5q34 60 99 90t161 30q-70 49 -105 114t-35 146q0 121 102.5 200.5t237.5 79.5q109 0 184.5 -75.5t75.5 -184.5
q0 -81 -52 -140.5t-128 -59.5q-74 0 -127 53t-53 127q0 123 90 200q-100 0 -175 -56.5t-75 -143.5q0 -91 50 -166t150 -134q70 -41 105 -131t35 -229zM1202 1230q-90 -77 -90 -170q0 -34 23 -57t57 -23q35 0 57.5 29.5t22.5 70.5q0 111 -70 150z" />
    <glyph glyph-name="tm_l_iikaar" horiz-adv-x="1582" 
d="M642 280q0 41 -22.5 70.5t-57.5 29.5q-43 0 -71.5 -35.5t-28.5 -84.5q0 -92 60 -160q55 11 87.5 63t32.5 117zM1524 426q0 -163 -120 -294.5t-262 -131.5q-103 0 -174 56.5t-71 131.5q0 25 5 52l42 200q7 33 7 62q0 88 -78 153t-191 65q-167 0 -293.5 -99.5
t-126.5 -250.5q0 -99 49 -177t131 -93q-60 68 -60 160q0 93 64 156.5t156 63.5q83 0 141.5 -58.5t58.5 -141.5q0 -120 -95.5 -200t-224.5 -80q-131 0 -215.5 111.5t-84.5 258.5q0 188 163 309t377 121q151 0 269.5 -88t118.5 -206q0 -29 -8 -66l-40 -200q-4 -22 -4 -46
q0 -39 31.5 -66.5t72.5 -27.5q104 0 188 87.5t84 238.5q0 70 -30.5 130t-102.5 117l-153 121q-67 53 -99.5 126.5t-32.5 159.5q0 132 102 216t244 84q130 0 212 -70t82 -178q0 -87 -58.5 -149.5t-145.5 -62.5q-79 0 -127.5 50t-48.5 130q0 114 100 200q-21 4 -36 4
q-101 0 -172.5 -63.5t-71.5 -160.5q0 -68 30 -126t91 -107l196 -154q111 -109 111 -267zM1452 1278q-96 -61 -96 -178q0 -43 24.5 -71.5t61.5 -28.5q41 0 67.5 34t26.5 86q0 109 -84 158z" />
    <glyph glyph-name="tm_ll_iikaar" horiz-adv-x="1600" 
d="M590 280q0 110 -60 110q-45 0 -72.5 -46t-27.5 -98q0 -93 40 -126q54 3 87 49.5t33 110.5zM1554 720l-144 -720h-160l144 720h-240l-144 -720h-160l74 380q7 36 7 66q0 124 -79 209t-202 85q-161 0 -270.5 -117.5t-109.5 -282.5q0 -78 30 -128t90 -72q-30 56 -30 130
q0 91 61 155.5t149 64.5q76 0 128 -59.5t52 -140.5q0 -118 -74.5 -204t-185.5 -86q-128 0 -214 101.5t-86 238.5q0 197 133.5 338.5t326.5 141.5q164 0 265.5 -91.5t118.5 -228.5l60 300h324q-61 49 -91.5 114t-30.5 146q0 104 82 177t206 73q112 0 192 -64.5t80 -165.5
q0 -66 -46.5 -113t-113.5 -47q-81 0 -140.5 52t-59.5 128q0 72 40 120q-66 0 -113 -47t-47 -113q0 -75 38 -140t114 -120h212l-20 -80h-166zM1618 1212q-42 -33 -42 -112q0 -39 26 -64.5t68 -25.5q76 0 76 70q0 51 -36.5 88.5t-91.5 43.5z" />
    <glyph glyph-name="tm_lll_iikaar" horiz-adv-x="1510" 
d="M1380 340q0 136 -59.5 248t-160.5 112q-44 0 -78 -30.5t-42 -69.5l-104 -520h264q80 0 130 80t50 180zM1460 340q0 -133 -73 -236.5t-187 -103.5h-280q-4 -20 -4 -32q0 -32 29.5 -60t74.5 -28h120l-20 -80h-120q-83 0 -140 -100q-64 -113 -182 -176.5t-258 -63.5
q-113 0 -196.5 68t-83.5 172q0 78 39 139t101 61q24 0 42 -18t18 -42q0 -28 -40 -85q-40 -56 -40 -85q0 -56 48 -93t112 -37q96 0 161 30t99 90q48 86 93 131t87 49q-53 15 -79.5 44.5t-26.5 73.5q0 23 6 42h-580l160 800h160l-144 -720h420l104 520q18 88 73 144t127 56
q40 0 76 -8q-96 118 -96 248q0 110 82.5 185t197.5 75q111 0 195.5 -61.5t84.5 -158.5q0 -81 -52 -140.5t-128 -59.5t-128 59.5t-52 140.5q0 72 40 120q-66 0 -113 -47t-47 -113q0 -85 65.5 -183t139.5 -186l4 -6q111 -136 111 -325zM1380 1200q-40 -68 -40 -120
q0 -38 19.5 -69t50.5 -31t50.5 31t19.5 69q0 49 -28.5 84.5t-71.5 35.5z" />
    <glyph glyph-name="tm_v_iikaar" horiz-adv-x="1688" 
d="M588 260q0 38 -19.5 69t-50.5 31q-40 0 -65 -36t-25 -84q0 -67 40 -140q54 3 87 50t33 110zM1668 800l-160 -800h-740q200 167 200 400q0 135 -104 227.5t-246 92.5q-147 0 -248.5 -110.5t-101.5 -269.5q0 -86 30 -146t90 -94q-40 68 -40 140q0 93 64 156.5t156 63.5
q76 0 128 -59.5t52 -140.5q0 -108 -75.5 -184t-184.5 -76q-128 0 -214 101.5t-86 238.5q0 199 136.5 339.5t333.5 140.5q191 0 330.5 -120.5t139.5 -299.5q0 -175 -120 -320h356l108 540q-36 -18 -56 -18q-72 0 -116 81t-44 177q0 186 114 323t286 137q109 0 184.5 -75.5
t75.5 -184.5q0 -73 -46 -126.5t-114 -53.5q-69 0 -119.5 46.5t-50.5 113.5q0 137 110 200l-40 10q-139 0 -229.5 -117t-90.5 -273q0 -66 21 -123t59 -57q36 0 72 20l20 100h160zM1746 1220q-100 -56 -100 -140q0 -41 22.5 -70.5t57.5 -29.5t57.5 29.5t22.5 70.5
q0 106 -60 140z" />
    <glyph glyph-name="tm_ss_iikaar" horiz-adv-x="1956" 
d="M1670 80l50 250q-55 -30 -150 -30l-44 -220h144zM588 260q0 38 -19.5 69t-50.5 31q-40 0 -65 -36t-25 -84q0 -67 40 -140q54 3 87 50t33 110zM1426 380l40 200q5 23 5 40q0 32 -18 51t-43 19q-46 0 -73 -53t-27 -117q0 -58 35 -99t81 -41zM1930 600l-120 -600h-300
l-80 -400h-160l80 400h-582q200 167 200 400q0 135 -104 227.5t-246 92.5q-147 0 -248.5 -110.5t-101.5 -269.5q0 -86 30 -146t90 -94q-40 68 -40 140q0 93 64 156.5t156 63.5q76 0 128 -59.5t52 -140.5q0 -108 -75.5 -184t-184.5 -76q-128 0 -214 101.5t-86 238.5
q0 199 136.5 339.5t333.5 140.5q191 0 330.5 -120.5t139.5 -299.5q0 -175 -120 -320h358l44 220q-80 15 -130 77t-50 143q0 112 65.5 192.5t158.5 87.5q-92 104 -92 240q0 110 82.5 185t197.5 75q113 0 196.5 -68t83.5 -172q0 -74 -52.5 -127t-127.5 -53q-73 0 -126.5 46
t-53.5 114q0 108 80 180q-81 0 -140.5 -52t-59.5 -128q0 -83 35 -141q27 -34 57 -75l57 -81q28 -40 33 -64t6 -43q0 -44 -12 -100l-32 -156q92 0 182 58t162 162zM1702 1202q-60 -55 -60 -142q0 -34 23 -57t57 -23q60 0 60 80q0 51 -23.5 90t-56.5 52z" />
    <glyph glyph-name="tm_s_iikaar" horiz-adv-x="1964" 
d="M586 280q0 37 -16.5 68.5t-43.5 31.5q-45 0 -72.5 -42.5t-27.5 -97.5q0 -66 20 -120q59 10 99.5 55.5t40.5 104.5zM1903 520q0 -216 -123 -368t-277 -152q-104 0 -175 56.5t-71 131.5q0 26 6 52l73 340q4 19 4 36q0 34 -15 59t-47 25q-66 0 -112.5 -59t-63.5 -141
l-100 -500h-160l76 380q6 30 6 59q0 106 -79 193.5t-199 87.5q-159 0 -269.5 -110.5t-110.5 -269.5q0 -85 32.5 -140t97.5 -80q-50 71 -50 160q0 85 65 142.5t155 57.5q76 0 128 -59.5t52 -140.5q0 -115 -75 -197.5t-185 -82.5q-128 0 -214 101.5t-86 238.5q0 192 134.5 326
t325.5 134q134 0 240 -77t140 -203q33 121 106.5 200.5t163.5 79.5q87 0 141.5 -52.5t54.5 -135.5q0 -29 -8 -66l-61 -306q-5 -22 -5 -46q0 -39 32 -66.5t73 -27.5q132 0 215.5 121.5t84.5 278.5q0 76 -59 148q-62 -46 -112 -46q-72 0 -116 81t-44 177q0 186 114 323
t286 137q109 0 184.5 -75.5t75.5 -184.5q0 -73 -46 -126.5t-114 -53.5q-69 0 -119.5 46.5t-50.5 113.5q0 137 110 200l-40 10q-139 0 -229.5 -117t-90.5 -273q0 -66 21 -123t59 -57q36 0 72 20q-61 65 -61 108q-1 27 22 46.5t53 19.5q40 0 74.5 -33.5t62.5 -120t28 -200.5z
M1982 1220q-100 -56 -100 -140q0 -41 22.5 -70.5t57.5 -29.5t57.5 29.5t22.5 70.5q0 106 -60 140z" />
    <glyph glyph-name="tm_h_iikaar" horiz-adv-x="2336" 
d="M588 260q0 38 -19.5 69t-50.5 31q-40 0 -65 -36t-25 -84q0 -67 40 -140q54 3 87 50t33 110zM2286 460q0 -270 -178 -455t-442 -185h-1260q-24 0 -42 -18t-18 -42q0 -17 15 -50q15 -32 15 -50q0 -38 -22.5 -64t-57.5 -26q-48 0 -79 39t-31 91q0 78 66 129t154 51h1260
q213 0 346.5 202t133.5 458q0 73 -46 126.5t-114 53.5q-86 0 -152.5 -59t-87.5 -161l-100 -500h-160l120 580q3 16 3 32q0 41 -20 74.5t-59 33.5t-71 -39.5t-43 -100.5l-110 -580h-538q200 167 200 400q0 135 -104 227.5t-246 92.5q-147 0 -248.5 -110.5t-101.5 -269.5
q0 -86 30 -146t90 -94q-40 68 -40 140q0 93 64 156.5t156 63.5q76 0 128 -59.5t52 -140.5q0 -108 -75.5 -184t-184.5 -76q-128 0 -214 101.5t-86 238.5q0 199 136.5 339.5t333.5 140.5q191 0 330.5 -120.5t139.5 -299.5q0 -175 -120 -320h238l90 500q18 98 77 159t133 61
q68 0 114 -53.5t46 -126.5q28 75 95.5 126.5t144.5 53.5q-61 49 -91.5 114t-30.5 146q0 104 82 177t206 73q112 0 192 -64.5t80 -165.5q0 -66 -46.5 -113t-113.5 -47q-81 0 -140.5 52t-59.5 128q0 72 40 120q-66 0 -113 -47t-47 -113q0 -75 38 -139.5t114 -118.5
q108 -29 169 -123t61 -219zM2146 1212q-42 -33 -42 -112q0 -39 26 -64.5t68 -25.5q76 0 76 70q0 51 -36.5 88.5t-91.5 43.5z" />
    <glyph glyph-name="tm_k_ukaar" horiz-adv-x="1612" 
d="M1014 360h-310q-49 0 -84.5 -28.5t-35.5 -71.5q0 -80 80 -130t180 -50q51 0 89 33.5t49 86.5zM1086 720h-222l-56 -280h222zM1158 280q-28 -138 -115.5 -209t-198.5 -71q-133 0 -236.5 73t-103.5 187q0 76 59.5 128t140.5 52h28l72 360h720l-20 -80h-258l-56 -280h114
q110 0 185 -82.5t75 -197.5q0 -277 -199 -468.5t-481 -191.5q-317 0 -508.5 181.5t-191.5 488.5q0 219 102 392.5t278 237.5l30 -60q-153 -56 -241.5 -208t-88.5 -342q0 -263 170.5 -416.5t449.5 -153.5q219 0 369.5 158t150.5 382q0 78 -39 139t-101 61h-90z" />
    <glyph glyph-name="tm_ng_ukaar" horiz-adv-x="1520" 
d="M1112 -370l72 370h-704l16 80h144q107 0 183.5 68.5t76.5 171.5q0 43 -28.5 71.5t-71.5 28.5q-34 0 -63 -31t-37 -69l-20 -100h-160l100 500h-220l-146 -720h-74l160 800h660l-20 -80h-200l-50 -260q68 60 150 60q76 0 128 -59.5t52 -140.5q0 -82 -66 -147.5t-164 -92.5
h372l144 720h158l-232 -1170h-160z" />
    <glyph glyph-name="tm_c_ukaar" horiz-adv-x="1222" 
d="M630 360h-310q-49 0 -84.5 -28.5t-35.5 -71.5q0 -80 80 -130t180 -50q51 0 89 33.5t49 86.5zM702 720h-222l-56 -280h222zM774 280q-28 -138 -115.5 -209t-198.5 -71q-133 0 -236.5 73t-103.5 187q0 76 59.5 128t140.5 52h28l72 360h720l-16 -80h-262l-56 -280h472
l-18 -80h-150l-72 -360h-158l72 360h-162z" />
    <glyph glyph-name="glyph167" horiz-adv-x="1360" 
d="M260 1000h1000v-1000h-1000v1000zM1180 80v840h-840v-840h840z" />
    <glyph glyph-name="tm_ny_ukaar" horiz-adv-x="1926" 
d="M620 260q0 47 -22 83.5t-58 36.5q-56 0 -93 -41.5t-37 -98.5q0 -84 30 -140q73 0 126.5 46t53.5 114zM1130 -200h-978q54 -66 192 -113t282 -47q138 0 279.5 46.5t224.5 113.5zM1232 360l-72 -360h-160l144 720h-404q-188 0 -334 -100.5t-146 -259.5q0 -92 25 -152
t75 -88q-20 54 -20 120q0 107 68.5 183.5t171.5 76.5q83 0 141.5 -58.5t58.5 -141.5q0 -123 -81 -211.5t-199 -88.5q-137 0 -228.5 107t-91.5 253q0 192 169.5 316t390.5 124h780l-20 -80h-196l-56 -280q99 0 170.5 -63t71.5 -157q0 -180 -130 -340h202l184 920h160
l-200 -1000h-406q-120 -120 -288 -180t-384 -60q-202 0 -389 89.5t-187 170.5q0 60 62 60h1086q130 160 130 320q0 66 -29 113t-69 47z" />
    <glyph glyph-name="tm_tt_ukaar" horiz-adv-x="1660" 
d="M1490 0h-76l72 356q21 101 21 200q-1 210 -145 357t-356 147q-290 0 -495 -211t-205 -531q0 -234 116 -406t308 -172q169 0 276.5 125t107.5 315q0 77 -26.5 143.5t-73.5 66.5q-63 0 -78 -70l-66 -320h-160l160 800h160l-70 -360q47 40 106 40q94 0 151 -90t57 -210
q0 -226 -158.5 -373t-385.5 -147t-365.5 196t-138.5 462q0 362 234 602t566 240q252 0 413 -155t161 -389q0 -71 -18 -160z" />
    <glyph glyph-name="tm_nn_ukaar" horiz-adv-x="2796" 
d="M614 240q0 41 -25 70.5t-65 29.5q-45 0 -67.5 -25t-22.5 -75q0 -73 38 -140q71 12 106.5 47t35.5 93zM1148 270q0 64 -26.5 142.5t-65.5 129.5q-54 -57 -81 -127.5t-27 -154.5q0 -55 27.5 -97.5t72.5 -42.5q46 0 73 44t27 106zM1700 270q0 62 -28 145t-64 127
q-54 -54 -81 -124.5t-27 -157.5q0 -55 27.5 -97.5t72.5 -42.5q46 0 73 44t27 106zM1922 -200h-1714q127 -129 369 -214.5t461 -85.5q261 0 497 80t387 220zM2778 800l-206 -1000h-498q-161 -179 -433.5 -279.5t-582.5 -100.5q-217 0 -431.5 63.5t-366.5 164t-152 162.5
q0 70 90 70h1786q74 87 118 227t44 275q0 154 -67 236t-163 82q-110 0 -190 -68q67 -80 100.5 -170.5t33.5 -191.5q0 -114 -60.5 -192t-159.5 -78q-97 0 -158.5 75.5t-61.5 184.5q0 102 36 188.5t108 157.5q-76 94 -188 94q-116 0 -210 -70q71 -80 106.5 -170t35.5 -190
q0 -114 -60.5 -192t-159.5 -78q-97 0 -158.5 75.5t-61.5 184.5q0 101 35.5 187t106.5 157q-100 96 -258 96q-236 0 -367 -108.5t-131 -271.5q0 -76 38 -137t102 -83q-40 68 -40 140q0 99 61.5 159.5t158.5 60.5q75 0 127.5 -52.5t52.5 -127.5q0 -117 -81.5 -198.5
t-198.5 -81.5q-126 0 -213 94.5t-87 225.5q0 203 165.5 341.5t412.5 138.5q188 0 348 -108q131 108 282 108q155 0 288 -108q131 108 256 108q158 0 269 -111t111 -307q0 -125 -45 -269t-113 -233h248l196 920h186z" />
    <glyph glyph-name="tm_t_ukaar" horiz-adv-x="1560" 
d="M630 360h-310q-49 0 -84.5 -28.5t-35.5 -71.5q0 -80 80 -130t180 -50q51 0 89 33.5t49 86.5zM702 720h-222l-56 -280h222zM774 280q-28 -138 -115.5 -209t-198.5 -71q-133 0 -236.5 73t-103.5 187q0 76 59.5 128t140.5 52h28l72 360h700l-20 -80h-238l-56 -280h74
q99 0 169.5 -63t70.5 -157q0 -180 -130 -340h206l184 920h160l-200 -1000h-420q-101 -120 -222.5 -180t-263.5 -60q-156 0 -300 89.5t-144 170.5q0 60 62 60h778q130 160 130 320q0 61 -27 110.5t-73 49.5h-70zM780 -200h-690q45 -69 143.5 -114.5t200.5 -45.5
q106 0 192.5 40t153.5 120z" />
    <glyph glyph-name="tm_n_ukaar" horiz-adv-x="1520" 
d="M780 -200h-690q45 -69 143.5 -114.5t200.5 -45.5q106 0 192.5 40t153.5 120zM1500 800l-200 -1000h-380q-101 -120 -222.5 -180t-263.5 -60q-156 0 -300 89.5t-144 170.5q0 60 62 60h768q100 172 100 320q0 69 -29.5 129.5t-78.5 60.5q-31 0 -56 -17t-32 -53l-64 -320
h-160l144 720h-244l-144 -720h-76l160 800h760l-20 -80h-276l-54 -280q52 60 140 60q85 0 137.5 -86.5t52.5 -193.5q0 -185 -110 -340h186l184 920h160z" />
    <glyph glyph-name="tm_nnn_ukaar" horiz-adv-x="2218" 
d="M614 240q0 41 -25 70.5t-65 29.5q-45 0 -67.5 -25t-22.5 -75q0 -73 38 -140q71 12 106.5 47t35.5 93zM1148 270q0 64 -26.5 142.5t-65.5 129.5q-54 -57 -81 -127.5t-27 -154.5q0 -55 27.5 -97.5t72.5 -42.5q46 0 73 44t27 106zM1348 -200h-1150q86 -93 254 -156.5
t328 -63.5q169 0 323.5 57t244.5 163zM2198 800l-200 -1000h-480q-127 -150 -311.5 -225t-426.5 -75q-245 0 -463.5 109.5t-218.5 210.5q0 60 62 60h1258q73 86 115.5 225t42.5 277q0 154 -67 236t-163 82q-97 0 -180 -70q71 -80 106.5 -170t35.5 -190q0 -114 -60.5 -192
t-159.5 -78q-97 0 -158.5 75.5t-61.5 184.5q0 101 35.5 187t106.5 157q-100 96 -258 96q-236 0 -367 -108.5t-131 -271.5q0 -76 38 -137t102 -83q-40 68 -40 140q0 99 61.5 159.5t158.5 60.5q75 0 127.5 -52.5t52.5 -127.5q0 -117 -81.5 -198.5t-198.5 -81.5
q-126 0 -213 94.5t-87 225.5q0 203 165.5 341.5t412.5 138.5q188 0 348 -108q131 108 256 108q158 0 269 -111t111 -307q0 -125 -45 -269t-113 -233h276l184 920h160z" />
    <glyph glyph-name="tm_p_ukaar" horiz-adv-x="1380" 
d="M1038 0h-858l160 800h160l-144 -720h702l142 720h160l-240 -1200h-160z" />
    <glyph glyph-name="tm_m_ukaar" horiz-adv-x="1998" 
d="M1872 340q0 134 -54 247t-146 113q-52 0 -92 -30t-48 -70l-104 -520h244q87 0 143.5 78.5t56.5 181.5zM674 0l158 800h160l-144 -720h420l104 520q16 79 90 139.5t170 60.5q143 0 231.5 -141.5t88.5 -318.5q0 -135 -79.5 -237.5t-200.5 -102.5h-260q-37 -213 -220 -346.5
t-420 -133.5q-253 0 -426.5 188t-173.5 452q0 193 96 358.5t264 261.5l40 -60q-150 -87 -235 -233.5t-85 -316.5q0 -227 150 -388.5t370 -161.5q181 0 319 106t161 274h-578z" />
    <glyph glyph-name="tm_y_ukaar" horiz-adv-x="1446" 
d="M1030 -420l81 420h-601l20 100q-30 -60 -71.5 -90t-94.5 -30q-70 0 -113.5 67t-43.5 151q0 46 7 82l104 520h160l-104 -520q-3 -17 -3 -54q0 -53 19.5 -79.5t59.5 -26.5q35 0 65 27t37 63l118 590h160l-144 -720h440l144 720h160l-242 -1220h-158z" />
    <glyph glyph-name="tm_r_ukaar" horiz-adv-x="1594" 
d="M1098 0h-160l144 720h-244l-144 -720h-76l160 800h760l-22 -80h-274l-58 -280q52 60 124 60q100 0 165 -84t65 -196q0 -281 -216.5 -470.5t-513.5 -189.5q-287 0 -458.5 178t-171.5 472q0 198 115 360t305 230l40 -60q-171 -62 -275.5 -206.5t-104.5 -323.5
q0 -259 152.5 -414.5t407.5 -155.5q232 0 391 170.5t159 409.5q0 68 -30 124t-80 56q-78 0 -98 -96z" />
    <glyph glyph-name="tm_rr_ukaar" horiz-adv-x="1692" 
d="M842 -200h-690q45 -69 143.5 -114.5t200.5 -45.5q106 0 192.5 40t153.5 120zM1672 800l-200 -1000h-490q-101 -120 -222.5 -180t-263.5 -60q-156 0 -300 89.5t-144 170.5q0 60 62 60h778q75 90 112.5 219.5t37.5 300.5q0 109 -40 204.5t-110 95.5q-62 0 -108 -30t-54 -70
l-120 -600h-160l120 600q3 15 3 30q0 36 -23.5 63t-59.5 27q-40 0 -75 -36t-45 -84l-120 -600h-80l120 600q16 78 79.5 139t140.5 61q59 0 104.5 -33.5t55.5 -86.5q44 60 106.5 90t143.5 30q128 0 210 -117t82 -283q0 -147 -47.5 -276.5t-142.5 -243.5h308l182 920h160z" />
    <glyph glyph-name="tm_l_ukaar" horiz-adv-x="1962" 
d="M986 -200h-802q57 -68 175.5 -114t230.5 -46q113 0 224.5 44.5t171.5 115.5zM642 280q0 41 -22.5 70.5t-57.5 29.5q-43 0 -71.5 -35.5t-28.5 -84.5q0 -92 60 -160q55 11 87.5 63t32.5 117zM1942 800l-200 -1000h-610q-95 -112 -240 -176t-300 -64q-165 0 -337.5 88.5
t-172.5 177.5q0 54 62 54h888q39 64 43 127q-73 15 -126 66t-52 115q0 25 5 52l46 217q4 19 4 36q0 96 -79 161.5t-191 65.5q-167 0 -293.5 -99.5t-126.5 -250.5q0 -99 49 -177t131 -93q-60 68 -60 160q0 93 64 156.5t156 63.5q83 0 141.5 -58.5t58.5 -141.5
q0 -120 -95.5 -200t-224.5 -80q-131 0 -215.5 111.5t-84.5 258.5q0 188 163 309t377 121q154 0 270.5 -80t117.5 -216q0 -30 -8 -66l-40 -198q-4 -22 -4 -46q0 -39 31.5 -66.5t72.5 -27.5q133 0 216.5 121.5t83.5 278.5q0 52 -80 140q-80 89 -80 140q0 25 21 42.5t49 17.5
q50 0 86 -34.5t60 -110.5t24 -175q0 -195 -98.5 -335t-212.5 -173q-9 -75 -49 -132h416l184 920h160z" />
    <glyph glyph-name="tm_ll_ukaar" horiz-adv-x="2106" 
d="M834 280q0 110 -60 110q-45 0 -72.5 -46t-27.5 -98q0 -93 40 -126q54 3 87 49.5t33 110.5zM1723 342l-69 -342h-160l144 720h-240l-144 -720h-160l74 380q7 36 7 66q0 124 -79 209t-202 85q-161 0 -270.5 -117.5t-109.5 -282.5q0 -78 30 -128t90 -72q-30 56 -30 130
q0 91 61 155.5t149 64.5q76 0 128 -59.5t52 -140.5q0 -118 -74.5 -204t-185.5 -86q-128 0 -214 101.5t-86 238.5q0 197 133.5 338.5t326.5 141.5q164 0 265.5 -91.5t118.5 -228.5l60 300h694l-20 -80h-214l-55 -278q41 38 111 38q89 0 144.5 -85.5t55.5 -194.5
q0 -302 -287 -491t-653 -189q-360 0 -630 216t-270 544q0 344 210 520l50 -60q-180 -150 -180 -460q0 -294 246 -487t574 -193q305 0 542.5 162t237.5 418q0 74 -27 137t-73 63q-24 0 -47 -11q-8 -10 -24 -27z" />
    <glyph glyph-name="tm_lll_ukaar" horiz-adv-x="2008" 
d="M1886 340q0 136 -59.5 248t-160.5 112q-44 0 -78 -30.5t-42 -69.5l-104 -520h264q80 0 130 80t50 180zM1966 340q0 -133 -73 -236.5t-187 -103.5h-282l-26 -120q51 40 124 40q75 0 127.5 -52.5t52.5 -127.5q0 -131 -199 -205.5t-421 -74.5q-358 0 -629 209.5t-271 530.5
q0 203 109 368t291 232l40 -60q-164 -61 -262 -209t-98 -331q0 -288 247 -474t573 -186q160 0 305 53.5t145 146.5q0 33 -20 56.5t-50 23.5q-70 0 -80 -40l-20 -80h-162l64 300h-578l160 800h160l-144 -720h420l104 520q18 88 73 144t127 56q165 0 272.5 -138t107.5 -322z
" />
    <glyph glyph-name="tm_v_ukaar" horiz-adv-x="1688" 
d="M588 260q0 38 -19.5 69t-50.5 31q-40 0 -65 -36t-25 -84q0 -67 40 -140q54 3 87 50t33 110zM1268 -400l80 400h-580q200 167 200 400q0 135 -104 227.5t-246 92.5q-147 0 -248.5 -110.5t-101.5 -269.5q0 -86 30 -146t90 -94q-40 68 -40 140q0 93 64 156.5t156 63.5
q76 0 128 -59.5t52 -140.5q0 -108 -75.5 -184t-184.5 -76q-128 0 -214 101.5t-86 238.5q0 199 136.5 339.5t333.5 140.5q191 0 330.5 -120.5t139.5 -299.5q0 -175 -120 -320h356l144 720h160l-240 -1200h-160z" />
    <glyph glyph-name="tm_k_uukaar" horiz-adv-x="1738" 
d="M630 360h-310q-49 0 -84.5 -28.5t-35.5 -71.5q0 -80 80 -130t180 -50q51 0 89 33.5t49 86.5zM702 720h-222l-56 -280h222zM1160 200q0 96 -120 140q-80 -67 -80 -160q0 -42 29 -71t71 -29q43 0 71.5 35.5t28.5 84.5zM1320 0q90 107 90 220q0 80 -48.5 140t-121.5 60
q-74 0 -130 -30q62 -22 101 -74t39 -116q0 -82 -55.5 -141t-134.5 -59q-74 0 -127 53t-53 127q0 113 80 180h-170l-16 -80q-28 -138 -115.5 -209t-198.5 -71q-133 0 -236.5 73t-103.5 187q0 76 59.5 128t140.5 52h28l72 360h700l-16 -80h-242l-56 -280h114q76 0 120 -20
q68 60 200 60q115 0 197.5 -75t82.5 -185q0 -84 -30 -140h230v-80h-400z" />
    <glyph glyph-name="tm_ng_uukaar" horiz-adv-x="1614" 
d="M1110 -320l66 320h-696l16 80h144q107 0 183.5 68.5t76.5 171.5q0 43 -28.5 71.5t-71.5 28.5q-34 0 -63 -31t-37 -69l-20 -100h-160l100 500h-220l-146 -720h-74l160 800h660l-20 -80h-200l-50 -260q68 60 150 60q76 0 128 -59.5t52 -140.5q0 -82 -66 -147.5t-164 -92.5
h362l142 720h160l-154 -780q48 40 130 40q75 0 127.5 -52.5t52.5 -127.5q0 -193 -233 -306.5t-507 -113.5q-245 0 -467.5 74t-222.5 206q0 80 77 130t173 50q257 0 480 -130l-80 -110q-188 160 -400 160q-60 0 -110 -24t-50 -66q0 -99 197 -154.5t403 -55.5
q211 0 385.5 92.5t174.5 247.5q0 33 -20 56.5t-50 23.5t-55.5 -22.5t-34.5 -67.5l-40 -190h-160z" />
    <glyph glyph-name="tm_c_uukaar" horiz-adv-x="1820" 
d="M1012 360h-310q-49 0 -84.5 -28.5t-35.5 -71.5q0 -80 80 -130t180 -50q51 0 89 33.5t49 86.5zM1084 720h-222l-56 -280h222zM1156 280q-28 -138 -115.5 -209t-198.5 -71q-133 0 -236.5 73t-103.5 187q0 76 59.5 128t140.5 52h28l72 360h720l-20 -80h-258l-56 -280h474
l-20 -80h-150l-32 -160q52 60 142 60q79 0 129.5 -73.5t50.5 -166.5q0 -240 -233 -390t-527 -150q-339 0 -589.5 205t-250.5 515q0 213 115 381t305 219l30 -60q-168 -45 -269 -196.5t-101 -343.5q0 -269 229.5 -444.5t530.5 -175.5q231 0 415.5 116t184.5 304
q0 61 -27 110.5t-73 49.5q-45 0 -80 -60l-22 -100h-160l72 360h-160z" />
    <glyph glyph-name="glyph186" horiz-adv-x="1360" 
d="M260 1000h1000v-1000h-1000v1000zM1180 80v840h-840v-840h840z" />
    <glyph glyph-name="tm_ny_uukaar" horiz-adv-x="2182" 
d="M620 260q0 47 -22 83.5t-58 36.5q-56 0 -93 -41.5t-37 -98.5q0 -58 30 -140q73 0 126.5 46t53.5 114zM1130 -200h-978q54 -66 192 -113t282 -47q138 0 279.5 46.5t224.5 113.5zM1230 360l-70 -360h-160l144 720h-404q-188 0 -334 -100.5t-146 -259.5q0 -92 25 -152
t75 -88q-20 54 -20 120q0 107 68.5 183.5t171.5 76.5q83 0 141.5 -58.5t58.5 -141.5q0 -123 -81 -211.5t-199 -88.5q-137 0 -228.5 107t-91.5 253q0 192 169.5 316t390.5 124h780l-20 -80h-196l-56 -280q99 0 170.5 -63t71.5 -157q0 -180 -130 -340h216l184 920h518l-18 -80
h-126l-184 -920h-160l184 920h-154l-184 -920h-336q-120 -120 -288 -180t-384 -60q-202 0 -389 89.5t-187 170.5q0 60 62 60h1086q130 160 130 320q0 61 -27 110.5t-73 49.5z" />
    <glyph glyph-name="tm_tt_uukaar" horiz-adv-x="1520" 
d="M1408 560q-83 0 -141.5 62t-58.5 148q0 141 140 260q-106 90 -300 90q-312 0 -526 -229.5t-214 -550.5q0 -231 116 -415.5t304 -184.5q172 0 286 137t114 323q0 61 -27 110.5t-73 49.5q-81 0 -100 -60l-60 -300h-160l160 800h160l-80 -400q68 60 140 60q87 0 143.5 -78.5
t56.5 -181.5q0 -227 -164 -383.5t-396 -156.5q-222 0 -361 207t-139 473q0 361 236.5 620.5t583.5 259.5q225 0 402.5 -116.5t177.5 -303.5q0 -99 -63 -169.5t-157 -70.5zM1388 980q-100 -56 -100 -210q0 -38 22.5 -64t57.5 -26q43 0 71.5 35.5t28.5 84.5q0 113 -80 180z
" />
    <glyph glyph-name="tm_nn_uukaar" horiz-adv-x="3010" 
d="M614 240q0 41 -25 70.5t-65 29.5q-45 0 -67.5 -25t-22.5 -75q0 -73 38 -140q71 12 106.5 47t35.5 93zM1148 270q0 64 -26.5 142.5t-65.5 129.5q-54 -57 -81 -127.5t-27 -154.5q0 -55 27.5 -97.5t72.5 -42.5q46 0 73 44t27 106zM1700 270q0 62 -28 145t-64 127
q-54 -54 -81 -124.5t-27 -157.5q0 -55 27.5 -97.5t72.5 -42.5q46 0 73 44t27 106zM1922 -200h-1714q127 -129 369 -214.5t461 -85.5q261 0 497 80t387 220zM2616 720l-184 -920h-358q-161 -179 -433.5 -279.5t-582.5 -100.5q-217 0 -431.5 63.5t-366.5 164t-152 162.5
q0 70 90 70h1786q74 87 118 227t44 275q0 154 -67 236t-163 82q-110 0 -190 -68q67 -80 100.5 -170.5t33.5 -191.5q0 -114 -60.5 -192t-159.5 -78q-97 0 -158.5 75.5t-61.5 184.5q0 102 36 188.5t108 157.5q-76 94 -188 94q-116 0 -210 -70q71 -80 106.5 -170t35.5 -190
q0 -114 -60.5 -192t-159.5 -78q-97 0 -158.5 75.5t-61.5 184.5q0 101 35.5 187t106.5 157q-100 96 -258 96q-236 0 -367 -108.5t-131 -271.5q0 -76 38 -137t102 -83q-40 68 -40 140q0 99 61.5 159.5t158.5 60.5q75 0 127.5 -52.5t52.5 -127.5q0 -117 -81.5 -198.5
t-198.5 -81.5q-126 0 -213 94.5t-87 225.5q0 203 165.5 341.5t412.5 138.5q188 0 348 -108q131 108 282 108q155 0 288 -108q131 108 256 108q158 0 269 -111t111 -307q0 -125 -45 -269t-113 -233h222l184 920h590l-20 -80h-136l-184 -920h-160l184 920h-212z" />
    <glyph glyph-name="tm_t_uukaar" horiz-adv-x="1868" 
d="M630 360h-310q-49 0 -84.5 -28.5t-35.5 -71.5q0 -80 80 -130t180 -50q51 0 89 33.5t49 86.5zM702 720h-222l-56 -280h222zM774 280q-28 -138 -115.5 -209t-198.5 -71q-133 0 -236.5 73t-103.5 187q0 76 59.5 128t140.5 52h28l72 360h700l-20 -80h-238l-56 -280h74
q99 0 169.5 -63t70.5 -157q0 -180 -130 -340h210l184 920h590l-20 -80h-136l-184 -920h-160l184 920h-212l-184 -920h-342q-101 -120 -222.5 -180t-263.5 -60q-156 0 -300 89.5t-144 170.5q0 60 62 60h778q130 160 130 320q0 61 -27 110.5t-73 49.5h-70zM780 -200h-690
q45 -69 143.5 -114.5t200.5 -45.5q106 0 192.5 40t153.5 120z" />
    <glyph glyph-name="tm_n_uukaar" horiz-adv-x="1810" 
d="M780 -200h-690q45 -69 143.5 -114.5t200.5 -45.5q106 0 192.5 40t153.5 120zM1406 720l-184 -920h-302q-101 -120 -222.5 -180t-263.5 -60q-156 0 -300 89.5t-144 170.5q0 60 62 60h768q100 172 100 320q0 70 -27 130t-73 60q-44 0 -69 -17.5t-31 -52.5l-60 -320h-160
l140 720h-240l-140 -720h-80l160 800h760l-20 -80h-280l-50 -280q52 60 140 60q85 0 137.5 -86.5t52.5 -193.5q0 -185 -110 -340h190l184 920h590l-20 -80h-136l-184 -920h-160l184 920h-212z" />
    <glyph glyph-name="tm_nnn_uukaar" horiz-adv-x="2510" 
d="M614 240q0 41 -25 70.5t-65 29.5q-45 0 -67.5 -25t-22.5 -75q0 -73 38 -140q71 12 106.5 47t35.5 93zM1148 270q0 64 -26.5 142.5t-65.5 129.5q-54 -57 -81 -127.5t-27 -154.5q0 -55 27.5 -97.5t72.5 -42.5q46 0 73 44t27 106zM1348 -200h-1150q86 -93 254 -156.5
t328 -63.5q169 0 323.5 57t244.5 163zM2104 720l-184 -920h-402q-127 -150 -311.5 -225t-426.5 -75q-245 0 -463.5 109.5t-218.5 210.5q0 60 62 60h1258q73 86 115.5 225t42.5 277q0 154 -67 236t-163 82q-97 0 -180 -70q71 -80 106.5 -170t35.5 -190q0 -114 -60.5 -192
t-159.5 -78q-97 0 -158.5 75.5t-61.5 184.5q0 101 35.5 187t106.5 157q-100 96 -258 96q-236 0 -367 -108.5t-131 -271.5q0 -76 38 -137t102 -83q-40 68 -40 140q0 99 61.5 159.5t158.5 60.5q75 0 127.5 -52.5t52.5 -127.5q0 -117 -81.5 -198.5t-198.5 -81.5
q-126 0 -213 94.5t-87 225.5q0 203 165.5 341.5t412.5 138.5q188 0 348 -108q131 108 256 108q158 0 269 -111t111 -307q0 -125 -45 -269t-113 -233h280l184 920h590l-20 -80h-136l-184 -920h-160l184 920h-212z" />
    <glyph glyph-name="tm_p_uukaar" horiz-adv-x="1466" 
d="M1040 0h-860l160 800h160l-144 -720h700l144 720h160l-160 -800q52 60 120 60q79 0 134.5 -59t55.5 -141q0 -183 -216 -291.5t-474 -108.5q-248 0 -474 79.5t-226 220.5q0 74 95 117t205 43q304 0 440 -80l-80 -150q-159 130 -360 130q-73 0 -136.5 -21t-63.5 -59
q0 -95 177 -147.5t363 -52.5q213 0 396.5 86.5t183.5 233.5q0 41 -22.5 70.5t-57.5 29.5q-69 0 -76 -40l-34 -180h-162z" />
    <glyph glyph-name="tm_m_uukaar" horiz-adv-x="2028" 
d="M1902 340q0 136 -59.5 248t-160.5 112q-44 0 -78 -30.5t-42 -69.5l-104 -520h264q78 0 129 79t51 181zM702 0l160 800h160l-146 -720h422l104 520q16 79 90 139.5t170 60.5q143 0 231.5 -141.5t88.5 -318.5q0 -137 -74 -238.5t-186 -101.5h-280q-60 -222 -237 -361
t-403 -139q-261 0 -430.5 223t-169.5 517q0 204 93 372t247 168q83 0 141.5 -58.5t58.5 -141.5q0 -102 -81.5 -169t-192.5 -67q-90 0 -166 36q-20 -54 -20 -140q0 -256 146.5 -448t373.5 -192q178 0 314 112t166 288h-580zM322 460q54 -20 120 -20q73 0 126.5 49.5
t53.5 120.5q0 35 -26 57.5t-64 22.5q-69 0 -125.5 -65.5t-84.5 -164.5z" />
    <glyph glyph-name="tm_y_uukaar" horiz-adv-x="1554" 
d="M1050 -300l60 300h-600l20 100q-30 -60 -71.5 -90t-94.5 -30q-70 0 -113.5 67t-43.5 151q0 46 7 82l104 520h160l-104 -520q-3 -17 -3 -54q0 -53 19.5 -79.5t59.5 -26.5q35 0 65 27t37 63l118 590h160l-144 -720h440l144 720h160l-156 -780q60 40 136 40
q75 0 127.5 -52.5t52.5 -127.5q0 -193 -233 -306.5t-507 -113.5q-245 0 -467.5 74t-222.5 206q0 80 77 130t173 50q257 0 480 -130l-80 -110q-188 160 -400 160q-60 0 -110 -24t-50 -66q0 -99 197 -154.5t403 -55.5q211 0 385.5 92.5t174.5 247.5q0 33 -20 56.5t-50 23.5
q-34 0 -61.5 -25t-32.5 -49l-38 -186h-158z" />
    <glyph glyph-name="tm_r_uukaar" horiz-adv-x="1702" 
d="M1206 0h-160l140 720h-240l-144 -720h-76l158 800h762l-20 -80h-280l-54 -280q48 60 124 60q100 0 165 -84t65 -196q0 -285 -233 -472.5t-547 -187.5q-279 0 -469.5 205.5t-190.5 494.5q0 204 93 372t247 168q69 0 114.5 -60.5t45.5 -139.5q0 -107 -68.5 -183.5
t-171.5 -76.5q-92 0 -168 40q-12 -39 -12 -120q0 -255 167.5 -437.5t412.5 -182.5q255 0 437.5 167.5t182.5 412.5q0 69 -33 124.5t-87 55.5q-34 0 -62.5 -21t-35.5 -59zM326 480q56 -30 140 -30q59 0 99.5 44.5t40.5 105.5q0 37 -16.5 68.5t-43.5 31.5q-67 0 -126 -62
t-94 -158z" />
    <glyph glyph-name="tm_rr_uukaar" horiz-adv-x="1982" 
d="M842 -200h-690q45 -69 143.5 -114.5t200.5 -45.5q106 0 192.5 40t153.5 120zM1578 720l-184 -920h-412q-101 -120 -222.5 -180t-263.5 -60q-156 0 -300 89.5t-144 170.5q0 60 62 60h778q75 90 112.5 219.5t37.5 300.5q0 109 -40 204.5t-110 95.5q-62 0 -108 -30t-54 -70
l-120 -600h-160l120 600q3 15 3 30q0 36 -23.5 63t-59.5 27q-40 0 -75 -36t-45 -84l-120 -600h-80l120 600q16 78 79.5 139t140.5 61q59 0 104.5 -33.5t55.5 -86.5q44 60 106.5 90t143.5 30q128 0 210 -117t82 -283q0 -147 -47.5 -276.5t-142.5 -243.5h310l184 920h590
l-20 -80h-140l-180 -920h-160l180 920h-208z" />
    <glyph glyph-name="tm_l_uukaar" horiz-adv-x="2252" 
d="M986 -200h-802q57 -68 175.5 -114t230.5 -46q113 0 224.5 44.5t171.5 115.5zM642 280q0 41 -22.5 70.5t-57.5 29.5q-43 0 -71.5 -35.5t-28.5 -84.5q0 -92 60 -160q55 11 87.5 63t32.5 117zM1848 720l-184 -920h-532q-95 -112 -240 -176t-300 -64q-165 0 -337.5 88.5
t-172.5 177.5q0 54 62 54h888q32 52 45 126q-73 15 -126.5 66t-53.5 116q0 25 5 52l42 200q7 33 7 62q0 88 -78 153t-191 65q-167 0 -293.5 -99.5t-126.5 -250.5q0 -99 49 -177t131 -93q-60 68 -60 160q0 93 64 156.5t156 63.5q83 0 141.5 -58.5t58.5 -141.5
q0 -120 -95.5 -200t-224.5 -80q-131 0 -215.5 111.5t-84.5 258.5q0 188 163 309t377 121q151 0 269.5 -88t118.5 -206q0 -29 -8 -66l-40 -200q-4 -22 -4 -46q0 -39 31.5 -66.5t72.5 -27.5q133 0 216.5 121.5t83.5 278.5q0 52 -80 140q-80 89 -80 140q0 25 21 42.5t49 17.5
q50 0 86 -34.5t60 -110.5t24 -175q0 -194 -97.5 -333.5t-211.5 -174.5q-9 -80 -51 -132h420l184 920h590l-20 -80h-140l-180 -920h-160l180 920h-208z" />
    <glyph glyph-name="tm_ll_uukaar" horiz-adv-x="2378" 
d="M1104 280q0 110 -60 110q-45 0 -72.5 -46t-27.5 -98q0 -93 40 -126q54 3 87 49.5t33 110.5zM1992 340l-68 -340h-160l144 720h-240l-144 -720h-160l74 380q7 36 7 66q0 124 -79 209t-202 85q-161 0 -270.5 -117.5t-109.5 -282.5q0 -78 30 -128t90 -72q-30 56 -30 130
q0 91 61 155.5t149 64.5q76 0 128 -59.5t52 -140.5q0 -118 -74.5 -204t-185.5 -86q-128 0 -214 101.5t-86 238.5q0 197 133.5 338.5t326.5 141.5q164 0 265.5 -91.5t118.5 -228.5l60 300h696l-20 -80h-216l-56 -280q52 40 108 40q91 0 148.5 -85t57.5 -195
q0 -329 -318.5 -534.5t-721.5 -205.5q-424 0 -752 229t-328 591q0 188 81.5 344t218.5 156q68 0 114 -53.5t46 -126.5q0 -109 -118 -174.5t-262 -65.5q-10 -28 -10 -80q0 -327 308.5 -533.5t701.5 -206.5q343 0 611.5 178t268.5 462q0 74 -27 137t-73 63q-42 0 -74 -40z
M306 440q95 0 172.5 44t77.5 116q0 25 -21 42.5t-49 17.5q-58 0 -106.5 -63t-73.5 -157z" />
    <glyph glyph-name="tm_lll_uukaar" horiz-adv-x="2024" 
d="M1902 340q0 136 -59.5 248t-160.5 112q-44 0 -78 -30.5t-42 -69.5l-104 -520h264q80 0 130 80t50 180zM1982 340q0 -133 -73 -236.5t-187 -103.5h-282l-24 -120q49 40 122 40q75 0 127.5 -52.5t52.5 -127.5q0 -131 -199 -205.5t-421 -74.5q-358 0 -629 209.5t-271 530.5
q0 216 92.5 398t247.5 182q83 0 141.5 -58.5t58.5 -141.5q0 -102 -74.5 -171t-179.5 -69q-118 0 -186 40q-20 -54 -20 -180q0 -288 247 -474t573 -186q160 0 305 53.5t145 146.5q0 33 -20 56.5t-50 23.5q-70 0 -80 -40l-20 -80h-156l60 300h-580l160 800h160l-144 -720h420
l104 520q18 88 73 144t127 56q165 0 272.5 -138t107.5 -322zM318 460q54 -20 120 -20q64 0 112 36t48 92q0 45 -25 78.5t-65 33.5q-70 0 -122.5 -64.5t-67.5 -155.5z" />
    <glyph glyph-name="tm_v_uukaar" horiz-adv-x="1850" 
d="M588 260q0 38 -19.5 69t-50.5 31q-40 0 -65 -36t-25 -84q0 -67 40 -140q54 3 87 50t33 110zM1292 -300l60 300h-584q200 167 200 400q0 135 -104 227.5t-246 92.5q-147 0 -248.5 -110.5t-101.5 -269.5q0 -86 30 -146t90 -94q-40 68 -40 140q0 93 64 156.5t156 63.5
q76 0 128 -59.5t52 -140.5q0 -108 -75.5 -184t-184.5 -76q-128 0 -214 101.5t-86 238.5q0 199 136.5 339.5t333.5 140.5q191 0 330.5 -120.5t139.5 -299.5q0 -175 -120 -320h360l140 720h160l-146 -750q58 60 156 60q72 0 121 -56.5t49 -133.5q0 -213 -279.5 -336.5
t-600.5 -123.5q-280 0 -535 79t-255 221q0 75 106 117.5t224 42.5q301 0 560 -150l-100 -130q-212 180 -520 180q-66 0 -123 -24t-57 -66q0 -94 211 -142t489 -48q255 0 482.5 91t227.5 249q0 49 -28.5 84.5t-71.5 35.5q-27 0 -50 -24.5t-32 -55.5l-44 -220h-160z" />
    <glyph glyph-name="tm_k_ssa" horiz-adv-x="2252" 
d="M630 360h-310q-49 0 -84.5 -28.5t-35.5 -71.5q0 -80 80 -130t180 -50q51 0 89 33.5t49 86.5zM702 720h-222l-56 -280h222zM1158 200q0 96 -120 140q-80 -67 -80 -160q0 -43 29.5 -71.5t70.5 -28.5q43 0 71.5 35.5t28.5 84.5zM1781 620q0 32 -18 51t-43 19q-46 0 -73 -53
t-27 -117q0 -58 35 -99t81 -41l40 200q5 23 5 40zM2030 330q-55 -30 -150 -30l-44 -220h144zM1940 628q0 -35 -12 -92l-32 -156q92 0 182 58t162 162l-120 -600h-300l-80 -400h-160l80 400h-342q90 107 90 220q0 80 -48.5 140t-121.5 60q-54 0 -110 -30q110 -63 110 -190
q0 -81 -52 -140.5t-128 -59.5q-74 0 -127 53t-53 127q0 112 60 180h-148l-16 -80q-28 -138 -115.5 -209t-198.5 -71q-133 0 -236.5 73t-103.5 187q0 76 59.5 128t140.5 52h28l72 360h700l-20 -80h-238l-56 -280h112q64 0 120 -20q68 60 200 60q115 0 197.5 -75t82.5 -185
q0 -84 -30 -140h188l44 220q-80 15 -130 77t-50 143q0 113 68 196.5t172 83.5q67 0 113.5 -50.5t46.5 -121.5z" />
    <glyph glyph-name="tm_k_ss_ikaar" horiz-adv-x="2520" 
d="M630 360h-310q-49 0 -84.5 -28.5t-35.5 -71.5q0 -80 80 -130t180 -50q51 0 89 33.5t49 86.5zM702 720h-222l-56 -280h222zM1158 200q0 96 -120 140q-80 -67 -80 -160q0 -43 29.5 -71.5t70.5 -28.5q43 0 71.5 35.5t28.5 84.5zM1781 620q0 32 -18 51t-43 19q-46 0 -73 -53
t-27 -117q0 -58 35 -99t81 -41l40 200q5 23 5 40zM2030 330q-55 -30 -150 -30l-44 -220h144zM1940 628q0 -35 -12 -92l-32 -156q92 0 182 58t162 162l-120 -600h-300l-80 -400h-160l80 400h-342q90 107 90 220q0 80 -48.5 140t-121.5 60q-54 0 -110 -30q110 -63 110 -190
q0 -81 -52 -140.5t-128 -59.5q-74 0 -127 53t-53 127q0 112 60 180h-148l-16 -80q-28 -138 -115.5 -209t-198.5 -71q-133 0 -236.5 73t-103.5 187q0 76 59.5 128t140.5 52h28l72 360h700l-20 -80h-238l-56 -280h112q64 0 120 -20q68 60 200 60q115 0 197.5 -75t82.5 -185
q0 -84 -30 -140h188l44 220q-80 15 -130 77t-50 143q0 102 53.5 177t128.5 96q-44 76 -44 167q0 167 116.5 283.5t283.5 116.5q185 0 301 -160.5t116 -356.5q0 -79 -17 -163l-140 -680h-76l140 680q12 58 12 108q0 154 -93 283t-243 129q-123 0 -211.5 -81t-88.5 -199
q0 -69 36 -123q50 -11 87.5 -57.5t38.5 -111.5z" />
    <glyph glyph-name="tm_k_ss_iikaar" horiz-adv-x="2252" 
d="M630 360h-310q-49 0 -84.5 -28.5t-35.5 -71.5q0 -80 80 -130t180 -50q51 0 89 33.5t49 86.5zM702 720h-222l-56 -280h222zM1158 200q0 96 -120 140q-80 -67 -80 -160q0 -43 29.5 -71.5t70.5 -28.5q43 0 71.5 35.5t28.5 84.5zM1781 620q0 32 -18 51t-43 19q-46 0 -73 -53
t-27 -117q0 -58 35 -99t81 -41l40 200q5 23 5 40zM2030 330q-55 -30 -150 -30l-44 -220h144zM1940 636q0 -41 -12 -100l-32 -156q92 0 182 58t162 162l-120 -600h-300l-80 -400h-160l80 400h-342q90 107 90 220q0 80 -48.5 140t-121.5 60q-54 0 -110 -30q110 -63 110 -190
q0 -81 -52 -140.5t-128 -59.5q-74 0 -127 53t-53 127q0 112 60 180h-148l-16 -80q-28 -138 -115.5 -209t-198.5 -71q-133 0 -236.5 73t-103.5 187q0 76 59.5 128t140.5 52h28l72 360h700l-20 -80h-238l-56 -280h112q64 0 120 -20q68 60 200 60q115 0 197.5 -75t82.5 -185
q0 -84 -30 -140h188l44 220q-80 15 -130 77t-50 143q0 116 69.5 198t153.5 82q-92 104 -92 240q0 110 82 185t198 75q113 0 196.5 -68t83.5 -172q0 -74 -53 -127t-127 -53q-73 0 -126.5 46t-53.5 114q0 113 80 180q-81 0 -141 -52t-59 -128q0 -83 35 -141q12 -13 78 -104.5
t71 -118.5t5 -40zM2011 1200q-60 -51 -60 -140q0 -34 23 -57t57 -23q60 0 60 80q0 109 -80 140z" />
    <glyph glyph-name="tm_nn_aakaar" horiz-adv-x="2678" 
d="M930 240q0 41 -25 70.5t-65 29.5q-45 0 -67.5 -25t-22.5 -75q0 -73 38 -140q71 12 106.5 47t35.5 93zM1464 270q0 64 -26.5 142.5t-65.5 129.5q-54 -57 -81 -127.5t-27 -154.5q0 -55 27.5 -97.5t72.5 -42.5q46 0 73 44t27 106zM2016 270q0 62 -28 145t-64 127
q-54 -54 -81 -124.5t-27 -157.5q0 -55 27.5 -97.5t72.5 -42.5q46 0 73 44t27 106zM1973.5 -313q257.5 127 373 310t115.5 385q0 154 -67 236t-163 82q-110 0 -190 -68q67 -80 100.5 -170.5t33.5 -191.5q0 -114 -60.5 -192t-159.5 -78q-97 0 -158.5 75.5t-61.5 184.5
q0 102 36 188.5t108 157.5q-76 94 -188 94q-116 0 -210 -70q71 -80 106.5 -170t35.5 -190q0 -114 -60.5 -192t-159.5 -78q-97 0 -158.5 75.5t-61.5 184.5q0 101 35.5 187t106.5 157q-100 96 -258 96q-236 0 -367 -108.5t-131 -271.5q0 -76 38 -137t102 -83q-40 68 -40 140
q0 99 61.5 159.5t158.5 60.5q75 0 127.5 -52.5t52.5 -127.5q0 -117 -81.5 -198.5t-198.5 -81.5q-126 0 -213 94.5t-87 225.5q0 203 165.5 341.5t412.5 138.5q188 0 348 -108q131 108 282 108q155 0 288 -108q131 108 256 108q158 0 269 -111t111 -307q0 -207 -138 -415
t-431.5 -347.5t-650.5 -139.5q-461 0 -830.5 226t-369.5 594q0 158 65 283t195 217l40 -60q-110 -76 -165 -186t-55 -254q0 -333 346.5 -536.5t773.5 -203.5q314 0 571.5 127z" />
    <glyph glyph-name="tm_nnn_aakaar" horiz-adv-x="2140" 
d="M930 240q0 41 -25 70.5t-65 29.5q-45 0 -67.5 -25t-22.5 -75q0 -73 38 -140q71 12 106.5 47t35.5 93zM1464 270q0 64 -26.5 142.5t-65.5 129.5q-54 -57 -81 -127.5t-27 -154.5q0 -55 27.5 -97.5t72.5 -42.5q46 0 73 44t27 106zM1078 -440q345 0 592.5 225t247.5 555
q0 144 -64 252t-172 108q-117 0 -200 -70q71 -80 106.5 -170t35.5 -190q0 -114 -60.5 -192t-159.5 -78q-97 0 -158.5 75.5t-61.5 184.5q0 101 35.5 187t106.5 157q-100 96 -258 96q-236 0 -367 -108.5t-131 -271.5q0 -76 38 -137t102 -83q-40 68 -40 140q0 99 61.5 159.5
t158.5 60.5q75 0 127.5 -52.5t52.5 -127.5q0 -117 -81.5 -198.5t-198.5 -81.5q-126 0 -213 94.5t-87 225.5q0 203 165.5 341.5t412.5 138.5q188 0 348 -108q131 108 276 108q171 0 277.5 -138t106.5 -342q0 -358 -292.5 -609t-705.5 -251q-355 0 -617.5 217t-262.5 543
q0 175 68 324t192 236l40 -40q-110 -93 -165 -223t-55 -297q0 -286 239.5 -473t560.5 -187z" />
    <glyph glyph-name="tm_rr_aakaar" horiz-adv-x="1758" 
d="M630 780l20 -60q-192 -51 -306 -231.5t-114 -408.5q0 -232 188 -386t442 -154q179 0 314.5 101t135.5 259v180q0 94 40 164t120 116q80 45 120 95t40 105q0 68 -53.5 114t-126.5 46q-75 0 -131.5 -40t-68.5 -100l-120 -580h-160l120 580q3 12 3 24q0 44 -36 80t-87 36
q-57 0 -102.5 -40t-57.5 -100l-120 -580h-80l120 580q21 103 94 161.5t166 58.5q66 0 120.5 -45t79.5 -115q28 76 124 118t216 42q107 0 193.5 -52.5t86.5 -137.5q0 -66 -50 -128.5t-150 -121.5q-70 -41 -105 -96t-35 -124v-160q0 -229 -234.5 -369.5t-525.5 -140.5
q-238 0 -399 180.5t-161 429.5q0 237 131.5 429t348.5 271z" />
    <glyph glyph-name="tm_s_r_iikaar" horiz-adv-x="2088" 
d="M2002 1220q-66 0 -113 -47t-47 -113q0 -75 38 -140t114 -120h176l-10 -80h-118l-102 -520q-66 -339 -375 -549.5t-725 -210.5q-255 0 -487.5 79.5t-232.5 220.5q0 72 81 116t179 44q372 0 560 -160l-120 -100q-180 180 -460 180q-58 0 -109 -21.5t-51 -58.5
q0 -93 148 -146.5t312 -53.5q432 0 747 183.5t373 476.5l102 520h-222q-112 0 -180 -60q70 -101 105 -203.5t35 -206.5q0 -102 -63 -176t-157 -74q-96 0 -158 77t-62 183q0 125 35 222.5t105 167.5q-39 70 -140 70q-50 0 -94 -49.5t-56 -110.5l-110 -560h-738l158 800h160
l-142 -720h418l84 420q25 124 123.5 217t216.5 93q133 0 210 -90q97 80 250 80h224q-61 49 -91.5 114t-30.5 146q0 104 82 177t206 73q112 0 192 -64.5t80 -165.5q0 -66 -46.5 -113t-113.5 -47q-81 0 -140.5 52t-59.5 128q0 72 40 120zM2084 1212q-42 -33 -42 -112
q0 -39 26 -64.5t68 -25.5q76 0 76 70q0 51 -36.5 88.5t-91.5 43.5zM1370 580q-55 -65 -82.5 -145t-27.5 -175q0 -61 27 -110.5t73 -49.5t73 49.5t27 110.5q0 107 -22.5 187t-67.5 133z" />
    </font>
</defs>
</svg>
